%TF.GenerationSoftware,KiCad,Pcbnew,5.1.9+dfsg1-1*%
%TF.CreationDate,2021-06-01T22:56:34+02:00*%
%TF.ProjectId,SDR-RX,5344522d-5258-42e6-9b69-6361645f7063,rev?*%
%TF.SameCoordinates,Original*%
%TF.FileFunction,Soldermask,Bot*%
%TF.FilePolarity,Negative*%
%FSLAX46Y46*%
G04 Gerber Fmt 4.6, Leading zero omitted, Abs format (unit mm)*
G04 Created by KiCad (PCBNEW 5.1.9+dfsg1-1) date 2021-06-01 22:56:34*
%MOMM*%
%LPD*%
G01*
G04 APERTURE LIST*
%ADD10O,1.950000X1.700000*%
%ADD11C,2.240000*%
%ADD12C,2.740000*%
%ADD13O,1.700000X2.000000*%
%ADD14C,0.800000*%
%ADD15C,5.400000*%
%ADD16C,0.900000*%
%ADD17O,1.700000X1.700000*%
%ADD18R,1.700000X1.700000*%
%ADD19R,4.200000X1.350000*%
G04 APERTURE END LIST*
D10*
%TO.C,Program*%
X112800000Y-89980000D03*
X112800000Y-87480000D03*
X112800000Y-84980000D03*
X112800000Y-82480000D03*
X112800000Y-79980000D03*
X112800000Y-77480000D03*
G36*
G01*
X112075000Y-74130000D02*
X113525000Y-74130000D01*
G75*
G02*
X113775000Y-74380000I0J-250000D01*
G01*
X113775000Y-75580000D01*
G75*
G02*
X113525000Y-75830000I-250000J0D01*
G01*
X112075000Y-75830000D01*
G75*
G02*
X111825000Y-75580000I0J250000D01*
G01*
X111825000Y-74380000D01*
G75*
G02*
X112075000Y-74130000I250000J0D01*
G01*
G37*
%TD*%
D11*
%TO.C,SW/AM Ant.*%
X137070000Y-90050000D03*
D12*
X134530000Y-92590000D03*
X134530000Y-87510000D03*
X139610000Y-87510000D03*
X139610000Y-92590000D03*
%TD*%
D13*
%TO.C,Vin *%
X125460000Y-111810000D03*
G36*
G01*
X122110000Y-112560000D02*
X122110000Y-111060000D01*
G75*
G02*
X122360000Y-110810000I250000J0D01*
G01*
X123560000Y-110810000D01*
G75*
G02*
X123810000Y-111060000I0J-250000D01*
G01*
X123810000Y-112560000D01*
G75*
G02*
X123560000Y-112810000I-250000J0D01*
G01*
X122360000Y-112810000D01*
G75*
G02*
X122110000Y-112560000I0J250000D01*
G01*
G37*
%TD*%
D14*
%TO.C,H4*%
X161191891Y-66788109D03*
X159760000Y-66195000D03*
X158328109Y-66788109D03*
X157735000Y-68220000D03*
X158328109Y-69651891D03*
X159760000Y-70245000D03*
X161191891Y-69651891D03*
X161785000Y-68220000D03*
D15*
X159760000Y-68220000D03*
%TD*%
D14*
%TO.C,H3*%
X161191891Y-110788109D03*
X159760000Y-110195000D03*
X158328109Y-110788109D03*
X157735000Y-112220000D03*
X158328109Y-113651891D03*
X159760000Y-114245000D03*
X161191891Y-113651891D03*
X161785000Y-112220000D03*
D15*
X159760000Y-112220000D03*
%TD*%
D14*
%TO.C,H2*%
X115191891Y-110788109D03*
X113760000Y-110195000D03*
X112328109Y-110788109D03*
X111735000Y-112220000D03*
X112328109Y-113651891D03*
X113760000Y-114245000D03*
X115191891Y-113651891D03*
X115785000Y-112220000D03*
D15*
X113760000Y-112220000D03*
%TD*%
D14*
%TO.C,H1*%
X115191891Y-66788109D03*
X113760000Y-66195000D03*
X112328109Y-66788109D03*
X111735000Y-68220000D03*
X112328109Y-69651891D03*
X113760000Y-70245000D03*
X115191891Y-69651891D03*
X115785000Y-68220000D03*
D15*
X113760000Y-68220000D03*
%TD*%
D16*
%TO.C,sel. 3V3 *%
X112800000Y-102510000D03*
X112800000Y-95710000D03*
%TD*%
D17*
%TO.C,GND*%
X147090000Y-111810000D03*
X144550000Y-111810000D03*
D18*
X142010000Y-111810000D03*
%TD*%
D19*
%TO.C,FM Antenna*%
X161060000Y-73140000D03*
X161060000Y-78790000D03*
%TD*%
M02*
