%FSLAX45Y45*%
G04 Gerber Fmt 4.5, Leading zero omitted, Abs format (unit mm)*
G04 Created by KiCad (PCBNEW 5.1.9+dfsg1-1) date 2021-06-01 22:56:22*
%MOMM*%
%LPD*%
G01*
G04 APERTURE LIST*
%TA.AperFunction,Profile*%
%ADD10C,0.050000*%
%TD*%
%ADD11C,0.200000*%
%ADD12C,0.300000*%
G04 APERTURE END LIST*
D10*
X11026000Y-6572000D02*
G75*
G02*
X11126000Y-6472000I100000J0D01*
G01*
X11126000Y-11572000D02*
G75*
G02*
X11026000Y-11472000I0J100000D01*
G01*
X16326000Y-11472000D02*
G75*
G02*
X16226000Y-11572000I-100000J0D01*
G01*
X16226000Y-6472000D02*
G75*
G02*
X16326000Y-6572000I0J-100000D01*
G01*
X16226000Y-6472000D02*
X11126000Y-6472000D01*
X16326000Y-11472000D02*
X16326000Y-6572000D01*
X11126000Y-11572000D02*
X16226000Y-11572000D01*
X11026000Y-6572000D02*
X11026000Y-11472000D01*
D11*
X11260000Y-7234000D02*
X11300000Y-7274000D01*
X11300000Y-7234000D02*
X11260000Y-7274000D01*
X11285400Y-9812100D02*
X11325400Y-9852100D01*
X11325400Y-9812100D02*
X11285400Y-9852100D01*
X11387000Y-9393000D02*
X11427000Y-9433000D01*
X11427000Y-9393000D02*
X11387000Y-9433000D01*
X11514000Y-7869000D02*
X11554000Y-7909000D01*
X11554000Y-7869000D02*
X11514000Y-7909000D01*
X11514000Y-8377000D02*
X11554000Y-8417000D01*
X11554000Y-8377000D02*
X11514000Y-8417000D01*
X11514000Y-10536000D02*
X11554000Y-10576000D01*
X11554000Y-10536000D02*
X11514000Y-10576000D01*
X11641000Y-9393000D02*
X11681000Y-9433000D01*
X11681000Y-9393000D02*
X11641000Y-9433000D01*
X11768000Y-10282000D02*
X11808000Y-10322000D01*
X11808000Y-10282000D02*
X11768000Y-10322000D01*
X11768000Y-11425000D02*
X11808000Y-11465000D01*
X11808000Y-11425000D02*
X11768000Y-11465000D01*
X12149000Y-9647000D02*
X12189000Y-9687000D01*
X12189000Y-9647000D02*
X12149000Y-9687000D01*
X12149000Y-10917000D02*
X12189000Y-10957000D01*
X12189000Y-10917000D02*
X12149000Y-10957000D01*
X12276000Y-10282000D02*
X12316000Y-10322000D01*
X12316000Y-10282000D02*
X12276000Y-10322000D01*
X12657000Y-9139000D02*
X12697000Y-9179000D01*
X12697000Y-9139000D02*
X12657000Y-9179000D01*
X12860200Y-6624400D02*
X12900200Y-6664400D01*
X12900200Y-6624400D02*
X12860200Y-6664400D01*
X12911000Y-7107000D02*
X12951000Y-7147000D01*
X12951000Y-7107000D02*
X12911000Y-7147000D01*
X12911000Y-8123000D02*
X12951000Y-8163000D01*
X12951000Y-8123000D02*
X12911000Y-8163000D01*
X12911000Y-8631000D02*
X12951000Y-8671000D01*
X12951000Y-8631000D02*
X12911000Y-8671000D01*
X12923700Y-11171000D02*
X12963700Y-11211000D01*
X12963700Y-11171000D02*
X12923700Y-11211000D01*
X12974500Y-10510600D02*
X13014500Y-10550600D01*
X13014500Y-10510600D02*
X12974500Y-10550600D01*
X13101500Y-8123000D02*
X13141500Y-8163000D01*
X13141500Y-8123000D02*
X13101500Y-8163000D01*
X13101500Y-8885000D02*
X13141500Y-8925000D01*
X13141500Y-8885000D02*
X13101500Y-8925000D01*
X13165000Y-6853000D02*
X13205000Y-6893000D01*
X13205000Y-6853000D02*
X13165000Y-6893000D01*
X13165000Y-7107000D02*
X13205000Y-7147000D01*
X13205000Y-7107000D02*
X13165000Y-7147000D01*
X13165000Y-10155000D02*
X13205000Y-10195000D01*
X13205000Y-10155000D02*
X13165000Y-10195000D01*
X13165000Y-10917000D02*
X13205000Y-10957000D01*
X13205000Y-10917000D02*
X13165000Y-10957000D01*
X13292000Y-6980000D02*
X13332000Y-7020000D01*
X13332000Y-6980000D02*
X13292000Y-7020000D01*
X13419000Y-7996000D02*
X13459000Y-8036000D01*
X13459000Y-7996000D02*
X13419000Y-8036000D01*
X13419000Y-11425000D02*
X13459000Y-11465000D01*
X13459000Y-11425000D02*
X13419000Y-11465000D01*
X13673000Y-7742000D02*
X13713000Y-7782000D01*
X13713000Y-7742000D02*
X13673000Y-7782000D01*
X13673000Y-8631000D02*
X13713000Y-8671000D01*
X13713000Y-8631000D02*
X13673000Y-8671000D01*
X13673000Y-9393000D02*
X13713000Y-9433000D01*
X13713000Y-9393000D02*
X13673000Y-9433000D01*
X13673000Y-10409000D02*
X13713000Y-10449000D01*
X13713000Y-10409000D02*
X13673000Y-10449000D01*
X13673000Y-10917000D02*
X13713000Y-10957000D01*
X13713000Y-10917000D02*
X13673000Y-10957000D01*
X13927000Y-6980000D02*
X13967000Y-7020000D01*
X13967000Y-6980000D02*
X13927000Y-7020000D01*
X14181000Y-8631000D02*
X14221000Y-8671000D01*
X14221000Y-8631000D02*
X14181000Y-8671000D01*
X14181000Y-9266000D02*
X14221000Y-9306000D01*
X14221000Y-9266000D02*
X14181000Y-9306000D01*
X14181000Y-10409000D02*
X14221000Y-10449000D01*
X14221000Y-10409000D02*
X14181000Y-10449000D01*
X14181000Y-10917000D02*
X14221000Y-10957000D01*
X14221000Y-10917000D02*
X14181000Y-10957000D01*
X14181000Y-11425000D02*
X14221000Y-11465000D01*
X14221000Y-11425000D02*
X14181000Y-11465000D01*
X14435000Y-6980000D02*
X14475000Y-7020000D01*
X14475000Y-6980000D02*
X14435000Y-7020000D01*
X14435000Y-7996000D02*
X14475000Y-8036000D01*
X14475000Y-7996000D02*
X14435000Y-8036000D01*
X14689000Y-9266000D02*
X14729000Y-9306000D01*
X14729000Y-9266000D02*
X14689000Y-9306000D01*
X14689000Y-9520000D02*
X14729000Y-9560000D01*
X14729000Y-9520000D02*
X14689000Y-9560000D01*
X14689000Y-10917000D02*
X14729000Y-10957000D01*
X14729000Y-10917000D02*
X14689000Y-10957000D01*
X14689000Y-11425000D02*
X14729000Y-11465000D01*
X14729000Y-11425000D02*
X14689000Y-11465000D01*
X14752500Y-10078800D02*
X14792500Y-10118800D01*
X14792500Y-10078800D02*
X14752500Y-10118800D01*
X14816000Y-10282000D02*
X14856000Y-10322000D01*
X14856000Y-10282000D02*
X14816000Y-10322000D01*
X14828700Y-8542100D02*
X14868700Y-8582100D01*
X14868700Y-8542100D02*
X14828700Y-8582100D01*
X14892200Y-8034100D02*
X14932200Y-8074100D01*
X14932200Y-8034100D02*
X14892200Y-8074100D01*
X14917600Y-9100900D02*
X14957600Y-9140900D01*
X14957600Y-9100900D02*
X14917600Y-9140900D01*
X15006500Y-7513400D02*
X15046500Y-7553400D01*
X15046500Y-7513400D02*
X15006500Y-7553400D01*
X15035356Y-8881544D02*
X15075356Y-8921544D01*
X15075356Y-8881544D02*
X15035356Y-8921544D01*
X15070000Y-6599000D02*
X15110000Y-6639000D01*
X15110000Y-6599000D02*
X15070000Y-6639000D01*
X15146200Y-9659700D02*
X15186200Y-9699700D01*
X15186200Y-9659700D02*
X15146200Y-9699700D01*
X15235100Y-7183200D02*
X15275100Y-7223200D01*
X15275100Y-7183200D02*
X15235100Y-7223200D01*
X15260500Y-7932500D02*
X15300500Y-7972500D01*
X15300500Y-7932500D02*
X15260500Y-7972500D01*
X15324000Y-10256600D02*
X15364000Y-10296600D01*
X15364000Y-10256600D02*
X15324000Y-10296600D01*
X15336700Y-8885000D02*
X15376700Y-8925000D01*
X15376700Y-8885000D02*
X15336700Y-8925000D01*
X15336700Y-9037400D02*
X15376700Y-9077400D01*
X15376700Y-9037400D02*
X15336700Y-9077400D01*
X15565300Y-9507300D02*
X15605300Y-9547300D01*
X15605300Y-9507300D02*
X15565300Y-9547300D01*
X15578000Y-6599000D02*
X15618000Y-6639000D01*
X15618000Y-6599000D02*
X15578000Y-6639000D01*
X15578000Y-11044000D02*
X15618000Y-11084000D01*
X15618000Y-11044000D02*
X15578000Y-11084000D01*
X15705000Y-7615000D02*
X15745000Y-7655000D01*
X15745000Y-7615000D02*
X15705000Y-7655000D01*
X15705000Y-8250000D02*
X15745000Y-8290000D01*
X15745000Y-8250000D02*
X15705000Y-8290000D01*
X15705000Y-8885000D02*
X15745000Y-8925000D01*
X15745000Y-8885000D02*
X15705000Y-8925000D01*
X15705000Y-9266000D02*
X15745000Y-9306000D01*
X15745000Y-9266000D02*
X15705000Y-9306000D01*
X15832000Y-9774000D02*
X15872000Y-9814000D01*
X15872000Y-9774000D02*
X15832000Y-9814000D01*
X15946300Y-7284800D02*
X15986300Y-7324800D01*
X15986300Y-7284800D02*
X15946300Y-7324800D01*
X15959000Y-7856300D02*
X15999000Y-7896300D01*
X15999000Y-7856300D02*
X15959000Y-7896300D01*
X15959000Y-9266000D02*
X15999000Y-9306000D01*
X15999000Y-9266000D02*
X15959000Y-9306000D01*
X16086000Y-7284800D02*
X16126000Y-7324800D01*
X16126000Y-7284800D02*
X16086000Y-7324800D01*
X16086000Y-7859000D02*
X16126000Y-7899000D01*
X16126000Y-7859000D02*
X16086000Y-7899000D01*
X16086000Y-7859000D02*
X16126000Y-7899000D01*
X16126000Y-7859000D02*
X16086000Y-7899000D01*
X16086000Y-7859000D02*
X16126000Y-7899000D01*
X16126000Y-7859000D02*
X16086000Y-7899000D01*
X16086000Y-10536000D02*
X16126000Y-10576000D01*
X16126000Y-10536000D02*
X16086000Y-10576000D01*
X16213000Y-7284800D02*
X16253000Y-7324800D01*
X16253000Y-7284800D02*
X16213000Y-7324800D01*
X16213000Y-7856300D02*
X16253000Y-7896300D01*
X16253000Y-7856300D02*
X16213000Y-7896300D01*
X11198500Y-6822000D02*
G75*
G03*
X11198500Y-6822000I-25000J0D01*
G01*
X11198500Y-11222000D02*
G75*
G03*
X11198500Y-11222000I-25000J0D01*
G01*
X11257811Y-6678811D02*
G75*
G03*
X11257811Y-6678811I-25000J0D01*
G01*
X11257811Y-6965189D02*
G75*
G03*
X11257811Y-6965189I-25000J0D01*
G01*
X11257811Y-11078811D02*
G75*
G03*
X11257811Y-11078811I-25000J0D01*
G01*
X11257811Y-11365189D02*
G75*
G03*
X11257811Y-11365189I-25000J0D01*
G01*
X11401000Y-6619500D02*
G75*
G03*
X11401000Y-6619500I-25000J0D01*
G01*
X11401000Y-7024500D02*
G75*
G03*
X11401000Y-7024500I-25000J0D01*
G01*
X11401000Y-11019500D02*
G75*
G03*
X11401000Y-11019500I-25000J0D01*
G01*
X11401000Y-11424500D02*
G75*
G03*
X11401000Y-11424500I-25000J0D01*
G01*
X11544189Y-6678811D02*
G75*
G03*
X11544189Y-6678811I-25000J0D01*
G01*
X11544189Y-6965189D02*
G75*
G03*
X11544189Y-6965189I-25000J0D01*
G01*
X11544189Y-11078811D02*
G75*
G03*
X11544189Y-11078811I-25000J0D01*
G01*
X11544189Y-11365189D02*
G75*
G03*
X11544189Y-11365189I-25000J0D01*
G01*
X11603500Y-6822000D02*
G75*
G03*
X11603500Y-6822000I-25000J0D01*
G01*
X11603500Y-11222000D02*
G75*
G03*
X11603500Y-11222000I-25000J0D01*
G01*
X15798500Y-6822000D02*
G75*
G03*
X15798500Y-6822000I-25000J0D01*
G01*
X15798500Y-11222000D02*
G75*
G03*
X15798500Y-11222000I-25000J0D01*
G01*
X15857811Y-6678811D02*
G75*
G03*
X15857811Y-6678811I-25000J0D01*
G01*
X15857811Y-6965189D02*
G75*
G03*
X15857811Y-6965189I-25000J0D01*
G01*
X15857811Y-11078811D02*
G75*
G03*
X15857811Y-11078811I-25000J0D01*
G01*
X15857811Y-11365189D02*
G75*
G03*
X15857811Y-11365189I-25000J0D01*
G01*
X16001000Y-6619500D02*
G75*
G03*
X16001000Y-6619500I-25000J0D01*
G01*
X16001000Y-7024500D02*
G75*
G03*
X16001000Y-7024500I-25000J0D01*
G01*
X16001000Y-11019500D02*
G75*
G03*
X16001000Y-11019500I-25000J0D01*
G01*
X16001000Y-11424500D02*
G75*
G03*
X16001000Y-11424500I-25000J0D01*
G01*
X16144189Y-6678811D02*
G75*
G03*
X16144189Y-6678811I-25000J0D01*
G01*
X16144189Y-6965189D02*
G75*
G03*
X16144189Y-6965189I-25000J0D01*
G01*
X16144189Y-11078811D02*
G75*
G03*
X16144189Y-11078811I-25000J0D01*
G01*
X16144189Y-11365189D02*
G75*
G03*
X16144189Y-11365189I-25000J0D01*
G01*
X16203500Y-6822000D02*
G75*
G03*
X16203500Y-6822000I-25000J0D01*
G01*
X16203500Y-11222000D02*
G75*
G03*
X16203500Y-11222000I-25000J0D01*
G01*
X11280000Y-7450500D02*
X11280000Y-7545500D01*
X11232500Y-7498000D02*
X11327500Y-7498000D01*
X11280000Y-7700500D02*
X11280000Y-7795500D01*
X11232500Y-7748000D02*
X11327500Y-7748000D01*
X11280000Y-7950500D02*
X11280000Y-8045500D01*
X11232500Y-7998000D02*
X11327500Y-7998000D01*
X11280000Y-8200500D02*
X11280000Y-8295500D01*
X11232500Y-8248000D02*
X11327500Y-8248000D01*
X11280000Y-8450500D02*
X11280000Y-8545500D01*
X11232500Y-8498000D02*
X11327500Y-8498000D01*
X11280000Y-8700500D02*
X11280000Y-8795500D01*
X11232500Y-8748000D02*
X11327500Y-8748000D01*
X11280000Y-8950500D02*
X11280000Y-9045500D01*
X11232500Y-8998000D02*
X11327500Y-8998000D01*
X12331356Y-11216356D02*
X12331356Y-11145644D01*
X12260644Y-11145644D01*
X12260644Y-11216356D01*
X12331356Y-11216356D01*
X12581356Y-11216356D02*
X12581356Y-11145644D01*
X12510644Y-11145644D01*
X12510644Y-11216356D01*
X12581356Y-11216356D01*
X14236356Y-11216356D02*
X14236356Y-11145644D01*
X14165644Y-11145644D01*
X14165644Y-11216356D01*
X14236356Y-11216356D01*
X14490356Y-11216356D02*
X14490356Y-11145644D01*
X14419644Y-11145644D01*
X14419644Y-11216356D01*
X14490356Y-11216356D01*
X14744356Y-11216356D02*
X14744356Y-11145644D01*
X14673644Y-11145644D01*
X14673644Y-11216356D01*
X14744356Y-11216356D01*
X13707000Y-9065000D02*
X13767000Y-9005000D01*
X13707000Y-8945000D01*
X13647000Y-9005000D01*
X13707000Y-9065000D01*
X13368000Y-8666000D02*
X13538000Y-8836000D01*
X13538000Y-8666000D02*
X13368000Y-8836000D01*
X13538000Y-8751000D02*
G75*
G03*
X13538000Y-8751000I-85000J0D01*
G01*
X13368000Y-9174000D02*
X13538000Y-9344000D01*
X13538000Y-9174000D02*
X13368000Y-9344000D01*
X13538000Y-9259000D02*
G75*
G03*
X13538000Y-9259000I-85000J0D01*
G01*
X13876000Y-8666000D02*
X14046000Y-8836000D01*
X14046000Y-8666000D02*
X13876000Y-8836000D01*
X14046000Y-8751000D02*
G75*
G03*
X14046000Y-8751000I-85000J0D01*
G01*
X13876000Y-9174000D02*
X14046000Y-9344000D01*
X14046000Y-9174000D02*
X13876000Y-9344000D01*
X14046000Y-9259000D02*
G75*
G03*
X14046000Y-9259000I-85000J0D01*
G01*
X11241000Y-6687000D02*
X11511000Y-6957000D01*
X11511000Y-6687000D02*
X11241000Y-6957000D01*
X11376000Y-6687000D02*
X11376000Y-6957000D01*
X11241000Y-6822000D02*
X11511000Y-6822000D01*
X11241000Y-11087000D02*
X11511000Y-11357000D01*
X11511000Y-11087000D02*
X11241000Y-11357000D01*
X11376000Y-11087000D02*
X11376000Y-11357000D01*
X11241000Y-11222000D02*
X11511000Y-11222000D01*
X15841000Y-6687000D02*
X16111000Y-6957000D01*
X16111000Y-6687000D02*
X15841000Y-6957000D01*
X15976000Y-6687000D02*
X15976000Y-6957000D01*
X15841000Y-6822000D02*
X16111000Y-6822000D01*
X15841000Y-11087000D02*
X16111000Y-11357000D01*
X16111000Y-11087000D02*
X15841000Y-11357000D01*
X15976000Y-11087000D02*
X15976000Y-11357000D01*
X15841000Y-11222000D02*
X16111000Y-11222000D01*
D12*
X11309928Y-12040214D02*
X11309928Y-11740214D01*
X11381357Y-11740214D01*
X11424214Y-11754500D01*
X11452786Y-11783071D01*
X11467071Y-11811643D01*
X11481357Y-11868786D01*
X11481357Y-11911643D01*
X11467071Y-11968786D01*
X11452786Y-11997357D01*
X11424214Y-12025929D01*
X11381357Y-12040214D01*
X11309928Y-12040214D01*
X11609928Y-12040214D02*
X11609928Y-11840214D01*
X11609928Y-11897357D02*
X11624214Y-11868786D01*
X11638500Y-11854500D01*
X11667071Y-11840214D01*
X11695643Y-11840214D01*
X11795643Y-12040214D02*
X11795643Y-11840214D01*
X11795643Y-11740214D02*
X11781357Y-11754500D01*
X11795643Y-11768786D01*
X11809928Y-11754500D01*
X11795643Y-11740214D01*
X11795643Y-11768786D01*
X11981357Y-12040214D02*
X11952786Y-12025929D01*
X11938500Y-11997357D01*
X11938500Y-11740214D01*
X12138500Y-12040214D02*
X12109928Y-12025929D01*
X12095643Y-11997357D01*
X12095643Y-11740214D01*
X12481357Y-12040214D02*
X12481357Y-11740214D01*
X12581357Y-11954500D01*
X12681357Y-11740214D01*
X12681357Y-12040214D01*
X12952786Y-12040214D02*
X12952786Y-11883071D01*
X12938500Y-11854500D01*
X12909928Y-11840214D01*
X12852786Y-11840214D01*
X12824214Y-11854500D01*
X12952786Y-12025929D02*
X12924214Y-12040214D01*
X12852786Y-12040214D01*
X12824214Y-12025929D01*
X12809928Y-11997357D01*
X12809928Y-11968786D01*
X12824214Y-11940214D01*
X12852786Y-11925929D01*
X12924214Y-11925929D01*
X12952786Y-11911643D01*
X13095643Y-11840214D02*
X13095643Y-12140214D01*
X13095643Y-11854500D02*
X13124214Y-11840214D01*
X13181357Y-11840214D01*
X13209928Y-11854500D01*
X13224214Y-11868786D01*
X13238500Y-11897357D01*
X13238500Y-11983071D01*
X13224214Y-12011643D01*
X13209928Y-12025929D01*
X13181357Y-12040214D01*
X13124214Y-12040214D01*
X13095643Y-12025929D01*
X13367071Y-12011643D02*
X13381357Y-12025929D01*
X13367071Y-12040214D01*
X13352786Y-12025929D01*
X13367071Y-12011643D01*
X13367071Y-12040214D01*
X13367071Y-11854500D02*
X13381357Y-11868786D01*
X13367071Y-11883071D01*
X13352786Y-11868786D01*
X13367071Y-11854500D01*
X13367071Y-11883071D01*
X10983500Y-12514500D02*
X11023500Y-12554500D01*
X11023500Y-12514500D02*
X10983500Y-12554500D01*
X11367071Y-12370214D02*
X11395643Y-12370214D01*
X11424214Y-12384500D01*
X11438500Y-12398786D01*
X11452786Y-12427357D01*
X11467071Y-12484500D01*
X11467071Y-12555929D01*
X11452786Y-12613071D01*
X11438500Y-12641643D01*
X11424214Y-12655929D01*
X11395643Y-12670214D01*
X11367071Y-12670214D01*
X11338500Y-12655929D01*
X11324214Y-12641643D01*
X11309928Y-12613071D01*
X11295643Y-12555929D01*
X11295643Y-12484500D01*
X11309928Y-12427357D01*
X11324214Y-12398786D01*
X11338500Y-12384500D01*
X11367071Y-12370214D01*
X11595643Y-12641643D02*
X11609928Y-12655929D01*
X11595643Y-12670214D01*
X11581357Y-12655929D01*
X11595643Y-12641643D01*
X11595643Y-12670214D01*
X11867071Y-12470214D02*
X11867071Y-12670214D01*
X11795643Y-12355929D02*
X11724214Y-12570214D01*
X11909928Y-12570214D01*
X12081357Y-12370214D02*
X12109928Y-12370214D01*
X12138500Y-12384500D01*
X12152786Y-12398786D01*
X12167071Y-12427357D01*
X12181357Y-12484500D01*
X12181357Y-12555929D01*
X12167071Y-12613071D01*
X12152786Y-12641643D01*
X12138500Y-12655929D01*
X12109928Y-12670214D01*
X12081357Y-12670214D01*
X12052786Y-12655929D01*
X12038500Y-12641643D01*
X12024214Y-12613071D01*
X12009928Y-12555929D01*
X12009928Y-12484500D01*
X12024214Y-12427357D01*
X12038500Y-12398786D01*
X12052786Y-12384500D01*
X12081357Y-12370214D01*
X12309928Y-12670214D02*
X12309928Y-12470214D01*
X12309928Y-12498786D02*
X12324214Y-12484500D01*
X12352786Y-12470214D01*
X12395643Y-12470214D01*
X12424214Y-12484500D01*
X12438500Y-12513071D01*
X12438500Y-12670214D01*
X12438500Y-12513071D02*
X12452786Y-12484500D01*
X12481357Y-12470214D01*
X12524214Y-12470214D01*
X12552786Y-12484500D01*
X12567071Y-12513071D01*
X12567071Y-12670214D01*
X12709928Y-12670214D02*
X12709928Y-12470214D01*
X12709928Y-12498786D02*
X12724214Y-12484500D01*
X12752786Y-12470214D01*
X12795643Y-12470214D01*
X12824214Y-12484500D01*
X12838500Y-12513071D01*
X12838500Y-12670214D01*
X12838500Y-12513071D02*
X12852786Y-12484500D01*
X12881357Y-12470214D01*
X12924214Y-12470214D01*
X12952786Y-12484500D01*
X12967071Y-12513071D01*
X12967071Y-12670214D01*
X13552786Y-12355929D02*
X13295643Y-12741643D01*
X13938500Y-12370214D02*
X13967071Y-12370214D01*
X13995643Y-12384500D01*
X14009928Y-12398786D01*
X14024214Y-12427357D01*
X14038500Y-12484500D01*
X14038500Y-12555929D01*
X14024214Y-12613071D01*
X14009928Y-12641643D01*
X13995643Y-12655929D01*
X13967071Y-12670214D01*
X13938500Y-12670214D01*
X13909928Y-12655929D01*
X13895643Y-12641643D01*
X13881357Y-12613071D01*
X13867071Y-12555929D01*
X13867071Y-12484500D01*
X13881357Y-12427357D01*
X13895643Y-12398786D01*
X13909928Y-12384500D01*
X13938500Y-12370214D01*
X14167071Y-12641643D02*
X14181357Y-12655929D01*
X14167071Y-12670214D01*
X14152786Y-12655929D01*
X14167071Y-12641643D01*
X14167071Y-12670214D01*
X14367071Y-12370214D02*
X14395643Y-12370214D01*
X14424214Y-12384500D01*
X14438500Y-12398786D01*
X14452786Y-12427357D01*
X14467071Y-12484500D01*
X14467071Y-12555929D01*
X14452786Y-12613071D01*
X14438500Y-12641643D01*
X14424214Y-12655929D01*
X14395643Y-12670214D01*
X14367071Y-12670214D01*
X14338500Y-12655929D01*
X14324214Y-12641643D01*
X14309928Y-12613071D01*
X14295643Y-12555929D01*
X14295643Y-12484500D01*
X14309928Y-12427357D01*
X14324214Y-12398786D01*
X14338500Y-12384500D01*
X14367071Y-12370214D01*
X14752786Y-12670214D02*
X14581357Y-12670214D01*
X14667071Y-12670214D02*
X14667071Y-12370214D01*
X14638500Y-12413071D01*
X14609928Y-12441643D01*
X14581357Y-12455929D01*
X15009928Y-12370214D02*
X14952786Y-12370214D01*
X14924214Y-12384500D01*
X14909928Y-12398786D01*
X14881357Y-12441643D01*
X14867071Y-12498786D01*
X14867071Y-12613071D01*
X14881357Y-12641643D01*
X14895643Y-12655929D01*
X14924214Y-12670214D01*
X14981357Y-12670214D01*
X15009928Y-12655929D01*
X15024214Y-12641643D01*
X15038500Y-12613071D01*
X15038500Y-12541643D01*
X15024214Y-12513071D01*
X15009928Y-12498786D01*
X14981357Y-12484500D01*
X14924214Y-12484500D01*
X14895643Y-12498786D01*
X14881357Y-12513071D01*
X14867071Y-12541643D01*
X15152786Y-12370214D02*
X15152786Y-12427357D01*
X15267071Y-12370214D02*
X15267071Y-12427357D01*
X15709928Y-12784500D02*
X15695643Y-12770214D01*
X15667071Y-12727357D01*
X15652786Y-12698786D01*
X15638500Y-12655929D01*
X15624214Y-12584500D01*
X15624214Y-12527357D01*
X15638500Y-12455929D01*
X15652786Y-12413071D01*
X15667071Y-12384500D01*
X15695643Y-12341643D01*
X15709928Y-12327357D01*
X15795643Y-12370214D02*
X15995643Y-12370214D01*
X15867071Y-12670214D01*
X16081357Y-12370214D02*
X16281357Y-12370214D01*
X16152786Y-12670214D01*
X16624214Y-12670214D02*
X16624214Y-12370214D01*
X16752786Y-12670214D02*
X16752786Y-12513071D01*
X16738500Y-12484500D01*
X16709928Y-12470214D01*
X16667071Y-12470214D01*
X16638500Y-12484500D01*
X16624214Y-12498786D01*
X16938500Y-12670214D02*
X16909928Y-12655929D01*
X16895643Y-12641643D01*
X16881357Y-12613071D01*
X16881357Y-12527357D01*
X16895643Y-12498786D01*
X16909928Y-12484500D01*
X16938500Y-12470214D01*
X16981357Y-12470214D01*
X17009928Y-12484500D01*
X17024214Y-12498786D01*
X17038500Y-12527357D01*
X17038500Y-12613071D01*
X17024214Y-12641643D01*
X17009928Y-12655929D01*
X16981357Y-12670214D01*
X16938500Y-12670214D01*
X17209928Y-12670214D02*
X17181357Y-12655929D01*
X17167071Y-12627357D01*
X17167071Y-12370214D01*
X17438500Y-12655929D02*
X17409928Y-12670214D01*
X17352786Y-12670214D01*
X17324214Y-12655929D01*
X17309928Y-12627357D01*
X17309928Y-12513071D01*
X17324214Y-12484500D01*
X17352786Y-12470214D01*
X17409928Y-12470214D01*
X17438500Y-12484500D01*
X17452786Y-12513071D01*
X17452786Y-12541643D01*
X17309928Y-12570214D01*
X17567071Y-12655929D02*
X17595643Y-12670214D01*
X17652786Y-12670214D01*
X17681357Y-12655929D01*
X17695643Y-12627357D01*
X17695643Y-12613071D01*
X17681357Y-12584500D01*
X17652786Y-12570214D01*
X17609928Y-12570214D01*
X17581357Y-12555929D01*
X17567071Y-12527357D01*
X17567071Y-12513071D01*
X17581357Y-12484500D01*
X17609928Y-12470214D01*
X17652786Y-12470214D01*
X17681357Y-12484500D01*
X17795643Y-12784500D02*
X17809928Y-12770214D01*
X17838500Y-12727357D01*
X17852786Y-12698786D01*
X17867071Y-12655929D01*
X17881357Y-12584500D01*
X17881357Y-12527357D01*
X17867071Y-12455929D01*
X17852786Y-12413071D01*
X17838500Y-12384500D01*
X17809928Y-12341643D01*
X17795643Y-12327357D01*
X11023500Y-12930500D02*
G75*
G03*
X11023500Y-12930500I-25000J0D01*
G01*
X11367071Y-12766214D02*
X11395643Y-12766214D01*
X11424214Y-12780500D01*
X11438500Y-12794786D01*
X11452786Y-12823357D01*
X11467071Y-12880500D01*
X11467071Y-12951929D01*
X11452786Y-13009071D01*
X11438500Y-13037643D01*
X11424214Y-13051929D01*
X11395643Y-13066214D01*
X11367071Y-13066214D01*
X11338500Y-13051929D01*
X11324214Y-13037643D01*
X11309928Y-13009071D01*
X11295643Y-12951929D01*
X11295643Y-12880500D01*
X11309928Y-12823357D01*
X11324214Y-12794786D01*
X11338500Y-12780500D01*
X11367071Y-12766214D01*
X11595643Y-13037643D02*
X11609928Y-13051929D01*
X11595643Y-13066214D01*
X11581357Y-13051929D01*
X11595643Y-13037643D01*
X11595643Y-13066214D01*
X11881357Y-12766214D02*
X11738500Y-12766214D01*
X11724214Y-12909071D01*
X11738500Y-12894786D01*
X11767071Y-12880500D01*
X11838500Y-12880500D01*
X11867071Y-12894786D01*
X11881357Y-12909071D01*
X11895643Y-12937643D01*
X11895643Y-13009071D01*
X11881357Y-13037643D01*
X11867071Y-13051929D01*
X11838500Y-13066214D01*
X11767071Y-13066214D01*
X11738500Y-13051929D01*
X11724214Y-13037643D01*
X12081357Y-12766214D02*
X12109928Y-12766214D01*
X12138500Y-12780500D01*
X12152786Y-12794786D01*
X12167071Y-12823357D01*
X12181357Y-12880500D01*
X12181357Y-12951929D01*
X12167071Y-13009071D01*
X12152786Y-13037643D01*
X12138500Y-13051929D01*
X12109928Y-13066214D01*
X12081357Y-13066214D01*
X12052786Y-13051929D01*
X12038500Y-13037643D01*
X12024214Y-13009071D01*
X12009928Y-12951929D01*
X12009928Y-12880500D01*
X12024214Y-12823357D01*
X12038500Y-12794786D01*
X12052786Y-12780500D01*
X12081357Y-12766214D01*
X12309928Y-13066214D02*
X12309928Y-12866214D01*
X12309928Y-12894786D02*
X12324214Y-12880500D01*
X12352786Y-12866214D01*
X12395643Y-12866214D01*
X12424214Y-12880500D01*
X12438500Y-12909071D01*
X12438500Y-13066214D01*
X12438500Y-12909071D02*
X12452786Y-12880500D01*
X12481357Y-12866214D01*
X12524214Y-12866214D01*
X12552786Y-12880500D01*
X12567071Y-12909071D01*
X12567071Y-13066214D01*
X12709928Y-13066214D02*
X12709928Y-12866214D01*
X12709928Y-12894786D02*
X12724214Y-12880500D01*
X12752786Y-12866214D01*
X12795643Y-12866214D01*
X12824214Y-12880500D01*
X12838500Y-12909071D01*
X12838500Y-13066214D01*
X12838500Y-12909071D02*
X12852786Y-12880500D01*
X12881357Y-12866214D01*
X12924214Y-12866214D01*
X12952786Y-12880500D01*
X12967071Y-12909071D01*
X12967071Y-13066214D01*
X13552786Y-12751929D02*
X13295643Y-13137643D01*
X13938500Y-12766214D02*
X13967071Y-12766214D01*
X13995643Y-12780500D01*
X14009928Y-12794786D01*
X14024214Y-12823357D01*
X14038500Y-12880500D01*
X14038500Y-12951929D01*
X14024214Y-13009071D01*
X14009928Y-13037643D01*
X13995643Y-13051929D01*
X13967071Y-13066214D01*
X13938500Y-13066214D01*
X13909928Y-13051929D01*
X13895643Y-13037643D01*
X13881357Y-13009071D01*
X13867071Y-12951929D01*
X13867071Y-12880500D01*
X13881357Y-12823357D01*
X13895643Y-12794786D01*
X13909928Y-12780500D01*
X13938500Y-12766214D01*
X14167071Y-13037643D02*
X14181357Y-13051929D01*
X14167071Y-13066214D01*
X14152786Y-13051929D01*
X14167071Y-13037643D01*
X14167071Y-13066214D01*
X14367071Y-12766214D02*
X14395643Y-12766214D01*
X14424214Y-12780500D01*
X14438500Y-12794786D01*
X14452786Y-12823357D01*
X14467071Y-12880500D01*
X14467071Y-12951929D01*
X14452786Y-13009071D01*
X14438500Y-13037643D01*
X14424214Y-13051929D01*
X14395643Y-13066214D01*
X14367071Y-13066214D01*
X14338500Y-13051929D01*
X14324214Y-13037643D01*
X14309928Y-13009071D01*
X14295643Y-12951929D01*
X14295643Y-12880500D01*
X14309928Y-12823357D01*
X14324214Y-12794786D01*
X14338500Y-12780500D01*
X14367071Y-12766214D01*
X14581357Y-12794786D02*
X14595643Y-12780500D01*
X14624214Y-12766214D01*
X14695643Y-12766214D01*
X14724214Y-12780500D01*
X14738500Y-12794786D01*
X14752786Y-12823357D01*
X14752786Y-12851929D01*
X14738500Y-12894786D01*
X14567071Y-13066214D01*
X14752786Y-13066214D01*
X14938500Y-12766214D02*
X14967071Y-12766214D01*
X14995643Y-12780500D01*
X15009928Y-12794786D01*
X15024214Y-12823357D01*
X15038500Y-12880500D01*
X15038500Y-12951929D01*
X15024214Y-13009071D01*
X15009928Y-13037643D01*
X14995643Y-13051929D01*
X14967071Y-13066214D01*
X14938500Y-13066214D01*
X14909928Y-13051929D01*
X14895643Y-13037643D01*
X14881357Y-13009071D01*
X14867071Y-12951929D01*
X14867071Y-12880500D01*
X14881357Y-12823357D01*
X14895643Y-12794786D01*
X14909928Y-12780500D01*
X14938500Y-12766214D01*
X15152786Y-12766214D02*
X15152786Y-12823357D01*
X15267071Y-12766214D02*
X15267071Y-12823357D01*
X15709928Y-13180500D02*
X15695643Y-13166214D01*
X15667071Y-13123357D01*
X15652786Y-13094786D01*
X15638500Y-13051929D01*
X15624214Y-12980500D01*
X15624214Y-12923357D01*
X15638500Y-12851929D01*
X15652786Y-12809071D01*
X15667071Y-12780500D01*
X15695643Y-12737643D01*
X15709928Y-12723357D01*
X15795643Y-12766214D02*
X15981357Y-12766214D01*
X15881357Y-12880500D01*
X15924214Y-12880500D01*
X15952786Y-12894786D01*
X15967071Y-12909071D01*
X15981357Y-12937643D01*
X15981357Y-13009071D01*
X15967071Y-13037643D01*
X15952786Y-13051929D01*
X15924214Y-13066214D01*
X15838500Y-13066214D01*
X15809928Y-13051929D01*
X15795643Y-13037643D01*
X16095643Y-12794786D02*
X16109928Y-12780500D01*
X16138500Y-12766214D01*
X16209928Y-12766214D01*
X16238500Y-12780500D01*
X16252786Y-12794786D01*
X16267071Y-12823357D01*
X16267071Y-12851929D01*
X16252786Y-12894786D01*
X16081357Y-13066214D01*
X16267071Y-13066214D01*
X16624214Y-13066214D02*
X16624214Y-12766214D01*
X16752786Y-13066214D02*
X16752786Y-12909071D01*
X16738500Y-12880500D01*
X16709928Y-12866214D01*
X16667071Y-12866214D01*
X16638500Y-12880500D01*
X16624214Y-12894786D01*
X16938500Y-13066214D02*
X16909928Y-13051929D01*
X16895643Y-13037643D01*
X16881357Y-13009071D01*
X16881357Y-12923357D01*
X16895643Y-12894786D01*
X16909928Y-12880500D01*
X16938500Y-12866214D01*
X16981357Y-12866214D01*
X17009928Y-12880500D01*
X17024214Y-12894786D01*
X17038500Y-12923357D01*
X17038500Y-13009071D01*
X17024214Y-13037643D01*
X17009928Y-13051929D01*
X16981357Y-13066214D01*
X16938500Y-13066214D01*
X17209928Y-13066214D02*
X17181357Y-13051929D01*
X17167071Y-13023357D01*
X17167071Y-12766214D01*
X17438500Y-13051929D02*
X17409928Y-13066214D01*
X17352786Y-13066214D01*
X17324214Y-13051929D01*
X17309928Y-13023357D01*
X17309928Y-12909071D01*
X17324214Y-12880500D01*
X17352786Y-12866214D01*
X17409928Y-12866214D01*
X17438500Y-12880500D01*
X17452786Y-12909071D01*
X17452786Y-12937643D01*
X17309928Y-12966214D01*
X17567071Y-13051929D02*
X17595643Y-13066214D01*
X17652786Y-13066214D01*
X17681357Y-13051929D01*
X17695643Y-13023357D01*
X17695643Y-13009071D01*
X17681357Y-12980500D01*
X17652786Y-12966214D01*
X17609928Y-12966214D01*
X17581357Y-12951929D01*
X17567071Y-12923357D01*
X17567071Y-12909071D01*
X17581357Y-12880500D01*
X17609928Y-12866214D01*
X17652786Y-12866214D01*
X17681357Y-12880500D01*
X17795643Y-13180500D02*
X17809928Y-13166214D01*
X17838500Y-13123357D01*
X17852786Y-13094786D01*
X17867071Y-13051929D01*
X17881357Y-12980500D01*
X17881357Y-12923357D01*
X17867071Y-12851929D01*
X17852786Y-12809071D01*
X17838500Y-12780500D01*
X17809928Y-12737643D01*
X17795643Y-12723357D01*
X10976000Y-13279000D02*
X10976000Y-13374000D01*
X10928500Y-13326500D02*
X11023500Y-13326500D01*
X11367071Y-13162214D02*
X11395643Y-13162214D01*
X11424214Y-13176500D01*
X11438500Y-13190786D01*
X11452786Y-13219357D01*
X11467071Y-13276500D01*
X11467071Y-13347929D01*
X11452786Y-13405071D01*
X11438500Y-13433643D01*
X11424214Y-13447929D01*
X11395643Y-13462214D01*
X11367071Y-13462214D01*
X11338500Y-13447929D01*
X11324214Y-13433643D01*
X11309928Y-13405071D01*
X11295643Y-13347929D01*
X11295643Y-13276500D01*
X11309928Y-13219357D01*
X11324214Y-13190786D01*
X11338500Y-13176500D01*
X11367071Y-13162214D01*
X11595643Y-13433643D02*
X11609928Y-13447929D01*
X11595643Y-13462214D01*
X11581357Y-13447929D01*
X11595643Y-13433643D01*
X11595643Y-13462214D01*
X11752786Y-13462214D02*
X11809928Y-13462214D01*
X11838500Y-13447929D01*
X11852786Y-13433643D01*
X11881357Y-13390786D01*
X11895643Y-13333643D01*
X11895643Y-13219357D01*
X11881357Y-13190786D01*
X11867071Y-13176500D01*
X11838500Y-13162214D01*
X11781357Y-13162214D01*
X11752786Y-13176500D01*
X11738500Y-13190786D01*
X11724214Y-13219357D01*
X11724214Y-13290786D01*
X11738500Y-13319357D01*
X11752786Y-13333643D01*
X11781357Y-13347929D01*
X11838500Y-13347929D01*
X11867071Y-13333643D01*
X11881357Y-13319357D01*
X11895643Y-13290786D01*
X12167071Y-13162214D02*
X12024214Y-13162214D01*
X12009928Y-13305071D01*
X12024214Y-13290786D01*
X12052786Y-13276500D01*
X12124214Y-13276500D01*
X12152786Y-13290786D01*
X12167071Y-13305071D01*
X12181357Y-13333643D01*
X12181357Y-13405071D01*
X12167071Y-13433643D01*
X12152786Y-13447929D01*
X12124214Y-13462214D01*
X12052786Y-13462214D01*
X12024214Y-13447929D01*
X12009928Y-13433643D01*
X12309928Y-13462214D02*
X12309928Y-13262214D01*
X12309928Y-13290786D02*
X12324214Y-13276500D01*
X12352786Y-13262214D01*
X12395643Y-13262214D01*
X12424214Y-13276500D01*
X12438500Y-13305071D01*
X12438500Y-13462214D01*
X12438500Y-13305071D02*
X12452786Y-13276500D01*
X12481357Y-13262214D01*
X12524214Y-13262214D01*
X12552786Y-13276500D01*
X12567071Y-13305071D01*
X12567071Y-13462214D01*
X12709928Y-13462214D02*
X12709928Y-13262214D01*
X12709928Y-13290786D02*
X12724214Y-13276500D01*
X12752786Y-13262214D01*
X12795643Y-13262214D01*
X12824214Y-13276500D01*
X12838500Y-13305071D01*
X12838500Y-13462214D01*
X12838500Y-13305071D02*
X12852786Y-13276500D01*
X12881357Y-13262214D01*
X12924214Y-13262214D01*
X12952786Y-13276500D01*
X12967071Y-13305071D01*
X12967071Y-13462214D01*
X13552786Y-13147929D02*
X13295643Y-13533643D01*
X13938500Y-13162214D02*
X13967071Y-13162214D01*
X13995643Y-13176500D01*
X14009928Y-13190786D01*
X14024214Y-13219357D01*
X14038500Y-13276500D01*
X14038500Y-13347929D01*
X14024214Y-13405071D01*
X14009928Y-13433643D01*
X13995643Y-13447929D01*
X13967071Y-13462214D01*
X13938500Y-13462214D01*
X13909928Y-13447929D01*
X13895643Y-13433643D01*
X13881357Y-13405071D01*
X13867071Y-13347929D01*
X13867071Y-13276500D01*
X13881357Y-13219357D01*
X13895643Y-13190786D01*
X13909928Y-13176500D01*
X13938500Y-13162214D01*
X14167071Y-13433643D02*
X14181357Y-13447929D01*
X14167071Y-13462214D01*
X14152786Y-13447929D01*
X14167071Y-13433643D01*
X14167071Y-13462214D01*
X14367071Y-13162214D02*
X14395643Y-13162214D01*
X14424214Y-13176500D01*
X14438500Y-13190786D01*
X14452786Y-13219357D01*
X14467071Y-13276500D01*
X14467071Y-13347929D01*
X14452786Y-13405071D01*
X14438500Y-13433643D01*
X14424214Y-13447929D01*
X14395643Y-13462214D01*
X14367071Y-13462214D01*
X14338500Y-13447929D01*
X14324214Y-13433643D01*
X14309928Y-13405071D01*
X14295643Y-13347929D01*
X14295643Y-13276500D01*
X14309928Y-13219357D01*
X14324214Y-13190786D01*
X14338500Y-13176500D01*
X14367071Y-13162214D01*
X14567071Y-13162214D02*
X14752786Y-13162214D01*
X14652786Y-13276500D01*
X14695643Y-13276500D01*
X14724214Y-13290786D01*
X14738500Y-13305071D01*
X14752786Y-13333643D01*
X14752786Y-13405071D01*
X14738500Y-13433643D01*
X14724214Y-13447929D01*
X14695643Y-13462214D01*
X14609928Y-13462214D01*
X14581357Y-13447929D01*
X14567071Y-13433643D01*
X14852786Y-13162214D02*
X15052786Y-13162214D01*
X14924214Y-13462214D01*
X15152786Y-13162214D02*
X15152786Y-13219357D01*
X15267071Y-13162214D02*
X15267071Y-13219357D01*
X15709928Y-13576500D02*
X15695643Y-13562214D01*
X15667071Y-13519357D01*
X15652786Y-13490786D01*
X15638500Y-13447929D01*
X15624214Y-13376500D01*
X15624214Y-13319357D01*
X15638500Y-13247929D01*
X15652786Y-13205071D01*
X15667071Y-13176500D01*
X15695643Y-13133643D01*
X15709928Y-13119357D01*
X15795643Y-13162214D02*
X15995643Y-13162214D01*
X15867071Y-13462214D01*
X16338500Y-13462214D02*
X16338500Y-13162214D01*
X16467071Y-13462214D02*
X16467071Y-13305071D01*
X16452786Y-13276500D01*
X16424214Y-13262214D01*
X16381357Y-13262214D01*
X16352786Y-13276500D01*
X16338500Y-13290786D01*
X16652786Y-13462214D02*
X16624214Y-13447929D01*
X16609928Y-13433643D01*
X16595643Y-13405071D01*
X16595643Y-13319357D01*
X16609928Y-13290786D01*
X16624214Y-13276500D01*
X16652786Y-13262214D01*
X16695643Y-13262214D01*
X16724214Y-13276500D01*
X16738500Y-13290786D01*
X16752786Y-13319357D01*
X16752786Y-13405071D01*
X16738500Y-13433643D01*
X16724214Y-13447929D01*
X16695643Y-13462214D01*
X16652786Y-13462214D01*
X16924214Y-13462214D02*
X16895643Y-13447929D01*
X16881357Y-13419357D01*
X16881357Y-13162214D01*
X17152786Y-13447929D02*
X17124214Y-13462214D01*
X17067071Y-13462214D01*
X17038500Y-13447929D01*
X17024214Y-13419357D01*
X17024214Y-13305071D01*
X17038500Y-13276500D01*
X17067071Y-13262214D01*
X17124214Y-13262214D01*
X17152786Y-13276500D01*
X17167071Y-13305071D01*
X17167071Y-13333643D01*
X17024214Y-13362214D01*
X17281357Y-13447929D02*
X17309928Y-13462214D01*
X17367071Y-13462214D01*
X17395643Y-13447929D01*
X17409928Y-13419357D01*
X17409928Y-13405071D01*
X17395643Y-13376500D01*
X17367071Y-13362214D01*
X17324214Y-13362214D01*
X17295643Y-13347929D01*
X17281357Y-13319357D01*
X17281357Y-13305071D01*
X17295643Y-13276500D01*
X17324214Y-13262214D01*
X17367071Y-13262214D01*
X17395643Y-13276500D01*
X17509928Y-13576500D02*
X17524214Y-13562214D01*
X17552786Y-13519357D01*
X17567071Y-13490786D01*
X17581357Y-13447929D01*
X17595643Y-13376500D01*
X17595643Y-13319357D01*
X17581357Y-13247929D01*
X17567071Y-13205071D01*
X17552786Y-13176500D01*
X17524214Y-13133643D01*
X17509928Y-13119357D01*
X11008856Y-13757856D02*
X11008856Y-13687144D01*
X10938144Y-13687144D01*
X10938144Y-13757856D01*
X11008856Y-13757856D01*
X11467071Y-13858214D02*
X11295643Y-13858214D01*
X11381357Y-13858214D02*
X11381357Y-13558214D01*
X11352786Y-13601071D01*
X11324214Y-13629643D01*
X11295643Y-13643929D01*
X11595643Y-13829643D02*
X11609928Y-13843929D01*
X11595643Y-13858214D01*
X11581357Y-13843929D01*
X11595643Y-13829643D01*
X11595643Y-13858214D01*
X11795643Y-13558214D02*
X11824214Y-13558214D01*
X11852786Y-13572500D01*
X11867071Y-13586786D01*
X11881357Y-13615357D01*
X11895643Y-13672500D01*
X11895643Y-13743929D01*
X11881357Y-13801071D01*
X11867071Y-13829643D01*
X11852786Y-13843929D01*
X11824214Y-13858214D01*
X11795643Y-13858214D01*
X11767071Y-13843929D01*
X11752786Y-13829643D01*
X11738500Y-13801071D01*
X11724214Y-13743929D01*
X11724214Y-13672500D01*
X11738500Y-13615357D01*
X11752786Y-13586786D01*
X11767071Y-13572500D01*
X11795643Y-13558214D01*
X12081357Y-13558214D02*
X12109928Y-13558214D01*
X12138500Y-13572500D01*
X12152786Y-13586786D01*
X12167071Y-13615357D01*
X12181357Y-13672500D01*
X12181357Y-13743929D01*
X12167071Y-13801071D01*
X12152786Y-13829643D01*
X12138500Y-13843929D01*
X12109928Y-13858214D01*
X12081357Y-13858214D01*
X12052786Y-13843929D01*
X12038500Y-13829643D01*
X12024214Y-13801071D01*
X12009928Y-13743929D01*
X12009928Y-13672500D01*
X12024214Y-13615357D01*
X12038500Y-13586786D01*
X12052786Y-13572500D01*
X12081357Y-13558214D01*
X12309928Y-13858214D02*
X12309928Y-13658214D01*
X12309928Y-13686786D02*
X12324214Y-13672500D01*
X12352786Y-13658214D01*
X12395643Y-13658214D01*
X12424214Y-13672500D01*
X12438500Y-13701071D01*
X12438500Y-13858214D01*
X12438500Y-13701071D02*
X12452786Y-13672500D01*
X12481357Y-13658214D01*
X12524214Y-13658214D01*
X12552786Y-13672500D01*
X12567071Y-13701071D01*
X12567071Y-13858214D01*
X12709928Y-13858214D02*
X12709928Y-13658214D01*
X12709928Y-13686786D02*
X12724214Y-13672500D01*
X12752786Y-13658214D01*
X12795643Y-13658214D01*
X12824214Y-13672500D01*
X12838500Y-13701071D01*
X12838500Y-13858214D01*
X12838500Y-13701071D02*
X12852786Y-13672500D01*
X12881357Y-13658214D01*
X12924214Y-13658214D01*
X12952786Y-13672500D01*
X12967071Y-13701071D01*
X12967071Y-13858214D01*
X13552786Y-13543929D02*
X13295643Y-13929643D01*
X13938500Y-13558214D02*
X13967071Y-13558214D01*
X13995643Y-13572500D01*
X14009928Y-13586786D01*
X14024214Y-13615357D01*
X14038500Y-13672500D01*
X14038500Y-13743929D01*
X14024214Y-13801071D01*
X14009928Y-13829643D01*
X13995643Y-13843929D01*
X13967071Y-13858214D01*
X13938500Y-13858214D01*
X13909928Y-13843929D01*
X13895643Y-13829643D01*
X13881357Y-13801071D01*
X13867071Y-13743929D01*
X13867071Y-13672500D01*
X13881357Y-13615357D01*
X13895643Y-13586786D01*
X13909928Y-13572500D01*
X13938500Y-13558214D01*
X14167071Y-13829643D02*
X14181357Y-13843929D01*
X14167071Y-13858214D01*
X14152786Y-13843929D01*
X14167071Y-13829643D01*
X14167071Y-13858214D01*
X14367071Y-13558214D02*
X14395643Y-13558214D01*
X14424214Y-13572500D01*
X14438500Y-13586786D01*
X14452786Y-13615357D01*
X14467071Y-13672500D01*
X14467071Y-13743929D01*
X14452786Y-13801071D01*
X14438500Y-13829643D01*
X14424214Y-13843929D01*
X14395643Y-13858214D01*
X14367071Y-13858214D01*
X14338500Y-13843929D01*
X14324214Y-13829643D01*
X14309928Y-13801071D01*
X14295643Y-13743929D01*
X14295643Y-13672500D01*
X14309928Y-13615357D01*
X14324214Y-13586786D01*
X14338500Y-13572500D01*
X14367071Y-13558214D01*
X14567071Y-13558214D02*
X14752786Y-13558214D01*
X14652786Y-13672500D01*
X14695643Y-13672500D01*
X14724214Y-13686786D01*
X14738500Y-13701071D01*
X14752786Y-13729643D01*
X14752786Y-13801071D01*
X14738500Y-13829643D01*
X14724214Y-13843929D01*
X14695643Y-13858214D01*
X14609928Y-13858214D01*
X14581357Y-13843929D01*
X14567071Y-13829643D01*
X14895643Y-13858214D02*
X14952786Y-13858214D01*
X14981357Y-13843929D01*
X14995643Y-13829643D01*
X15024214Y-13786786D01*
X15038500Y-13729643D01*
X15038500Y-13615357D01*
X15024214Y-13586786D01*
X15009928Y-13572500D01*
X14981357Y-13558214D01*
X14924214Y-13558214D01*
X14895643Y-13572500D01*
X14881357Y-13586786D01*
X14867071Y-13615357D01*
X14867071Y-13686786D01*
X14881357Y-13715357D01*
X14895643Y-13729643D01*
X14924214Y-13743929D01*
X14981357Y-13743929D01*
X15009928Y-13729643D01*
X15024214Y-13715357D01*
X15038500Y-13686786D01*
X15152786Y-13558214D02*
X15152786Y-13615357D01*
X15267071Y-13558214D02*
X15267071Y-13615357D01*
X15709928Y-13972500D02*
X15695643Y-13958214D01*
X15667071Y-13915357D01*
X15652786Y-13886786D01*
X15638500Y-13843929D01*
X15624214Y-13772500D01*
X15624214Y-13715357D01*
X15638500Y-13643929D01*
X15652786Y-13601071D01*
X15667071Y-13572500D01*
X15695643Y-13529643D01*
X15709928Y-13515357D01*
X15967071Y-13558214D02*
X15824214Y-13558214D01*
X15809928Y-13701071D01*
X15824214Y-13686786D01*
X15852786Y-13672500D01*
X15924214Y-13672500D01*
X15952786Y-13686786D01*
X15967071Y-13701071D01*
X15981357Y-13729643D01*
X15981357Y-13801071D01*
X15967071Y-13829643D01*
X15952786Y-13843929D01*
X15924214Y-13858214D01*
X15852786Y-13858214D01*
X15824214Y-13843929D01*
X15809928Y-13829643D01*
X16338500Y-13858214D02*
X16338500Y-13558214D01*
X16467071Y-13858214D02*
X16467071Y-13701071D01*
X16452786Y-13672500D01*
X16424214Y-13658214D01*
X16381357Y-13658214D01*
X16352786Y-13672500D01*
X16338500Y-13686786D01*
X16652786Y-13858214D02*
X16624214Y-13843929D01*
X16609928Y-13829643D01*
X16595643Y-13801071D01*
X16595643Y-13715357D01*
X16609928Y-13686786D01*
X16624214Y-13672500D01*
X16652786Y-13658214D01*
X16695643Y-13658214D01*
X16724214Y-13672500D01*
X16738500Y-13686786D01*
X16752786Y-13715357D01*
X16752786Y-13801071D01*
X16738500Y-13829643D01*
X16724214Y-13843929D01*
X16695643Y-13858214D01*
X16652786Y-13858214D01*
X16924214Y-13858214D02*
X16895643Y-13843929D01*
X16881357Y-13815357D01*
X16881357Y-13558214D01*
X17152786Y-13843929D02*
X17124214Y-13858214D01*
X17067071Y-13858214D01*
X17038500Y-13843929D01*
X17024214Y-13815357D01*
X17024214Y-13701071D01*
X17038500Y-13672500D01*
X17067071Y-13658214D01*
X17124214Y-13658214D01*
X17152786Y-13672500D01*
X17167071Y-13701071D01*
X17167071Y-13729643D01*
X17024214Y-13758214D01*
X17281357Y-13843929D02*
X17309928Y-13858214D01*
X17367071Y-13858214D01*
X17395643Y-13843929D01*
X17409928Y-13815357D01*
X17409928Y-13801071D01*
X17395643Y-13772500D01*
X17367071Y-13758214D01*
X17324214Y-13758214D01*
X17295643Y-13743929D01*
X17281357Y-13715357D01*
X17281357Y-13701071D01*
X17295643Y-13672500D01*
X17324214Y-13658214D01*
X17367071Y-13658214D01*
X17395643Y-13672500D01*
X17509928Y-13972500D02*
X17524214Y-13958214D01*
X17552786Y-13915357D01*
X17567071Y-13886786D01*
X17581357Y-13843929D01*
X17595643Y-13772500D01*
X17595643Y-13715357D01*
X17581357Y-13643929D01*
X17567071Y-13601071D01*
X17552786Y-13572500D01*
X17524214Y-13529643D01*
X17509928Y-13515357D01*
X10963500Y-14178500D02*
X11023500Y-14118500D01*
X10963500Y-14058500D01*
X10903500Y-14118500D01*
X10963500Y-14178500D01*
X11467071Y-14254214D02*
X11295643Y-14254214D01*
X11381357Y-14254214D02*
X11381357Y-13954214D01*
X11352786Y-13997071D01*
X11324214Y-14025643D01*
X11295643Y-14039929D01*
X11595643Y-14225643D02*
X11609928Y-14239929D01*
X11595643Y-14254214D01*
X11581357Y-14239929D01*
X11595643Y-14225643D01*
X11595643Y-14254214D01*
X11724214Y-13982786D02*
X11738500Y-13968500D01*
X11767071Y-13954214D01*
X11838500Y-13954214D01*
X11867071Y-13968500D01*
X11881357Y-13982786D01*
X11895643Y-14011357D01*
X11895643Y-14039929D01*
X11881357Y-14082786D01*
X11709928Y-14254214D01*
X11895643Y-14254214D01*
X12081357Y-13954214D02*
X12109928Y-13954214D01*
X12138500Y-13968500D01*
X12152786Y-13982786D01*
X12167071Y-14011357D01*
X12181357Y-14068500D01*
X12181357Y-14139929D01*
X12167071Y-14197071D01*
X12152786Y-14225643D01*
X12138500Y-14239929D01*
X12109928Y-14254214D01*
X12081357Y-14254214D01*
X12052786Y-14239929D01*
X12038500Y-14225643D01*
X12024214Y-14197071D01*
X12009928Y-14139929D01*
X12009928Y-14068500D01*
X12024214Y-14011357D01*
X12038500Y-13982786D01*
X12052786Y-13968500D01*
X12081357Y-13954214D01*
X12309928Y-14254214D02*
X12309928Y-14054214D01*
X12309928Y-14082786D02*
X12324214Y-14068500D01*
X12352786Y-14054214D01*
X12395643Y-14054214D01*
X12424214Y-14068500D01*
X12438500Y-14097071D01*
X12438500Y-14254214D01*
X12438500Y-14097071D02*
X12452786Y-14068500D01*
X12481357Y-14054214D01*
X12524214Y-14054214D01*
X12552786Y-14068500D01*
X12567071Y-14097071D01*
X12567071Y-14254214D01*
X12709928Y-14254214D02*
X12709928Y-14054214D01*
X12709928Y-14082786D02*
X12724214Y-14068500D01*
X12752786Y-14054214D01*
X12795643Y-14054214D01*
X12824214Y-14068500D01*
X12838500Y-14097071D01*
X12838500Y-14254214D01*
X12838500Y-14097071D02*
X12852786Y-14068500D01*
X12881357Y-14054214D01*
X12924214Y-14054214D01*
X12952786Y-14068500D01*
X12967071Y-14097071D01*
X12967071Y-14254214D01*
X13552786Y-13939929D02*
X13295643Y-14325643D01*
X13938500Y-13954214D02*
X13967071Y-13954214D01*
X13995643Y-13968500D01*
X14009928Y-13982786D01*
X14024214Y-14011357D01*
X14038500Y-14068500D01*
X14038500Y-14139929D01*
X14024214Y-14197071D01*
X14009928Y-14225643D01*
X13995643Y-14239929D01*
X13967071Y-14254214D01*
X13938500Y-14254214D01*
X13909928Y-14239929D01*
X13895643Y-14225643D01*
X13881357Y-14197071D01*
X13867071Y-14139929D01*
X13867071Y-14068500D01*
X13881357Y-14011357D01*
X13895643Y-13982786D01*
X13909928Y-13968500D01*
X13938500Y-13954214D01*
X14167071Y-14225643D02*
X14181357Y-14239929D01*
X14167071Y-14254214D01*
X14152786Y-14239929D01*
X14167071Y-14225643D01*
X14167071Y-14254214D01*
X14367071Y-13954214D02*
X14395643Y-13954214D01*
X14424214Y-13968500D01*
X14438500Y-13982786D01*
X14452786Y-14011357D01*
X14467071Y-14068500D01*
X14467071Y-14139929D01*
X14452786Y-14197071D01*
X14438500Y-14225643D01*
X14424214Y-14239929D01*
X14395643Y-14254214D01*
X14367071Y-14254214D01*
X14338500Y-14239929D01*
X14324214Y-14225643D01*
X14309928Y-14197071D01*
X14295643Y-14139929D01*
X14295643Y-14068500D01*
X14309928Y-14011357D01*
X14324214Y-13982786D01*
X14338500Y-13968500D01*
X14367071Y-13954214D01*
X14724214Y-14054214D02*
X14724214Y-14254214D01*
X14652786Y-13939929D02*
X14581357Y-14154214D01*
X14767071Y-14154214D01*
X14852786Y-13954214D02*
X15052786Y-13954214D01*
X14924214Y-14254214D01*
X15152786Y-13954214D02*
X15152786Y-14011357D01*
X15267071Y-13954214D02*
X15267071Y-14011357D01*
X15709928Y-14368500D02*
X15695643Y-14354214D01*
X15667071Y-14311357D01*
X15652786Y-14282786D01*
X15638500Y-14239929D01*
X15624214Y-14168500D01*
X15624214Y-14111357D01*
X15638500Y-14039929D01*
X15652786Y-13997071D01*
X15667071Y-13968500D01*
X15695643Y-13925643D01*
X15709928Y-13911357D01*
X15981357Y-14254214D02*
X15809928Y-14254214D01*
X15895643Y-14254214D02*
X15895643Y-13954214D01*
X15867071Y-13997071D01*
X15838500Y-14025643D01*
X15809928Y-14039929D01*
X16338500Y-14254214D02*
X16338500Y-13954214D01*
X16467071Y-14254214D02*
X16467071Y-14097071D01*
X16452786Y-14068500D01*
X16424214Y-14054214D01*
X16381357Y-14054214D01*
X16352786Y-14068500D01*
X16338500Y-14082786D01*
X16652786Y-14254214D02*
X16624214Y-14239929D01*
X16609928Y-14225643D01*
X16595643Y-14197071D01*
X16595643Y-14111357D01*
X16609928Y-14082786D01*
X16624214Y-14068500D01*
X16652786Y-14054214D01*
X16695643Y-14054214D01*
X16724214Y-14068500D01*
X16738500Y-14082786D01*
X16752786Y-14111357D01*
X16752786Y-14197071D01*
X16738500Y-14225643D01*
X16724214Y-14239929D01*
X16695643Y-14254214D01*
X16652786Y-14254214D01*
X16924214Y-14254214D02*
X16895643Y-14239929D01*
X16881357Y-14211357D01*
X16881357Y-13954214D01*
X17152786Y-14239929D02*
X17124214Y-14254214D01*
X17067071Y-14254214D01*
X17038500Y-14239929D01*
X17024214Y-14211357D01*
X17024214Y-14097071D01*
X17038500Y-14068500D01*
X17067071Y-14054214D01*
X17124214Y-14054214D01*
X17152786Y-14068500D01*
X17167071Y-14097071D01*
X17167071Y-14125643D01*
X17024214Y-14154214D01*
X17267071Y-14368500D02*
X17281357Y-14354214D01*
X17309928Y-14311357D01*
X17324214Y-14282786D01*
X17338500Y-14239929D01*
X17352786Y-14168500D01*
X17352786Y-14111357D01*
X17338500Y-14039929D01*
X17324214Y-13997071D01*
X17309928Y-13968500D01*
X17281357Y-13925643D01*
X17267071Y-13911357D01*
X10853500Y-14429500D02*
X11023500Y-14599500D01*
X11023500Y-14429500D02*
X10853500Y-14599500D01*
X11023500Y-14514500D02*
G75*
G03*
X11023500Y-14514500I-85000J0D01*
G01*
X11467071Y-14650214D02*
X11295643Y-14650214D01*
X11381357Y-14650214D02*
X11381357Y-14350214D01*
X11352786Y-14393071D01*
X11324214Y-14421643D01*
X11295643Y-14435929D01*
X11595643Y-14621643D02*
X11609928Y-14635929D01*
X11595643Y-14650214D01*
X11581357Y-14635929D01*
X11595643Y-14621643D01*
X11595643Y-14650214D01*
X11709928Y-14350214D02*
X11909928Y-14350214D01*
X11781357Y-14650214D01*
X12081357Y-14350214D02*
X12109928Y-14350214D01*
X12138500Y-14364500D01*
X12152786Y-14378786D01*
X12167071Y-14407357D01*
X12181357Y-14464500D01*
X12181357Y-14535929D01*
X12167071Y-14593071D01*
X12152786Y-14621643D01*
X12138500Y-14635929D01*
X12109928Y-14650214D01*
X12081357Y-14650214D01*
X12052786Y-14635929D01*
X12038500Y-14621643D01*
X12024214Y-14593071D01*
X12009928Y-14535929D01*
X12009928Y-14464500D01*
X12024214Y-14407357D01*
X12038500Y-14378786D01*
X12052786Y-14364500D01*
X12081357Y-14350214D01*
X12309928Y-14650214D02*
X12309928Y-14450214D01*
X12309928Y-14478786D02*
X12324214Y-14464500D01*
X12352786Y-14450214D01*
X12395643Y-14450214D01*
X12424214Y-14464500D01*
X12438500Y-14493071D01*
X12438500Y-14650214D01*
X12438500Y-14493071D02*
X12452786Y-14464500D01*
X12481357Y-14450214D01*
X12524214Y-14450214D01*
X12552786Y-14464500D01*
X12567071Y-14493071D01*
X12567071Y-14650214D01*
X12709928Y-14650214D02*
X12709928Y-14450214D01*
X12709928Y-14478786D02*
X12724214Y-14464500D01*
X12752786Y-14450214D01*
X12795643Y-14450214D01*
X12824214Y-14464500D01*
X12838500Y-14493071D01*
X12838500Y-14650214D01*
X12838500Y-14493071D02*
X12852786Y-14464500D01*
X12881357Y-14450214D01*
X12924214Y-14450214D01*
X12952786Y-14464500D01*
X12967071Y-14493071D01*
X12967071Y-14650214D01*
X13552786Y-14335929D02*
X13295643Y-14721643D01*
X13938500Y-14350214D02*
X13967071Y-14350214D01*
X13995643Y-14364500D01*
X14009928Y-14378786D01*
X14024214Y-14407357D01*
X14038500Y-14464500D01*
X14038500Y-14535929D01*
X14024214Y-14593071D01*
X14009928Y-14621643D01*
X13995643Y-14635929D01*
X13967071Y-14650214D01*
X13938500Y-14650214D01*
X13909928Y-14635929D01*
X13895643Y-14621643D01*
X13881357Y-14593071D01*
X13867071Y-14535929D01*
X13867071Y-14464500D01*
X13881357Y-14407357D01*
X13895643Y-14378786D01*
X13909928Y-14364500D01*
X13938500Y-14350214D01*
X14167071Y-14621643D02*
X14181357Y-14635929D01*
X14167071Y-14650214D01*
X14152786Y-14635929D01*
X14167071Y-14621643D01*
X14167071Y-14650214D01*
X14367071Y-14350214D02*
X14395643Y-14350214D01*
X14424214Y-14364500D01*
X14438500Y-14378786D01*
X14452786Y-14407357D01*
X14467071Y-14464500D01*
X14467071Y-14535929D01*
X14452786Y-14593071D01*
X14438500Y-14621643D01*
X14424214Y-14635929D01*
X14395643Y-14650214D01*
X14367071Y-14650214D01*
X14338500Y-14635929D01*
X14324214Y-14621643D01*
X14309928Y-14593071D01*
X14295643Y-14535929D01*
X14295643Y-14464500D01*
X14309928Y-14407357D01*
X14324214Y-14378786D01*
X14338500Y-14364500D01*
X14367071Y-14350214D01*
X14724214Y-14350214D02*
X14667071Y-14350214D01*
X14638500Y-14364500D01*
X14624214Y-14378786D01*
X14595643Y-14421643D01*
X14581357Y-14478786D01*
X14581357Y-14593071D01*
X14595643Y-14621643D01*
X14609928Y-14635929D01*
X14638500Y-14650214D01*
X14695643Y-14650214D01*
X14724214Y-14635929D01*
X14738500Y-14621643D01*
X14752786Y-14593071D01*
X14752786Y-14521643D01*
X14738500Y-14493071D01*
X14724214Y-14478786D01*
X14695643Y-14464500D01*
X14638500Y-14464500D01*
X14609928Y-14478786D01*
X14595643Y-14493071D01*
X14581357Y-14521643D01*
X14852786Y-14350214D02*
X15052786Y-14350214D01*
X14924214Y-14650214D01*
X15152786Y-14350214D02*
X15152786Y-14407357D01*
X15267071Y-14350214D02*
X15267071Y-14407357D01*
X15709928Y-14764500D02*
X15695643Y-14750214D01*
X15667071Y-14707357D01*
X15652786Y-14678786D01*
X15638500Y-14635929D01*
X15624214Y-14564500D01*
X15624214Y-14507357D01*
X15638500Y-14435929D01*
X15652786Y-14393071D01*
X15667071Y-14364500D01*
X15695643Y-14321643D01*
X15709928Y-14307357D01*
X15952786Y-14450214D02*
X15952786Y-14650214D01*
X15881357Y-14335929D02*
X15809928Y-14550214D01*
X15995643Y-14550214D01*
X16338500Y-14650214D02*
X16338500Y-14350214D01*
X16467071Y-14650214D02*
X16467071Y-14493071D01*
X16452786Y-14464500D01*
X16424214Y-14450214D01*
X16381357Y-14450214D01*
X16352786Y-14464500D01*
X16338500Y-14478786D01*
X16652786Y-14650214D02*
X16624214Y-14635929D01*
X16609928Y-14621643D01*
X16595643Y-14593071D01*
X16595643Y-14507357D01*
X16609928Y-14478786D01*
X16624214Y-14464500D01*
X16652786Y-14450214D01*
X16695643Y-14450214D01*
X16724214Y-14464500D01*
X16738500Y-14478786D01*
X16752786Y-14507357D01*
X16752786Y-14593071D01*
X16738500Y-14621643D01*
X16724214Y-14635929D01*
X16695643Y-14650214D01*
X16652786Y-14650214D01*
X16924214Y-14650214D02*
X16895643Y-14635929D01*
X16881357Y-14607357D01*
X16881357Y-14350214D01*
X17152786Y-14635929D02*
X17124214Y-14650214D01*
X17067071Y-14650214D01*
X17038500Y-14635929D01*
X17024214Y-14607357D01*
X17024214Y-14493071D01*
X17038500Y-14464500D01*
X17067071Y-14450214D01*
X17124214Y-14450214D01*
X17152786Y-14464500D01*
X17167071Y-14493071D01*
X17167071Y-14521643D01*
X17024214Y-14550214D01*
X17281357Y-14635929D02*
X17309928Y-14650214D01*
X17367071Y-14650214D01*
X17395643Y-14635929D01*
X17409928Y-14607357D01*
X17409928Y-14593071D01*
X17395643Y-14564500D01*
X17367071Y-14550214D01*
X17324214Y-14550214D01*
X17295643Y-14535929D01*
X17281357Y-14507357D01*
X17281357Y-14493071D01*
X17295643Y-14464500D01*
X17324214Y-14450214D01*
X17367071Y-14450214D01*
X17395643Y-14464500D01*
X17509928Y-14764500D02*
X17524214Y-14750214D01*
X17552786Y-14707357D01*
X17567071Y-14678786D01*
X17581357Y-14635929D01*
X17595643Y-14564500D01*
X17595643Y-14507357D01*
X17581357Y-14435929D01*
X17567071Y-14393071D01*
X17552786Y-14364500D01*
X17524214Y-14321643D01*
X17509928Y-14307357D01*
X10753500Y-14775500D02*
X11023500Y-15045500D01*
X11023500Y-14775500D02*
X10753500Y-15045500D01*
X10888500Y-14775500D02*
X10888500Y-15045500D01*
X10753500Y-14910500D02*
X11023500Y-14910500D01*
X11295643Y-14774786D02*
X11309928Y-14760500D01*
X11338500Y-14746214D01*
X11409928Y-14746214D01*
X11438500Y-14760500D01*
X11452786Y-14774786D01*
X11467071Y-14803357D01*
X11467071Y-14831929D01*
X11452786Y-14874786D01*
X11281357Y-15046214D01*
X11467071Y-15046214D01*
X11595643Y-15017643D02*
X11609928Y-15031929D01*
X11595643Y-15046214D01*
X11581357Y-15031929D01*
X11595643Y-15017643D01*
X11595643Y-15046214D01*
X11709928Y-14746214D02*
X11909928Y-14746214D01*
X11781357Y-15046214D01*
X12081357Y-14746214D02*
X12109928Y-14746214D01*
X12138500Y-14760500D01*
X12152786Y-14774786D01*
X12167071Y-14803357D01*
X12181357Y-14860500D01*
X12181357Y-14931929D01*
X12167071Y-14989071D01*
X12152786Y-15017643D01*
X12138500Y-15031929D01*
X12109928Y-15046214D01*
X12081357Y-15046214D01*
X12052786Y-15031929D01*
X12038500Y-15017643D01*
X12024214Y-14989071D01*
X12009928Y-14931929D01*
X12009928Y-14860500D01*
X12024214Y-14803357D01*
X12038500Y-14774786D01*
X12052786Y-14760500D01*
X12081357Y-14746214D01*
X12309928Y-15046214D02*
X12309928Y-14846214D01*
X12309928Y-14874786D02*
X12324214Y-14860500D01*
X12352786Y-14846214D01*
X12395643Y-14846214D01*
X12424214Y-14860500D01*
X12438500Y-14889071D01*
X12438500Y-15046214D01*
X12438500Y-14889071D02*
X12452786Y-14860500D01*
X12481357Y-14846214D01*
X12524214Y-14846214D01*
X12552786Y-14860500D01*
X12567071Y-14889071D01*
X12567071Y-15046214D01*
X12709928Y-15046214D02*
X12709928Y-14846214D01*
X12709928Y-14874786D02*
X12724214Y-14860500D01*
X12752786Y-14846214D01*
X12795643Y-14846214D01*
X12824214Y-14860500D01*
X12838500Y-14889071D01*
X12838500Y-15046214D01*
X12838500Y-14889071D02*
X12852786Y-14860500D01*
X12881357Y-14846214D01*
X12924214Y-14846214D01*
X12952786Y-14860500D01*
X12967071Y-14889071D01*
X12967071Y-15046214D01*
X13552786Y-14731929D02*
X13295643Y-15117643D01*
X13938500Y-14746214D02*
X13967071Y-14746214D01*
X13995643Y-14760500D01*
X14009928Y-14774786D01*
X14024214Y-14803357D01*
X14038500Y-14860500D01*
X14038500Y-14931929D01*
X14024214Y-14989071D01*
X14009928Y-15017643D01*
X13995643Y-15031929D01*
X13967071Y-15046214D01*
X13938500Y-15046214D01*
X13909928Y-15031929D01*
X13895643Y-15017643D01*
X13881357Y-14989071D01*
X13867071Y-14931929D01*
X13867071Y-14860500D01*
X13881357Y-14803357D01*
X13895643Y-14774786D01*
X13909928Y-14760500D01*
X13938500Y-14746214D01*
X14167071Y-15017643D02*
X14181357Y-15031929D01*
X14167071Y-15046214D01*
X14152786Y-15031929D01*
X14167071Y-15017643D01*
X14167071Y-15046214D01*
X14467071Y-15046214D02*
X14295643Y-15046214D01*
X14381357Y-15046214D02*
X14381357Y-14746214D01*
X14352786Y-14789071D01*
X14324214Y-14817643D01*
X14295643Y-14831929D01*
X14652786Y-14746214D02*
X14681357Y-14746214D01*
X14709928Y-14760500D01*
X14724214Y-14774786D01*
X14738500Y-14803357D01*
X14752786Y-14860500D01*
X14752786Y-14931929D01*
X14738500Y-14989071D01*
X14724214Y-15017643D01*
X14709928Y-15031929D01*
X14681357Y-15046214D01*
X14652786Y-15046214D01*
X14624214Y-15031929D01*
X14609928Y-15017643D01*
X14595643Y-14989071D01*
X14581357Y-14931929D01*
X14581357Y-14860500D01*
X14595643Y-14803357D01*
X14609928Y-14774786D01*
X14624214Y-14760500D01*
X14652786Y-14746214D01*
X15009928Y-14746214D02*
X14952786Y-14746214D01*
X14924214Y-14760500D01*
X14909928Y-14774786D01*
X14881357Y-14817643D01*
X14867071Y-14874786D01*
X14867071Y-14989071D01*
X14881357Y-15017643D01*
X14895643Y-15031929D01*
X14924214Y-15046214D01*
X14981357Y-15046214D01*
X15009928Y-15031929D01*
X15024214Y-15017643D01*
X15038500Y-14989071D01*
X15038500Y-14917643D01*
X15024214Y-14889071D01*
X15009928Y-14874786D01*
X14981357Y-14860500D01*
X14924214Y-14860500D01*
X14895643Y-14874786D01*
X14881357Y-14889071D01*
X14867071Y-14917643D01*
X15152786Y-14746214D02*
X15152786Y-14803357D01*
X15267071Y-14746214D02*
X15267071Y-14803357D01*
X15709928Y-15160500D02*
X15695643Y-15146214D01*
X15667071Y-15103357D01*
X15652786Y-15074786D01*
X15638500Y-15031929D01*
X15624214Y-14960500D01*
X15624214Y-14903357D01*
X15638500Y-14831929D01*
X15652786Y-14789071D01*
X15667071Y-14760500D01*
X15695643Y-14717643D01*
X15709928Y-14703357D01*
X15952786Y-14846214D02*
X15952786Y-15046214D01*
X15881357Y-14731929D02*
X15809928Y-14946214D01*
X15995643Y-14946214D01*
X16338500Y-15046214D02*
X16338500Y-14746214D01*
X16467071Y-15046214D02*
X16467071Y-14889071D01*
X16452786Y-14860500D01*
X16424214Y-14846214D01*
X16381357Y-14846214D01*
X16352786Y-14860500D01*
X16338500Y-14874786D01*
X16652786Y-15046214D02*
X16624214Y-15031929D01*
X16609928Y-15017643D01*
X16595643Y-14989071D01*
X16595643Y-14903357D01*
X16609928Y-14874786D01*
X16624214Y-14860500D01*
X16652786Y-14846214D01*
X16695643Y-14846214D01*
X16724214Y-14860500D01*
X16738500Y-14874786D01*
X16752786Y-14903357D01*
X16752786Y-14989071D01*
X16738500Y-15017643D01*
X16724214Y-15031929D01*
X16695643Y-15046214D01*
X16652786Y-15046214D01*
X16924214Y-15046214D02*
X16895643Y-15031929D01*
X16881357Y-15003357D01*
X16881357Y-14746214D01*
X17152786Y-15031929D02*
X17124214Y-15046214D01*
X17067071Y-15046214D01*
X17038500Y-15031929D01*
X17024214Y-15003357D01*
X17024214Y-14889071D01*
X17038500Y-14860500D01*
X17067071Y-14846214D01*
X17124214Y-14846214D01*
X17152786Y-14860500D01*
X17167071Y-14889071D01*
X17167071Y-14917643D01*
X17024214Y-14946214D01*
X17281357Y-15031929D02*
X17309928Y-15046214D01*
X17367071Y-15046214D01*
X17395643Y-15031929D01*
X17409928Y-15003357D01*
X17409928Y-14989071D01*
X17395643Y-14960500D01*
X17367071Y-14946214D01*
X17324214Y-14946214D01*
X17295643Y-14931929D01*
X17281357Y-14903357D01*
X17281357Y-14889071D01*
X17295643Y-14860500D01*
X17324214Y-14846214D01*
X17367071Y-14846214D01*
X17395643Y-14860500D01*
X17509928Y-15160500D02*
X17524214Y-15146214D01*
X17552786Y-15103357D01*
X17567071Y-15074786D01*
X17581357Y-15031929D01*
X17595643Y-14960500D01*
X17595643Y-14903357D01*
X17581357Y-14831929D01*
X17567071Y-14789071D01*
X17552786Y-14760500D01*
X17524214Y-14717643D01*
X17509928Y-14703357D01*
M02*
