%FSLAX45Y45*%
G04 Gerber Fmt 4.5, Leading zero omitted, Abs format (unit mm)*
G04 Created by KiCad (PCBNEW 5.1.9+dfsg1-1) date 2021-06-01 22:56:22*
%MOMM*%
%LPD*%
G01*
G04 APERTURE LIST*
%TA.AperFunction,Profile*%
%ADD10C,0.050000*%
%TD*%
%ADD11C,0.200000*%
%ADD12C,0.300000*%
G04 APERTURE END LIST*
D10*
X11026000Y-6572000D02*
G75*
G02*
X11126000Y-6472000I100000J0D01*
G01*
X11126000Y-11572000D02*
G75*
G02*
X11026000Y-11472000I0J100000D01*
G01*
X16326000Y-11472000D02*
G75*
G02*
X16226000Y-11572000I-100000J0D01*
G01*
X16226000Y-6472000D02*
G75*
G02*
X16326000Y-6572000I0J-100000D01*
G01*
X16226000Y-6472000D02*
X11126000Y-6472000D01*
X16326000Y-11472000D02*
X16326000Y-6572000D01*
X11126000Y-11572000D02*
X16226000Y-11572000D01*
X11026000Y-6572000D02*
X11026000Y-11472000D01*
D11*
X11235000Y-9526000D02*
X11325000Y-9616000D01*
X11325000Y-9526000D02*
X11235000Y-9616000D01*
X11235000Y-10206000D02*
X11325000Y-10296000D01*
X11325000Y-10206000D02*
X11235000Y-10296000D01*
D12*
X11309928Y-12040214D02*
X11309928Y-11740214D01*
X11381357Y-11740214D01*
X11424214Y-11754500D01*
X11452786Y-11783071D01*
X11467071Y-11811643D01*
X11481357Y-11868786D01*
X11481357Y-11911643D01*
X11467071Y-11968786D01*
X11452786Y-11997357D01*
X11424214Y-12025929D01*
X11381357Y-12040214D01*
X11309928Y-12040214D01*
X11609928Y-12040214D02*
X11609928Y-11840214D01*
X11609928Y-11897357D02*
X11624214Y-11868786D01*
X11638500Y-11854500D01*
X11667071Y-11840214D01*
X11695643Y-11840214D01*
X11795643Y-12040214D02*
X11795643Y-11840214D01*
X11795643Y-11740214D02*
X11781357Y-11754500D01*
X11795643Y-11768786D01*
X11809928Y-11754500D01*
X11795643Y-11740214D01*
X11795643Y-11768786D01*
X11981357Y-12040214D02*
X11952786Y-12025929D01*
X11938500Y-11997357D01*
X11938500Y-11740214D01*
X12138500Y-12040214D02*
X12109928Y-12025929D01*
X12095643Y-11997357D01*
X12095643Y-11740214D01*
X12481357Y-12040214D02*
X12481357Y-11740214D01*
X12581357Y-11954500D01*
X12681357Y-11740214D01*
X12681357Y-12040214D01*
X12952786Y-12040214D02*
X12952786Y-11883071D01*
X12938500Y-11854500D01*
X12909928Y-11840214D01*
X12852786Y-11840214D01*
X12824214Y-11854500D01*
X12952786Y-12025929D02*
X12924214Y-12040214D01*
X12852786Y-12040214D01*
X12824214Y-12025929D01*
X12809928Y-11997357D01*
X12809928Y-11968786D01*
X12824214Y-11940214D01*
X12852786Y-11925929D01*
X12924214Y-11925929D01*
X12952786Y-11911643D01*
X13095643Y-11840214D02*
X13095643Y-12140214D01*
X13095643Y-11854500D02*
X13124214Y-11840214D01*
X13181357Y-11840214D01*
X13209928Y-11854500D01*
X13224214Y-11868786D01*
X13238500Y-11897357D01*
X13238500Y-11983071D01*
X13224214Y-12011643D01*
X13209928Y-12025929D01*
X13181357Y-12040214D01*
X13124214Y-12040214D01*
X13095643Y-12025929D01*
X13367071Y-12011643D02*
X13381357Y-12025929D01*
X13367071Y-12040214D01*
X13352786Y-12025929D01*
X13367071Y-12011643D01*
X13367071Y-12040214D01*
X13367071Y-11854500D02*
X13381357Y-11868786D01*
X13367071Y-11883071D01*
X13352786Y-11868786D01*
X13367071Y-11854500D01*
X13367071Y-11883071D01*
X10933500Y-12489500D02*
X11023500Y-12579500D01*
X11023500Y-12489500D02*
X10933500Y-12579500D01*
X11367071Y-12370214D02*
X11395643Y-12370214D01*
X11424214Y-12384500D01*
X11438500Y-12398786D01*
X11452786Y-12427357D01*
X11467071Y-12484500D01*
X11467071Y-12555929D01*
X11452786Y-12613071D01*
X11438500Y-12641643D01*
X11424214Y-12655929D01*
X11395643Y-12670214D01*
X11367071Y-12670214D01*
X11338500Y-12655929D01*
X11324214Y-12641643D01*
X11309928Y-12613071D01*
X11295643Y-12555929D01*
X11295643Y-12484500D01*
X11309928Y-12427357D01*
X11324214Y-12398786D01*
X11338500Y-12384500D01*
X11367071Y-12370214D01*
X11595643Y-12641643D02*
X11609928Y-12655929D01*
X11595643Y-12670214D01*
X11581357Y-12655929D01*
X11595643Y-12641643D01*
X11595643Y-12670214D01*
X11752786Y-12670214D02*
X11809928Y-12670214D01*
X11838500Y-12655929D01*
X11852786Y-12641643D01*
X11881357Y-12598786D01*
X11895643Y-12541643D01*
X11895643Y-12427357D01*
X11881357Y-12398786D01*
X11867071Y-12384500D01*
X11838500Y-12370214D01*
X11781357Y-12370214D01*
X11752786Y-12384500D01*
X11738500Y-12398786D01*
X11724214Y-12427357D01*
X11724214Y-12498786D01*
X11738500Y-12527357D01*
X11752786Y-12541643D01*
X11781357Y-12555929D01*
X11838500Y-12555929D01*
X11867071Y-12541643D01*
X11881357Y-12527357D01*
X11895643Y-12498786D01*
X12081357Y-12370214D02*
X12109928Y-12370214D01*
X12138500Y-12384500D01*
X12152786Y-12398786D01*
X12167071Y-12427357D01*
X12181357Y-12484500D01*
X12181357Y-12555929D01*
X12167071Y-12613071D01*
X12152786Y-12641643D01*
X12138500Y-12655929D01*
X12109928Y-12670214D01*
X12081357Y-12670214D01*
X12052786Y-12655929D01*
X12038500Y-12641643D01*
X12024214Y-12613071D01*
X12009928Y-12555929D01*
X12009928Y-12484500D01*
X12024214Y-12427357D01*
X12038500Y-12398786D01*
X12052786Y-12384500D01*
X12081357Y-12370214D01*
X12309928Y-12670214D02*
X12309928Y-12470214D01*
X12309928Y-12498786D02*
X12324214Y-12484500D01*
X12352786Y-12470214D01*
X12395643Y-12470214D01*
X12424214Y-12484500D01*
X12438500Y-12513071D01*
X12438500Y-12670214D01*
X12438500Y-12513071D02*
X12452786Y-12484500D01*
X12481357Y-12470214D01*
X12524214Y-12470214D01*
X12552786Y-12484500D01*
X12567071Y-12513071D01*
X12567071Y-12670214D01*
X12709928Y-12670214D02*
X12709928Y-12470214D01*
X12709928Y-12498786D02*
X12724214Y-12484500D01*
X12752786Y-12470214D01*
X12795643Y-12470214D01*
X12824214Y-12484500D01*
X12838500Y-12513071D01*
X12838500Y-12670214D01*
X12838500Y-12513071D02*
X12852786Y-12484500D01*
X12881357Y-12470214D01*
X12924214Y-12470214D01*
X12952786Y-12484500D01*
X12967071Y-12513071D01*
X12967071Y-12670214D01*
X13552786Y-12355929D02*
X13295643Y-12741643D01*
X13938500Y-12370214D02*
X13967071Y-12370214D01*
X13995643Y-12384500D01*
X14009928Y-12398786D01*
X14024214Y-12427357D01*
X14038500Y-12484500D01*
X14038500Y-12555929D01*
X14024214Y-12613071D01*
X14009928Y-12641643D01*
X13995643Y-12655929D01*
X13967071Y-12670214D01*
X13938500Y-12670214D01*
X13909928Y-12655929D01*
X13895643Y-12641643D01*
X13881357Y-12613071D01*
X13867071Y-12555929D01*
X13867071Y-12484500D01*
X13881357Y-12427357D01*
X13895643Y-12398786D01*
X13909928Y-12384500D01*
X13938500Y-12370214D01*
X14167071Y-12641643D02*
X14181357Y-12655929D01*
X14167071Y-12670214D01*
X14152786Y-12655929D01*
X14167071Y-12641643D01*
X14167071Y-12670214D01*
X14367071Y-12370214D02*
X14395643Y-12370214D01*
X14424214Y-12384500D01*
X14438500Y-12398786D01*
X14452786Y-12427357D01*
X14467071Y-12484500D01*
X14467071Y-12555929D01*
X14452786Y-12613071D01*
X14438500Y-12641643D01*
X14424214Y-12655929D01*
X14395643Y-12670214D01*
X14367071Y-12670214D01*
X14338500Y-12655929D01*
X14324214Y-12641643D01*
X14309928Y-12613071D01*
X14295643Y-12555929D01*
X14295643Y-12484500D01*
X14309928Y-12427357D01*
X14324214Y-12398786D01*
X14338500Y-12384500D01*
X14367071Y-12370214D01*
X14567071Y-12370214D02*
X14752786Y-12370214D01*
X14652786Y-12484500D01*
X14695643Y-12484500D01*
X14724214Y-12498786D01*
X14738500Y-12513071D01*
X14752786Y-12541643D01*
X14752786Y-12613071D01*
X14738500Y-12641643D01*
X14724214Y-12655929D01*
X14695643Y-12670214D01*
X14609928Y-12670214D01*
X14581357Y-12655929D01*
X14567071Y-12641643D01*
X15024214Y-12370214D02*
X14881357Y-12370214D01*
X14867071Y-12513071D01*
X14881357Y-12498786D01*
X14909928Y-12484500D01*
X14981357Y-12484500D01*
X15009928Y-12498786D01*
X15024214Y-12513071D01*
X15038500Y-12541643D01*
X15038500Y-12613071D01*
X15024214Y-12641643D01*
X15009928Y-12655929D01*
X14981357Y-12670214D01*
X14909928Y-12670214D01*
X14881357Y-12655929D01*
X14867071Y-12641643D01*
X15152786Y-12370214D02*
X15152786Y-12427357D01*
X15267071Y-12370214D02*
X15267071Y-12427357D01*
X15709928Y-12784500D02*
X15695643Y-12770214D01*
X15667071Y-12727357D01*
X15652786Y-12698786D01*
X15638500Y-12655929D01*
X15624214Y-12584500D01*
X15624214Y-12527357D01*
X15638500Y-12455929D01*
X15652786Y-12413071D01*
X15667071Y-12384500D01*
X15695643Y-12341643D01*
X15709928Y-12327357D01*
X15809928Y-12398786D02*
X15824214Y-12384500D01*
X15852786Y-12370214D01*
X15924214Y-12370214D01*
X15952786Y-12384500D01*
X15967071Y-12398786D01*
X15981357Y-12427357D01*
X15981357Y-12455929D01*
X15967071Y-12498786D01*
X15795643Y-12670214D01*
X15981357Y-12670214D01*
X16338500Y-12670214D02*
X16338500Y-12370214D01*
X16467071Y-12670214D02*
X16467071Y-12513071D01*
X16452786Y-12484500D01*
X16424214Y-12470214D01*
X16381357Y-12470214D01*
X16352786Y-12484500D01*
X16338500Y-12498786D01*
X16652786Y-12670214D02*
X16624214Y-12655929D01*
X16609928Y-12641643D01*
X16595643Y-12613071D01*
X16595643Y-12527357D01*
X16609928Y-12498786D01*
X16624214Y-12484500D01*
X16652786Y-12470214D01*
X16695643Y-12470214D01*
X16724214Y-12484500D01*
X16738500Y-12498786D01*
X16752786Y-12527357D01*
X16752786Y-12613071D01*
X16738500Y-12641643D01*
X16724214Y-12655929D01*
X16695643Y-12670214D01*
X16652786Y-12670214D01*
X16924214Y-12670214D02*
X16895643Y-12655929D01*
X16881357Y-12627357D01*
X16881357Y-12370214D01*
X17152786Y-12655929D02*
X17124214Y-12670214D01*
X17067071Y-12670214D01*
X17038500Y-12655929D01*
X17024214Y-12627357D01*
X17024214Y-12513071D01*
X17038500Y-12484500D01*
X17067071Y-12470214D01*
X17124214Y-12470214D01*
X17152786Y-12484500D01*
X17167071Y-12513071D01*
X17167071Y-12541643D01*
X17024214Y-12570214D01*
X17281357Y-12655929D02*
X17309928Y-12670214D01*
X17367071Y-12670214D01*
X17395643Y-12655929D01*
X17409928Y-12627357D01*
X17409928Y-12613071D01*
X17395643Y-12584500D01*
X17367071Y-12570214D01*
X17324214Y-12570214D01*
X17295643Y-12555929D01*
X17281357Y-12527357D01*
X17281357Y-12513071D01*
X17295643Y-12484500D01*
X17324214Y-12470214D01*
X17367071Y-12470214D01*
X17395643Y-12484500D01*
X17509928Y-12784500D02*
X17524214Y-12770214D01*
X17552786Y-12727357D01*
X17567071Y-12698786D01*
X17581357Y-12655929D01*
X17595643Y-12584500D01*
X17595643Y-12527357D01*
X17581357Y-12455929D01*
X17567071Y-12413071D01*
X17552786Y-12384500D01*
X17524214Y-12341643D01*
X17509928Y-12327357D01*
X18052786Y-12784500D02*
X18038500Y-12770214D01*
X18009928Y-12727357D01*
X17995643Y-12698786D01*
X17981357Y-12655929D01*
X17967071Y-12584500D01*
X17967071Y-12527357D01*
X17981357Y-12455929D01*
X17995643Y-12413071D01*
X18009928Y-12384500D01*
X18038500Y-12341643D01*
X18052786Y-12327357D01*
X18167071Y-12470214D02*
X18167071Y-12670214D01*
X18167071Y-12498786D02*
X18181357Y-12484500D01*
X18209928Y-12470214D01*
X18252786Y-12470214D01*
X18281357Y-12484500D01*
X18295643Y-12513071D01*
X18295643Y-12670214D01*
X18481357Y-12670214D02*
X18452786Y-12655929D01*
X18438500Y-12641643D01*
X18424214Y-12613071D01*
X18424214Y-12527357D01*
X18438500Y-12498786D01*
X18452786Y-12484500D01*
X18481357Y-12470214D01*
X18524214Y-12470214D01*
X18552786Y-12484500D01*
X18567071Y-12498786D01*
X18581357Y-12527357D01*
X18581357Y-12613071D01*
X18567071Y-12641643D01*
X18552786Y-12655929D01*
X18524214Y-12670214D01*
X18481357Y-12670214D01*
X18667071Y-12470214D02*
X18781357Y-12470214D01*
X18709928Y-12370214D02*
X18709928Y-12627357D01*
X18724214Y-12655929D01*
X18752786Y-12670214D01*
X18781357Y-12670214D01*
X19109928Y-12470214D02*
X19109928Y-12770214D01*
X19109928Y-12484500D02*
X19138500Y-12470214D01*
X19195643Y-12470214D01*
X19224214Y-12484500D01*
X19238500Y-12498786D01*
X19252786Y-12527357D01*
X19252786Y-12613071D01*
X19238500Y-12641643D01*
X19224214Y-12655929D01*
X19195643Y-12670214D01*
X19138500Y-12670214D01*
X19109928Y-12655929D01*
X19424214Y-12670214D02*
X19395643Y-12655929D01*
X19381357Y-12627357D01*
X19381357Y-12370214D01*
X19667071Y-12670214D02*
X19667071Y-12513071D01*
X19652786Y-12484500D01*
X19624214Y-12470214D01*
X19567071Y-12470214D01*
X19538500Y-12484500D01*
X19667071Y-12655929D02*
X19638500Y-12670214D01*
X19567071Y-12670214D01*
X19538500Y-12655929D01*
X19524214Y-12627357D01*
X19524214Y-12598786D01*
X19538500Y-12570214D01*
X19567071Y-12555929D01*
X19638500Y-12555929D01*
X19667071Y-12541643D01*
X19767071Y-12470214D02*
X19881357Y-12470214D01*
X19809928Y-12370214D02*
X19809928Y-12627357D01*
X19824214Y-12655929D01*
X19852786Y-12670214D01*
X19881357Y-12670214D01*
X20095643Y-12655929D02*
X20067071Y-12670214D01*
X20009928Y-12670214D01*
X19981357Y-12655929D01*
X19967071Y-12627357D01*
X19967071Y-12513071D01*
X19981357Y-12484500D01*
X20009928Y-12470214D01*
X20067071Y-12470214D01*
X20095643Y-12484500D01*
X20109928Y-12513071D01*
X20109928Y-12541643D01*
X19967071Y-12570214D01*
X20367071Y-12670214D02*
X20367071Y-12370214D01*
X20367071Y-12655929D02*
X20338500Y-12670214D01*
X20281357Y-12670214D01*
X20252786Y-12655929D01*
X20238500Y-12641643D01*
X20224214Y-12613071D01*
X20224214Y-12527357D01*
X20238500Y-12498786D01*
X20252786Y-12484500D01*
X20281357Y-12470214D01*
X20338500Y-12470214D01*
X20367071Y-12484500D01*
X20481357Y-12784500D02*
X20495643Y-12770214D01*
X20524214Y-12727357D01*
X20538500Y-12698786D01*
X20552786Y-12655929D01*
X20567071Y-12584500D01*
X20567071Y-12527357D01*
X20552786Y-12455929D01*
X20538500Y-12413071D01*
X20524214Y-12384500D01*
X20495643Y-12341643D01*
X20481357Y-12327357D01*
M02*
