%TF.GenerationSoftware,KiCad,Pcbnew,5.1.9+dfsg1-1*%
%TF.CreationDate,2021-06-01T22:56:34+02:00*%
%TF.ProjectId,SDR-RX,5344522d-5258-42e6-9b69-6361645f7063,rev?*%
%TF.SameCoordinates,Original*%
%TF.FileFunction,Copper,L2,Bot*%
%TF.FilePolarity,Positive*%
%FSLAX46Y46*%
G04 Gerber Fmt 4.6, Leading zero omitted, Abs format (unit mm)*
G04 Created by KiCad (PCBNEW 5.1.9+dfsg1-1) date 2021-06-01 22:56:34*
%MOMM*%
%LPD*%
G01*
G04 APERTURE LIST*
%TA.AperFunction,ComponentPad*%
%ADD10O,1.950000X1.700000*%
%TD*%
%TA.AperFunction,ComponentPad*%
%ADD11C,2.240000*%
%TD*%
%TA.AperFunction,ComponentPad*%
%ADD12C,2.740000*%
%TD*%
%TA.AperFunction,ComponentPad*%
%ADD13O,1.700000X2.000000*%
%TD*%
%TA.AperFunction,ComponentPad*%
%ADD14C,0.800000*%
%TD*%
%TA.AperFunction,ComponentPad*%
%ADD15C,5.400000*%
%TD*%
%TA.AperFunction,ComponentPad*%
%ADD16O,1.700000X1.700000*%
%TD*%
%TA.AperFunction,ComponentPad*%
%ADD17R,1.700000X1.700000*%
%TD*%
%TA.AperFunction,SMDPad,CuDef*%
%ADD18R,4.200000X1.350000*%
%TD*%
%TA.AperFunction,ViaPad*%
%ADD19C,0.800000*%
%TD*%
%TA.AperFunction,Conductor*%
%ADD20C,1.000000*%
%TD*%
%TA.AperFunction,Conductor*%
%ADD21C,0.250000*%
%TD*%
%TA.AperFunction,Conductor*%
%ADD22C,0.254000*%
%TD*%
%TA.AperFunction,Conductor*%
%ADD23C,0.100000*%
%TD*%
G04 APERTURE END LIST*
D10*
%TO.P,Program,7*%
%TO.N,Net-(J1-Pad7)*%
X112800000Y-89980000D03*
%TO.P,Program,6*%
%TO.N,Net-(J1-Pad6)*%
X112800000Y-87480000D03*
%TO.P,Program,5*%
%TO.N,Net-(C5-Pad1)*%
X112800000Y-84980000D03*
%TO.P,Program,4*%
%TO.N,Net-(J1-Pad4)*%
X112800000Y-82480000D03*
%TO.P,Program,3*%
%TO.N,Net-(J1-Pad3)*%
X112800000Y-79980000D03*
%TO.P,Program,2*%
%TO.N,Net-(J1-Pad2)*%
X112800000Y-77480000D03*
%TO.P,Program,1*%
%TO.N,GND*%
%TA.AperFunction,ComponentPad*%
G36*
G01*
X112075000Y-74130000D02*
X113525000Y-74130000D01*
G75*
G02*
X113775000Y-74380000I0J-250000D01*
G01*
X113775000Y-75580000D01*
G75*
G02*
X113525000Y-75830000I-250000J0D01*
G01*
X112075000Y-75830000D01*
G75*
G02*
X111825000Y-75580000I0J250000D01*
G01*
X111825000Y-74380000D01*
G75*
G02*
X112075000Y-74130000I250000J0D01*
G01*
G37*
%TD.AperFunction*%
%TD*%
D11*
%TO.P,SW/AM Ant.,1*%
%TO.N,Net-(C11-Pad1)*%
X137070000Y-90050000D03*
D12*
%TO.P,SW/AM Ant.,2*%
%TO.N,GND*%
X134530000Y-92590000D03*
X134530000Y-87510000D03*
X139610000Y-87510000D03*
X139610000Y-92590000D03*
%TD*%
D13*
%TO.P,Vin ,2*%
%TO.N,Net-(F1-Pad1)*%
X125460000Y-111810000D03*
%TO.P,Vin ,1*%
%TO.N,GND*%
%TA.AperFunction,ComponentPad*%
G36*
G01*
X122110000Y-112560000D02*
X122110000Y-111060000D01*
G75*
G02*
X122360000Y-110810000I250000J0D01*
G01*
X123560000Y-110810000D01*
G75*
G02*
X123810000Y-111060000I0J-250000D01*
G01*
X123810000Y-112560000D01*
G75*
G02*
X123560000Y-112810000I-250000J0D01*
G01*
X122360000Y-112810000D01*
G75*
G02*
X122110000Y-112560000I0J250000D01*
G01*
G37*
%TD.AperFunction*%
%TD*%
D14*
%TO.P,H4,1*%
%TO.N,Net-(H4-Pad1)*%
X161191891Y-66788109D03*
X159760000Y-66195000D03*
X158328109Y-66788109D03*
X157735000Y-68220000D03*
X158328109Y-69651891D03*
X159760000Y-70245000D03*
X161191891Y-69651891D03*
X161785000Y-68220000D03*
D15*
X159760000Y-68220000D03*
%TD*%
D14*
%TO.P,H3,1*%
%TO.N,Net-(H3-Pad1)*%
X161191891Y-110788109D03*
X159760000Y-110195000D03*
X158328109Y-110788109D03*
X157735000Y-112220000D03*
X158328109Y-113651891D03*
X159760000Y-114245000D03*
X161191891Y-113651891D03*
X161785000Y-112220000D03*
D15*
X159760000Y-112220000D03*
%TD*%
D14*
%TO.P,H2,1*%
%TO.N,Net-(H2-Pad1)*%
X115191891Y-110788109D03*
X113760000Y-110195000D03*
X112328109Y-110788109D03*
X111735000Y-112220000D03*
X112328109Y-113651891D03*
X113760000Y-114245000D03*
X115191891Y-113651891D03*
X115785000Y-112220000D03*
D15*
X113760000Y-112220000D03*
%TD*%
D14*
%TO.P,H1,1*%
%TO.N,Net-(H1-Pad1)*%
X115191891Y-66788109D03*
X113760000Y-66195000D03*
X112328109Y-66788109D03*
X111735000Y-68220000D03*
X112328109Y-69651891D03*
X113760000Y-70245000D03*
X115191891Y-69651891D03*
X115785000Y-68220000D03*
D15*
X113760000Y-68220000D03*
%TD*%
D16*
%TO.P,GND,3*%
%TO.N,GND*%
X147090000Y-111810000D03*
%TO.P,GND,2*%
X144550000Y-111810000D03*
D17*
%TO.P,GND,1*%
X142010000Y-111810000D03*
%TD*%
D18*
%TO.P,FM Antenna,2*%
%TO.N,GND*%
X161060000Y-73140000D03*
X161060000Y-78790000D03*
%TD*%
D19*
%TO.N,GND*%
X136930000Y-77620000D03*
X162330000Y-73048000D03*
X161060000Y-73048000D03*
X159663000Y-73048000D03*
X159790000Y-78763000D03*
X162330000Y-78763000D03*
X129437000Y-111910000D03*
X128802000Y-66444000D03*
X152805000Y-79525000D03*
X149122000Y-80541000D03*
X161060000Y-78790000D03*
X161060000Y-78790000D03*
X161060000Y-78790000D03*
X112800000Y-72540000D03*
X115340000Y-78890000D03*
X115340000Y-83970000D03*
X114070000Y-94130000D03*
X121690000Y-96670000D03*
X117880000Y-114450000D03*
X117880000Y-103020000D03*
X131850000Y-101750000D03*
X131850000Y-109370000D03*
X121690000Y-109370000D03*
X134390000Y-114450000D03*
X142010000Y-114450000D03*
X147090000Y-114450000D03*
X155980000Y-110640000D03*
X136930000Y-109370000D03*
X136930000Y-104290000D03*
X142010000Y-104290000D03*
X148360000Y-103020000D03*
X158520000Y-97940000D03*
X161060000Y-105560000D03*
X147090000Y-109370000D03*
X142010000Y-109370000D03*
X147090000Y-92860000D03*
X157250000Y-92860000D03*
X159790000Y-92860000D03*
X157250000Y-89050000D03*
X157250000Y-76350000D03*
X155980000Y-66190000D03*
X150900000Y-66190000D03*
X144550000Y-70000000D03*
X144550000Y-80160000D03*
X139470000Y-70000000D03*
X134390000Y-80160000D03*
X129310000Y-81430000D03*
X129310000Y-71270000D03*
X131850000Y-71270000D03*
X115340000Y-105560000D03*
X136930000Y-94130000D03*
X136930000Y-86510000D03*
X142010000Y-86510000D03*
X142010000Y-92860000D03*
X129945000Y-105306000D03*
X122960000Y-103020000D03*
X147090000Y-95400000D03*
X126770000Y-91590000D03*
X116610000Y-94130000D03*
X157250000Y-82700000D03*
%TO.N,+3V3*%
X113054000Y-98321000D03*
X147725000Y-100988000D03*
X152551000Y-72032000D03*
X129310000Y-86510000D03*
X150265000Y-75334000D03*
X150553564Y-89015436D03*
%TO.N,Net-(C7-Pad1)*%
X148487000Y-85621000D03*
X149376000Y-91209000D03*
%TO.N,Net-(J1-Pad3)*%
X133120000Y-70000000D03*
%TO.N,Net-(J1-Pad2)*%
X131850000Y-68730000D03*
%TO.N,Net-(Q2-Pad3)*%
X131215000Y-89050000D03*
X131215000Y-81430000D03*
%TO.N,Net-(R2-Pad2)*%
X151662000Y-96797000D03*
X153440000Y-102766000D03*
X153567000Y-89050000D03*
%TO.N,Net-(R5-Pad2)*%
X155853000Y-95273000D03*
X153567000Y-90574000D03*
%TD*%
D20*
%TO.N,+3V3*%
X147725000Y-100988000D02*
X145058000Y-98321000D01*
X129310000Y-97940000D02*
X128929000Y-98321000D01*
X129310000Y-86510000D02*
X129310000Y-97940000D01*
X128929000Y-98321000D02*
X122579000Y-98321000D01*
X145058000Y-98321000D02*
X128929000Y-98321000D01*
X150500001Y-75569001D02*
X150265000Y-75334000D01*
X150500001Y-98212999D02*
X150500001Y-75569001D01*
X147725000Y-100988000D02*
X150500001Y-98212999D01*
X150265000Y-74318000D02*
X152551000Y-72032000D01*
X150265000Y-75334000D02*
X150265000Y-74318000D01*
X122579000Y-98321000D02*
X113054000Y-98321000D01*
D21*
%TO.N,Net-(C7-Pad1)*%
X148487000Y-90320000D02*
X148487000Y-85621000D01*
X149376000Y-91209000D02*
X148487000Y-90320000D01*
%TO.N,Net-(J1-Pad3)*%
X112800000Y-79980000D02*
X115250000Y-77530000D01*
X119150000Y-73630000D02*
X119150000Y-71270000D01*
X119150000Y-71270000D02*
X120420000Y-70000000D01*
X120420000Y-70000000D02*
X129310000Y-70000000D01*
X115250000Y-77530000D02*
X119150000Y-73630000D01*
X129310000Y-70000000D02*
X130580000Y-70000000D01*
X130580000Y-70000000D02*
X131850000Y-70000000D01*
X131850000Y-70000000D02*
X133120000Y-70000000D01*
%TO.N,Net-(J1-Pad2)*%
X112800000Y-77480000D02*
X115270000Y-75010000D01*
X117880000Y-72400000D02*
X117880000Y-70000000D01*
X117880000Y-70000000D02*
X119150000Y-68730000D01*
X119150000Y-68730000D02*
X129310000Y-68730000D01*
X115270000Y-75010000D02*
X117880000Y-72400000D01*
X129310000Y-68730000D02*
X130580000Y-68730000D01*
X130580000Y-68730000D02*
X131850000Y-68730000D01*
X129310000Y-68730000D02*
X129310000Y-68730000D01*
X129310000Y-68730000D02*
X129310000Y-68730000D01*
%TO.N,Net-(Q2-Pad3)*%
X131215000Y-81430000D02*
X131215000Y-89050000D01*
%TO.N,Net-(R2-Pad2)*%
X151662000Y-96797000D02*
X151662000Y-100988000D01*
X151662000Y-100988000D02*
X153440000Y-102766000D01*
X151662000Y-90955000D02*
X151662000Y-96797000D01*
X153567000Y-89050000D02*
X151662000Y-90955000D01*
%TO.N,Net-(R5-Pad2)*%
X153567000Y-90574000D02*
X153567000Y-91463000D01*
X155853000Y-93749000D02*
X155853000Y-95273000D01*
X153567000Y-91463000D02*
X155853000Y-93749000D01*
%TO.N,Net-(C5-Pad1)*%
X112800000Y-84980000D02*
X113302000Y-84980000D01*
%TD*%
D22*
%TO.N,GND*%
X117245000Y-69575773D02*
X117174454Y-69707754D01*
X117130998Y-69851015D01*
X117116324Y-70000000D01*
X117120001Y-70037332D01*
X117120000Y-72085197D01*
X114759007Y-74446192D01*
X114758996Y-74446201D01*
X114352200Y-74852998D01*
X114251252Y-74852998D01*
X114410000Y-74694250D01*
X114413072Y-74130000D01*
X114400812Y-74005518D01*
X114364502Y-73885820D01*
X114305537Y-73775506D01*
X114226185Y-73678815D01*
X114129494Y-73599463D01*
X114019180Y-73540498D01*
X113899482Y-73504188D01*
X113775000Y-73491928D01*
X113085750Y-73495000D01*
X112927000Y-73653750D01*
X112927000Y-74853000D01*
X112947000Y-74853000D01*
X112947000Y-75107000D01*
X112927000Y-75107000D01*
X112927000Y-75127000D01*
X112673000Y-75127000D01*
X112673000Y-75107000D01*
X111348750Y-75107000D01*
X111190000Y-75265750D01*
X111186928Y-75830000D01*
X111199188Y-75954482D01*
X111235498Y-76074180D01*
X111294463Y-76184494D01*
X111373815Y-76281185D01*
X111470506Y-76360537D01*
X111580820Y-76419502D01*
X111615608Y-76430055D01*
X111434294Y-76650986D01*
X111296401Y-76908966D01*
X111211487Y-77188889D01*
X111182815Y-77480000D01*
X111211487Y-77771111D01*
X111296401Y-78051034D01*
X111434294Y-78309014D01*
X111619866Y-78535134D01*
X111845986Y-78720706D01*
X111863374Y-78730000D01*
X111845986Y-78739294D01*
X111619866Y-78924866D01*
X111434294Y-79150986D01*
X111296401Y-79408966D01*
X111211487Y-79688889D01*
X111182815Y-79980000D01*
X111211487Y-80271111D01*
X111296401Y-80551034D01*
X111434294Y-80809014D01*
X111619866Y-81035134D01*
X111845986Y-81220706D01*
X111863374Y-81230000D01*
X111845986Y-81239294D01*
X111619866Y-81424866D01*
X111434294Y-81650986D01*
X111296401Y-81908966D01*
X111211487Y-82188889D01*
X111182815Y-82480000D01*
X111211487Y-82771111D01*
X111296401Y-83051034D01*
X111434294Y-83309014D01*
X111619866Y-83535134D01*
X111845986Y-83720706D01*
X111863374Y-83730000D01*
X111845986Y-83739294D01*
X111619866Y-83924866D01*
X111434294Y-84150986D01*
X111296401Y-84408966D01*
X111211487Y-84688889D01*
X111182815Y-84980000D01*
X111211487Y-85271111D01*
X111296401Y-85551034D01*
X111434294Y-85809014D01*
X111619866Y-86035134D01*
X111845986Y-86220706D01*
X111863374Y-86230000D01*
X111845986Y-86239294D01*
X111619866Y-86424866D01*
X111434294Y-86650986D01*
X111296401Y-86908966D01*
X111211487Y-87188889D01*
X111182815Y-87480000D01*
X111211487Y-87771111D01*
X111296401Y-88051034D01*
X111434294Y-88309014D01*
X111619866Y-88535134D01*
X111845986Y-88720706D01*
X111863374Y-88730000D01*
X111845986Y-88739294D01*
X111619866Y-88924866D01*
X111434294Y-89150986D01*
X111296401Y-89408966D01*
X111211487Y-89688889D01*
X111182815Y-89980000D01*
X111211487Y-90271111D01*
X111296401Y-90551034D01*
X111434294Y-90809014D01*
X111619866Y-91035134D01*
X111845986Y-91220706D01*
X112103966Y-91358599D01*
X112383889Y-91443513D01*
X112602050Y-91465000D01*
X112997950Y-91465000D01*
X113216111Y-91443513D01*
X113496034Y-91358599D01*
X113754014Y-91220706D01*
X113980134Y-91035134D01*
X114165706Y-90809014D01*
X114303599Y-90551034D01*
X114388513Y-90271111D01*
X114417185Y-89980000D01*
X114388513Y-89688889D01*
X114303599Y-89408966D01*
X114165706Y-89150986D01*
X113980134Y-88924866D01*
X113754014Y-88739294D01*
X113736626Y-88730000D01*
X113754014Y-88720706D01*
X113980134Y-88535134D01*
X114165706Y-88309014D01*
X114303599Y-88051034D01*
X114388513Y-87771111D01*
X114417185Y-87480000D01*
X114388513Y-87188889D01*
X114303599Y-86908966D01*
X114165706Y-86650986D01*
X113980134Y-86424866D01*
X113754014Y-86239294D01*
X113736626Y-86230000D01*
X113754014Y-86220706D01*
X113980134Y-86035134D01*
X114165706Y-85809014D01*
X114303599Y-85551034D01*
X114388513Y-85271111D01*
X114417185Y-84980000D01*
X114388513Y-84688889D01*
X114303599Y-84408966D01*
X114165706Y-84150986D01*
X113980134Y-83924866D01*
X113754014Y-83739294D01*
X113736626Y-83730000D01*
X113754014Y-83720706D01*
X113980134Y-83535134D01*
X114165706Y-83309014D01*
X114303599Y-83051034D01*
X114388513Y-82771111D01*
X114417185Y-82480000D01*
X114388513Y-82188889D01*
X114303599Y-81908966D01*
X114165706Y-81650986D01*
X113980134Y-81424866D01*
X113754014Y-81239294D01*
X113736626Y-81230000D01*
X113754014Y-81220706D01*
X113980134Y-81035134D01*
X114165706Y-80809014D01*
X114303599Y-80551034D01*
X114388513Y-80271111D01*
X114417185Y-79980000D01*
X114388513Y-79688889D01*
X114336704Y-79518098D01*
X115813799Y-78041003D01*
X115813804Y-78040997D01*
X117245000Y-76609801D01*
X117245000Y-89050000D01*
X117247440Y-89074776D01*
X117254667Y-89098601D01*
X117266403Y-89120557D01*
X117282197Y-89139803D01*
X117301443Y-89155597D01*
X117323399Y-89167333D01*
X117347224Y-89174560D01*
X117372000Y-89177000D01*
X128175000Y-89177000D01*
X128175001Y-97186000D01*
X112998248Y-97186000D01*
X112831501Y-97202423D01*
X112617553Y-97267324D01*
X112420377Y-97372716D01*
X112247551Y-97514551D01*
X112105716Y-97687377D01*
X112000324Y-97884553D01*
X111935423Y-98098501D01*
X111913509Y-98321000D01*
X111935423Y-98543499D01*
X112000324Y-98757447D01*
X112105716Y-98954623D01*
X112247551Y-99127449D01*
X112420377Y-99269284D01*
X112617553Y-99374676D01*
X112831501Y-99439577D01*
X112998248Y-99456000D01*
X128873249Y-99456000D01*
X128929000Y-99461491D01*
X128984751Y-99456000D01*
X144587869Y-99456000D01*
X146883023Y-101751156D01*
X146918552Y-101794448D01*
X146961844Y-101829977D01*
X146961856Y-101829989D01*
X147091377Y-101936284D01*
X147288553Y-102041676D01*
X147502501Y-102106577D01*
X147725000Y-102128491D01*
X147947499Y-102106577D01*
X148161447Y-102041676D01*
X148358623Y-101936284D01*
X148531449Y-101794449D01*
X148566996Y-101751135D01*
X150902001Y-99416131D01*
X150902001Y-100950668D01*
X150898324Y-100988000D01*
X150912998Y-101136985D01*
X150956454Y-101280246D01*
X151027026Y-101412276D01*
X151071688Y-101466696D01*
X151122000Y-101528001D01*
X151150998Y-101551799D01*
X152405000Y-102805802D01*
X152405000Y-102867939D01*
X152444774Y-103067898D01*
X152522795Y-103256256D01*
X152636063Y-103425774D01*
X152780226Y-103569937D01*
X152949744Y-103683205D01*
X153138102Y-103761226D01*
X153338061Y-103801000D01*
X153541939Y-103801000D01*
X153741898Y-103761226D01*
X153930256Y-103683205D01*
X154099774Y-103569937D01*
X154243937Y-103425774D01*
X154357205Y-103256256D01*
X154435226Y-103067898D01*
X154475000Y-102867939D01*
X154475000Y-102664061D01*
X154435226Y-102464102D01*
X154357205Y-102275744D01*
X154243937Y-102106226D01*
X154099774Y-101962063D01*
X153930256Y-101848795D01*
X153741898Y-101770774D01*
X153541939Y-101731000D01*
X153479802Y-101731000D01*
X152422000Y-100673199D01*
X152422000Y-97500711D01*
X152465937Y-97456774D01*
X152579205Y-97287256D01*
X152657226Y-97098898D01*
X152697000Y-96898939D01*
X152697000Y-96695061D01*
X152657226Y-96495102D01*
X152579205Y-96306744D01*
X152465937Y-96137226D01*
X152422000Y-96093289D01*
X152422000Y-91269801D01*
X152643278Y-91048523D01*
X152649795Y-91064256D01*
X152763063Y-91233774D01*
X152807000Y-91277711D01*
X152807000Y-91425678D01*
X152803324Y-91463000D01*
X152807000Y-91500322D01*
X152807000Y-91500333D01*
X152815830Y-91589974D01*
X152817998Y-91611985D01*
X152861454Y-91755246D01*
X152932026Y-91887276D01*
X152990070Y-91958002D01*
X153027000Y-92003001D01*
X153055998Y-92026799D01*
X155093000Y-94063802D01*
X155093001Y-94569288D01*
X155049063Y-94613226D01*
X154935795Y-94782744D01*
X154857774Y-94971102D01*
X154818000Y-95171061D01*
X154818000Y-95374939D01*
X154857774Y-95574898D01*
X154935795Y-95763256D01*
X155049063Y-95932774D01*
X155193226Y-96076937D01*
X155362744Y-96190205D01*
X155551102Y-96268226D01*
X155751061Y-96308000D01*
X155954939Y-96308000D01*
X156154898Y-96268226D01*
X156343256Y-96190205D01*
X156512774Y-96076937D01*
X156656937Y-95932774D01*
X156770205Y-95763256D01*
X156848226Y-95574898D01*
X156888000Y-95374939D01*
X156888000Y-95171061D01*
X156848226Y-94971102D01*
X156770205Y-94782744D01*
X156656937Y-94613226D01*
X156613000Y-94569289D01*
X156613000Y-93786322D01*
X156616676Y-93748999D01*
X156613000Y-93711676D01*
X156613000Y-93711667D01*
X156602003Y-93600014D01*
X156558546Y-93456753D01*
X156487974Y-93324724D01*
X156393001Y-93208999D01*
X156364004Y-93185202D01*
X154387615Y-91208814D01*
X154484205Y-91064256D01*
X154562226Y-90875898D01*
X154602000Y-90675939D01*
X154602000Y-90472061D01*
X154562226Y-90272102D01*
X154484205Y-90083744D01*
X154370937Y-89914226D01*
X154268711Y-89812000D01*
X154370937Y-89709774D01*
X154484205Y-89540256D01*
X154562226Y-89351898D01*
X154602000Y-89151939D01*
X154602000Y-88948061D01*
X154562226Y-88748102D01*
X154484205Y-88559744D01*
X154370937Y-88390226D01*
X154226774Y-88246063D01*
X154057256Y-88132795D01*
X153868898Y-88054774D01*
X153668939Y-88015000D01*
X153465061Y-88015000D01*
X153265102Y-88054774D01*
X153076744Y-88132795D01*
X152907226Y-88246063D01*
X152763063Y-88390226D01*
X152649795Y-88559744D01*
X152571774Y-88748102D01*
X152532000Y-88948061D01*
X152532000Y-89010198D01*
X151635001Y-89907198D01*
X151635001Y-79465000D01*
X158321928Y-79465000D01*
X158334188Y-79589482D01*
X158370498Y-79709180D01*
X158429463Y-79819494D01*
X158508815Y-79916185D01*
X158605506Y-79995537D01*
X158715820Y-80054502D01*
X158835518Y-80090812D01*
X158960000Y-80103072D01*
X160774250Y-80100000D01*
X160933000Y-79941250D01*
X160933000Y-78917000D01*
X158483750Y-78917000D01*
X158325000Y-79075750D01*
X158321928Y-79465000D01*
X151635001Y-79465000D01*
X151635001Y-78115000D01*
X158321928Y-78115000D01*
X158325000Y-78504250D01*
X158483750Y-78663000D01*
X160933000Y-78663000D01*
X160933000Y-77638750D01*
X160774250Y-77480000D01*
X158960000Y-77476928D01*
X158835518Y-77489188D01*
X158715820Y-77525498D01*
X158605506Y-77584463D01*
X158508815Y-77663815D01*
X158429463Y-77760506D01*
X158370498Y-77870820D01*
X158334188Y-77990518D01*
X158321928Y-78115000D01*
X151635001Y-78115000D01*
X151635001Y-75624753D01*
X151640492Y-75569001D01*
X151618578Y-75346502D01*
X151605153Y-75302246D01*
X151553677Y-75132554D01*
X151448285Y-74935378D01*
X151400000Y-74876543D01*
X151400000Y-74788131D01*
X152373131Y-73815000D01*
X158321928Y-73815000D01*
X158334188Y-73939482D01*
X158370498Y-74059180D01*
X158429463Y-74169494D01*
X158508815Y-74266185D01*
X158605506Y-74345537D01*
X158715820Y-74404502D01*
X158835518Y-74440812D01*
X158960000Y-74453072D01*
X160774250Y-74450000D01*
X160933000Y-74291250D01*
X160933000Y-73267000D01*
X158483750Y-73267000D01*
X158325000Y-73425750D01*
X158321928Y-73815000D01*
X152373131Y-73815000D01*
X153392988Y-72795144D01*
X153499283Y-72665623D01*
X153604675Y-72468447D01*
X153605720Y-72465000D01*
X158321928Y-72465000D01*
X158325000Y-72854250D01*
X158483750Y-73013000D01*
X160933000Y-73013000D01*
X160933000Y-71988750D01*
X160774250Y-71830000D01*
X158960000Y-71826928D01*
X158835518Y-71839188D01*
X158715820Y-71875498D01*
X158605506Y-71934463D01*
X158508815Y-72013815D01*
X158429463Y-72110506D01*
X158370498Y-72220820D01*
X158334188Y-72340518D01*
X158321928Y-72465000D01*
X153605720Y-72465000D01*
X153669577Y-72254500D01*
X153691490Y-72032001D01*
X153669577Y-71809502D01*
X153604675Y-71595554D01*
X153499283Y-71398378D01*
X153357448Y-71225552D01*
X153184622Y-71083717D01*
X152987446Y-70978325D01*
X152773498Y-70913423D01*
X152550999Y-70891510D01*
X152328500Y-70913423D01*
X152114553Y-70978325D01*
X151917377Y-71083717D01*
X151787856Y-71190012D01*
X149501860Y-73476009D01*
X149458552Y-73511551D01*
X149316717Y-73684377D01*
X149211324Y-73881553D01*
X149146423Y-74095501D01*
X149136770Y-74193509D01*
X149124509Y-74318000D01*
X149130000Y-74373751D01*
X149130000Y-75278249D01*
X149124509Y-75334000D01*
X149130000Y-75389751D01*
X149146423Y-75556498D01*
X149211324Y-75770446D01*
X149316716Y-75967623D01*
X149365002Y-76026459D01*
X149365002Y-85072072D01*
X149290937Y-84961226D01*
X149146774Y-84817063D01*
X148977256Y-84703795D01*
X148788898Y-84625774D01*
X148588939Y-84586000D01*
X148385061Y-84586000D01*
X148185102Y-84625774D01*
X147996744Y-84703795D01*
X147827226Y-84817063D01*
X147683063Y-84961226D01*
X147569795Y-85130744D01*
X147491774Y-85319102D01*
X147452000Y-85519061D01*
X147452000Y-85722939D01*
X147491774Y-85922898D01*
X147569795Y-86111256D01*
X147683063Y-86280774D01*
X147727001Y-86324712D01*
X147727000Y-90282677D01*
X147723324Y-90320000D01*
X147727000Y-90357322D01*
X147727000Y-90357332D01*
X147737997Y-90468985D01*
X147762886Y-90551034D01*
X147781454Y-90612246D01*
X147852026Y-90744276D01*
X147885221Y-90784724D01*
X147946999Y-90860001D01*
X147976002Y-90883803D01*
X148341000Y-91248801D01*
X148341000Y-91310939D01*
X148380774Y-91510898D01*
X148458795Y-91699256D01*
X148572063Y-91868774D01*
X148716226Y-92012937D01*
X148885744Y-92126205D01*
X149074102Y-92204226D01*
X149274061Y-92244000D01*
X149365001Y-92244000D01*
X149365001Y-97742867D01*
X147725001Y-99382868D01*
X145899996Y-97557865D01*
X145864449Y-97514551D01*
X145691623Y-97372716D01*
X145494447Y-97267324D01*
X145280499Y-97202423D01*
X145113752Y-97186000D01*
X145113751Y-97186000D01*
X145058000Y-97180509D01*
X145002249Y-97186000D01*
X130445000Y-97186000D01*
X130445000Y-93989082D01*
X133310523Y-93989082D01*
X133450889Y-94291334D01*
X133803538Y-94469168D01*
X134184104Y-94574786D01*
X134577962Y-94604129D01*
X134969978Y-94556072D01*
X135345086Y-94432458D01*
X135609111Y-94291334D01*
X135749477Y-93989082D01*
X138390523Y-93989082D01*
X138530889Y-94291334D01*
X138883538Y-94469168D01*
X139264104Y-94574786D01*
X139657962Y-94604129D01*
X140049978Y-94556072D01*
X140425086Y-94432458D01*
X140689111Y-94291334D01*
X140829477Y-93989082D01*
X139610000Y-92769605D01*
X138390523Y-93989082D01*
X135749477Y-93989082D01*
X134530000Y-92769605D01*
X133310523Y-93989082D01*
X130445000Y-93989082D01*
X130445000Y-92637962D01*
X132515871Y-92637962D01*
X132563928Y-93029978D01*
X132687542Y-93405086D01*
X132828666Y-93669111D01*
X133130918Y-93809477D01*
X134350395Y-92590000D01*
X133130918Y-91370523D01*
X132828666Y-91510889D01*
X132650832Y-91863538D01*
X132545214Y-92244104D01*
X132515871Y-92637962D01*
X130445000Y-92637962D01*
X130445000Y-89743711D01*
X130555226Y-89853937D01*
X130724744Y-89967205D01*
X130913102Y-90045226D01*
X131113061Y-90085000D01*
X131316939Y-90085000D01*
X131516898Y-90045226D01*
X131705256Y-89967205D01*
X131874774Y-89853937D01*
X132018937Y-89709774D01*
X132132205Y-89540256D01*
X132210226Y-89351898D01*
X132250000Y-89151939D01*
X132250000Y-88948061D01*
X132242247Y-88909082D01*
X133310523Y-88909082D01*
X133450889Y-89211334D01*
X133803538Y-89389168D01*
X134184104Y-89494786D01*
X134577962Y-89524129D01*
X134969978Y-89476072D01*
X135345086Y-89352458D01*
X135491820Y-89274027D01*
X135382443Y-89538085D01*
X135315000Y-89877148D01*
X135315000Y-90222852D01*
X135382443Y-90561915D01*
X135493676Y-90830455D01*
X135256462Y-90710832D01*
X134875896Y-90605214D01*
X134482038Y-90575871D01*
X134090022Y-90623928D01*
X133714914Y-90747542D01*
X133450889Y-90888666D01*
X133310523Y-91190918D01*
X134530000Y-92410395D01*
X134544143Y-92396253D01*
X134723748Y-92575858D01*
X134709605Y-92590000D01*
X135929082Y-93809477D01*
X136231334Y-93669111D01*
X136409168Y-93316462D01*
X136514786Y-92935896D01*
X136544129Y-92542038D01*
X136496072Y-92150022D01*
X136372458Y-91774914D01*
X136294027Y-91628180D01*
X136558085Y-91737557D01*
X136897148Y-91805000D01*
X137242852Y-91805000D01*
X137581915Y-91737557D01*
X137850455Y-91626324D01*
X137730832Y-91863538D01*
X137625214Y-92244104D01*
X137595871Y-92637962D01*
X137643928Y-93029978D01*
X137767542Y-93405086D01*
X137908666Y-93669111D01*
X138210918Y-93809477D01*
X139430395Y-92590000D01*
X139789605Y-92590000D01*
X141009082Y-93809477D01*
X141311334Y-93669111D01*
X141489168Y-93316462D01*
X141594786Y-92935896D01*
X141624129Y-92542038D01*
X141576072Y-92150022D01*
X141452458Y-91774914D01*
X141311334Y-91510889D01*
X141009082Y-91370523D01*
X139789605Y-92590000D01*
X139430395Y-92590000D01*
X139416253Y-92575858D01*
X139595858Y-92396253D01*
X139610000Y-92410395D01*
X140829477Y-91190918D01*
X140689111Y-90888666D01*
X140336462Y-90710832D01*
X139955896Y-90605214D01*
X139562038Y-90575871D01*
X139170022Y-90623928D01*
X138794914Y-90747542D01*
X138648180Y-90825973D01*
X138757557Y-90561915D01*
X138825000Y-90222852D01*
X138825000Y-89877148D01*
X138757557Y-89538085D01*
X138646324Y-89269545D01*
X138883538Y-89389168D01*
X139264104Y-89494786D01*
X139657962Y-89524129D01*
X140049978Y-89476072D01*
X140425086Y-89352458D01*
X140689111Y-89211334D01*
X140829477Y-88909082D01*
X139610000Y-87689605D01*
X139595858Y-87703748D01*
X139416253Y-87524143D01*
X139430395Y-87510000D01*
X139789605Y-87510000D01*
X141009082Y-88729477D01*
X141311334Y-88589111D01*
X141489168Y-88236462D01*
X141594786Y-87855896D01*
X141624129Y-87462038D01*
X141576072Y-87070022D01*
X141452458Y-86694914D01*
X141311334Y-86430889D01*
X141009082Y-86290523D01*
X139789605Y-87510000D01*
X139430395Y-87510000D01*
X138210918Y-86290523D01*
X137908666Y-86430889D01*
X137730832Y-86783538D01*
X137625214Y-87164104D01*
X137595871Y-87557962D01*
X137643928Y-87949978D01*
X137767542Y-88325086D01*
X137845973Y-88471820D01*
X137581915Y-88362443D01*
X137242852Y-88295000D01*
X136897148Y-88295000D01*
X136558085Y-88362443D01*
X136289545Y-88473676D01*
X136409168Y-88236462D01*
X136514786Y-87855896D01*
X136544129Y-87462038D01*
X136496072Y-87070022D01*
X136372458Y-86694914D01*
X136231334Y-86430889D01*
X135929082Y-86290523D01*
X134709605Y-87510000D01*
X134723748Y-87524143D01*
X134544143Y-87703748D01*
X134530000Y-87689605D01*
X133310523Y-88909082D01*
X132242247Y-88909082D01*
X132210226Y-88748102D01*
X132132205Y-88559744D01*
X132018937Y-88390226D01*
X131975000Y-88346289D01*
X131975000Y-87557962D01*
X132515871Y-87557962D01*
X132563928Y-87949978D01*
X132687542Y-88325086D01*
X132828666Y-88589111D01*
X133130918Y-88729477D01*
X134350395Y-87510000D01*
X133130918Y-86290523D01*
X132828666Y-86430889D01*
X132650832Y-86783538D01*
X132545214Y-87164104D01*
X132515871Y-87557962D01*
X131975000Y-87557962D01*
X131975000Y-86110918D01*
X133310523Y-86110918D01*
X134530000Y-87330395D01*
X135749477Y-86110918D01*
X138390523Y-86110918D01*
X139610000Y-87330395D01*
X140829477Y-86110918D01*
X140689111Y-85808666D01*
X140336462Y-85630832D01*
X139955896Y-85525214D01*
X139562038Y-85495871D01*
X139170022Y-85543928D01*
X138794914Y-85667542D01*
X138530889Y-85808666D01*
X138390523Y-86110918D01*
X135749477Y-86110918D01*
X135609111Y-85808666D01*
X135256462Y-85630832D01*
X134875896Y-85525214D01*
X134482038Y-85495871D01*
X134090022Y-85543928D01*
X133714914Y-85667542D01*
X133450889Y-85808666D01*
X133310523Y-86110918D01*
X131975000Y-86110918D01*
X131975000Y-82133711D01*
X132018937Y-82089774D01*
X132132205Y-81920256D01*
X132210226Y-81731898D01*
X132250000Y-81531939D01*
X132250000Y-81328061D01*
X132210226Y-81128102D01*
X132132205Y-80939744D01*
X132018937Y-80770226D01*
X131874774Y-80626063D01*
X131705256Y-80512795D01*
X131516898Y-80434774D01*
X131316939Y-80395000D01*
X131113061Y-80395000D01*
X130913102Y-80434774D01*
X130724744Y-80512795D01*
X130555226Y-80626063D01*
X130411063Y-80770226D01*
X130297795Y-80939744D01*
X130219774Y-81128102D01*
X130180000Y-81328061D01*
X130180000Y-81531939D01*
X130219774Y-81731898D01*
X130297795Y-81920256D01*
X130411063Y-82089774D01*
X130455000Y-82133711D01*
X130455001Y-88346288D01*
X130445000Y-88356289D01*
X130445000Y-86454248D01*
X130428577Y-86287501D01*
X130363676Y-86073553D01*
X130258284Y-85876377D01*
X130116449Y-85703551D01*
X129943623Y-85561716D01*
X129746446Y-85456324D01*
X129532498Y-85391423D01*
X129310000Y-85369509D01*
X129087501Y-85391423D01*
X128873553Y-85456324D01*
X128676377Y-85561716D01*
X128503551Y-85703551D01*
X128421000Y-85804139D01*
X128421000Y-70760000D01*
X132416289Y-70760000D01*
X132460226Y-70803937D01*
X132629744Y-70917205D01*
X132818102Y-70995226D01*
X133018061Y-71035000D01*
X133221939Y-71035000D01*
X133421898Y-70995226D01*
X133610256Y-70917205D01*
X133779774Y-70803937D01*
X133923937Y-70659774D01*
X134037205Y-70490256D01*
X134115226Y-70301898D01*
X134155000Y-70101939D01*
X134155000Y-69898061D01*
X134115226Y-69698102D01*
X134037205Y-69509744D01*
X133923937Y-69340226D01*
X133779774Y-69196063D01*
X133610256Y-69082795D01*
X133421898Y-69004774D01*
X133221939Y-68965000D01*
X133018061Y-68965000D01*
X132851961Y-68998039D01*
X132885000Y-68831939D01*
X132885000Y-68628061D01*
X132845226Y-68428102D01*
X132767205Y-68239744D01*
X132653937Y-68070226D01*
X132509774Y-67926063D01*
X132340256Y-67812795D01*
X132151898Y-67734774D01*
X131951939Y-67695000D01*
X131748061Y-67695000D01*
X131548102Y-67734774D01*
X131359744Y-67812795D01*
X131190226Y-67926063D01*
X131146289Y-67970000D01*
X128421000Y-67970000D01*
X128421000Y-65380000D01*
X158007518Y-65380000D01*
X157634061Y-65629536D01*
X157169536Y-66094061D01*
X156804561Y-66640285D01*
X156553162Y-67247216D01*
X156425000Y-67891531D01*
X156425000Y-68548469D01*
X156553162Y-69192784D01*
X156804561Y-69799715D01*
X157169536Y-70345939D01*
X157634061Y-70810464D01*
X158180285Y-71175439D01*
X158787216Y-71426838D01*
X159431531Y-71555000D01*
X160088469Y-71555000D01*
X160732784Y-71426838D01*
X161339715Y-71175439D01*
X161885939Y-70810464D01*
X162350464Y-70345939D01*
X162600001Y-69972480D01*
X162600001Y-71827876D01*
X161345750Y-71830000D01*
X161187000Y-71988750D01*
X161187000Y-73013000D01*
X161207000Y-73013000D01*
X161207000Y-73267000D01*
X161187000Y-73267000D01*
X161187000Y-74291250D01*
X161345750Y-74450000D01*
X162600001Y-74452124D01*
X162600001Y-77477876D01*
X161345750Y-77480000D01*
X161187000Y-77638750D01*
X161187000Y-78663000D01*
X161207000Y-78663000D01*
X161207000Y-78917000D01*
X161187000Y-78917000D01*
X161187000Y-79941250D01*
X161345750Y-80100000D01*
X162600001Y-80102124D01*
X162600000Y-110467518D01*
X162350464Y-110094061D01*
X161885939Y-109629536D01*
X161339715Y-109264561D01*
X160732784Y-109013162D01*
X160088469Y-108885000D01*
X159431531Y-108885000D01*
X158787216Y-109013162D01*
X158180285Y-109264561D01*
X157634061Y-109629536D01*
X157169536Y-110094061D01*
X156804561Y-110640285D01*
X156553162Y-111247216D01*
X156425000Y-111891531D01*
X156425000Y-112548469D01*
X156553162Y-113192784D01*
X156804561Y-113799715D01*
X157169536Y-114345939D01*
X157634061Y-114810464D01*
X158007518Y-115060000D01*
X115512482Y-115060000D01*
X115885939Y-114810464D01*
X116350464Y-114345939D01*
X116715439Y-113799715D01*
X116966838Y-113192784D01*
X117042978Y-112810000D01*
X121471928Y-112810000D01*
X121484188Y-112934482D01*
X121520498Y-113054180D01*
X121579463Y-113164494D01*
X121658815Y-113261185D01*
X121755506Y-113340537D01*
X121865820Y-113399502D01*
X121985518Y-113435812D01*
X122110000Y-113448072D01*
X122674250Y-113445000D01*
X122833000Y-113286250D01*
X122833000Y-111937000D01*
X121633750Y-111937000D01*
X121475000Y-112095750D01*
X121471928Y-112810000D01*
X117042978Y-112810000D01*
X117095000Y-112548469D01*
X117095000Y-111891531D01*
X116966838Y-111247216D01*
X116785738Y-110810000D01*
X121471928Y-110810000D01*
X121475000Y-111524250D01*
X121633750Y-111683000D01*
X122833000Y-111683000D01*
X122833000Y-110333750D01*
X123087000Y-110333750D01*
X123087000Y-111683000D01*
X123107000Y-111683000D01*
X123107000Y-111937000D01*
X123087000Y-111937000D01*
X123087000Y-113286250D01*
X123245750Y-113445000D01*
X123810000Y-113448072D01*
X123934482Y-113435812D01*
X124054180Y-113399502D01*
X124164494Y-113340537D01*
X124261185Y-113261185D01*
X124340537Y-113164494D01*
X124399502Y-113054180D01*
X124410055Y-113019392D01*
X124630987Y-113200706D01*
X124888967Y-113338599D01*
X125168890Y-113423513D01*
X125460000Y-113452185D01*
X125751111Y-113423513D01*
X126031034Y-113338599D01*
X126289014Y-113200706D01*
X126515134Y-113015134D01*
X126700706Y-112789014D01*
X126769665Y-112660000D01*
X140521928Y-112660000D01*
X140534188Y-112784482D01*
X140570498Y-112904180D01*
X140629463Y-113014494D01*
X140708815Y-113111185D01*
X140805506Y-113190537D01*
X140915820Y-113249502D01*
X141035518Y-113285812D01*
X141160000Y-113298072D01*
X141724250Y-113295000D01*
X141883000Y-113136250D01*
X141883000Y-111937000D01*
X142137000Y-111937000D01*
X142137000Y-113136250D01*
X142295750Y-113295000D01*
X142860000Y-113298072D01*
X142984482Y-113285812D01*
X143104180Y-113249502D01*
X143214494Y-113190537D01*
X143311185Y-113111185D01*
X143390537Y-113014494D01*
X143449502Y-112904180D01*
X143473966Y-112823534D01*
X143549731Y-112907588D01*
X143783080Y-113081641D01*
X144045901Y-113206825D01*
X144193110Y-113251476D01*
X144423000Y-113130155D01*
X144423000Y-111937000D01*
X144677000Y-111937000D01*
X144677000Y-113130155D01*
X144906890Y-113251476D01*
X145054099Y-113206825D01*
X145316920Y-113081641D01*
X145550269Y-112907588D01*
X145745178Y-112691355D01*
X145820000Y-112565745D01*
X145894822Y-112691355D01*
X146089731Y-112907588D01*
X146323080Y-113081641D01*
X146585901Y-113206825D01*
X146733110Y-113251476D01*
X146963000Y-113130155D01*
X146963000Y-111937000D01*
X147217000Y-111937000D01*
X147217000Y-113130155D01*
X147446890Y-113251476D01*
X147594099Y-113206825D01*
X147856920Y-113081641D01*
X148090269Y-112907588D01*
X148285178Y-112691355D01*
X148434157Y-112441252D01*
X148531481Y-112166891D01*
X148410814Y-111937000D01*
X147217000Y-111937000D01*
X146963000Y-111937000D01*
X144677000Y-111937000D01*
X144423000Y-111937000D01*
X142137000Y-111937000D01*
X141883000Y-111937000D01*
X140683750Y-111937000D01*
X140525000Y-112095750D01*
X140521928Y-112660000D01*
X126769665Y-112660000D01*
X126838599Y-112531033D01*
X126923513Y-112251110D01*
X126945000Y-112032949D01*
X126945000Y-111587050D01*
X126923513Y-111368889D01*
X126838599Y-111088966D01*
X126769666Y-110960000D01*
X140521928Y-110960000D01*
X140525000Y-111524250D01*
X140683750Y-111683000D01*
X141883000Y-111683000D01*
X141883000Y-110483750D01*
X142137000Y-110483750D01*
X142137000Y-111683000D01*
X144423000Y-111683000D01*
X144423000Y-110489845D01*
X144677000Y-110489845D01*
X144677000Y-111683000D01*
X146963000Y-111683000D01*
X146963000Y-110489845D01*
X147217000Y-110489845D01*
X147217000Y-111683000D01*
X148410814Y-111683000D01*
X148531481Y-111453109D01*
X148434157Y-111178748D01*
X148285178Y-110928645D01*
X148090269Y-110712412D01*
X147856920Y-110538359D01*
X147594099Y-110413175D01*
X147446890Y-110368524D01*
X147217000Y-110489845D01*
X146963000Y-110489845D01*
X146733110Y-110368524D01*
X146585901Y-110413175D01*
X146323080Y-110538359D01*
X146089731Y-110712412D01*
X145894822Y-110928645D01*
X145820000Y-111054255D01*
X145745178Y-110928645D01*
X145550269Y-110712412D01*
X145316920Y-110538359D01*
X145054099Y-110413175D01*
X144906890Y-110368524D01*
X144677000Y-110489845D01*
X144423000Y-110489845D01*
X144193110Y-110368524D01*
X144045901Y-110413175D01*
X143783080Y-110538359D01*
X143549731Y-110712412D01*
X143473966Y-110796466D01*
X143449502Y-110715820D01*
X143390537Y-110605506D01*
X143311185Y-110508815D01*
X143214494Y-110429463D01*
X143104180Y-110370498D01*
X142984482Y-110334188D01*
X142860000Y-110321928D01*
X142295750Y-110325000D01*
X142137000Y-110483750D01*
X141883000Y-110483750D01*
X141724250Y-110325000D01*
X141160000Y-110321928D01*
X141035518Y-110334188D01*
X140915820Y-110370498D01*
X140805506Y-110429463D01*
X140708815Y-110508815D01*
X140629463Y-110605506D01*
X140570498Y-110715820D01*
X140534188Y-110835518D01*
X140521928Y-110960000D01*
X126769666Y-110960000D01*
X126700706Y-110830986D01*
X126515134Y-110604866D01*
X126289013Y-110419294D01*
X126031033Y-110281401D01*
X125751110Y-110196487D01*
X125460000Y-110167815D01*
X125168889Y-110196487D01*
X124888966Y-110281401D01*
X124630986Y-110419294D01*
X124410055Y-110600608D01*
X124399502Y-110565820D01*
X124340537Y-110455506D01*
X124261185Y-110358815D01*
X124164494Y-110279463D01*
X124054180Y-110220498D01*
X123934482Y-110184188D01*
X123810000Y-110171928D01*
X123245750Y-110175000D01*
X123087000Y-110333750D01*
X122833000Y-110333750D01*
X122674250Y-110175000D01*
X122110000Y-110171928D01*
X121985518Y-110184188D01*
X121865820Y-110220498D01*
X121755506Y-110279463D01*
X121658815Y-110358815D01*
X121579463Y-110455506D01*
X121520498Y-110565820D01*
X121484188Y-110685518D01*
X121471928Y-110810000D01*
X116785738Y-110810000D01*
X116715439Y-110640285D01*
X116350464Y-110094061D01*
X115885939Y-109629536D01*
X115339715Y-109264561D01*
X114732784Y-109013162D01*
X114088469Y-108885000D01*
X113431531Y-108885000D01*
X112787216Y-109013162D01*
X112180285Y-109264561D01*
X111634061Y-109629536D01*
X111169536Y-110094061D01*
X110920000Y-110467518D01*
X110920000Y-102403137D01*
X111715000Y-102403137D01*
X111715000Y-102616863D01*
X111756696Y-102826483D01*
X111838485Y-103023940D01*
X111957225Y-103201647D01*
X112108353Y-103352775D01*
X112286060Y-103471515D01*
X112483517Y-103553304D01*
X112693137Y-103595000D01*
X112906863Y-103595000D01*
X113116483Y-103553304D01*
X113313940Y-103471515D01*
X113491647Y-103352775D01*
X113642775Y-103201647D01*
X113761515Y-103023940D01*
X113843304Y-102826483D01*
X113885000Y-102616863D01*
X113885000Y-102403137D01*
X113843304Y-102193517D01*
X113761515Y-101996060D01*
X113642775Y-101818353D01*
X113491647Y-101667225D01*
X113313940Y-101548485D01*
X113116483Y-101466696D01*
X112906863Y-101425000D01*
X112693137Y-101425000D01*
X112483517Y-101466696D01*
X112286060Y-101548485D01*
X112108353Y-101667225D01*
X111957225Y-101818353D01*
X111838485Y-101996060D01*
X111756696Y-102193517D01*
X111715000Y-102403137D01*
X110920000Y-102403137D01*
X110920000Y-95603137D01*
X111715000Y-95603137D01*
X111715000Y-95816863D01*
X111756696Y-96026483D01*
X111838485Y-96223940D01*
X111957225Y-96401647D01*
X112108353Y-96552775D01*
X112286060Y-96671515D01*
X112483517Y-96753304D01*
X112693137Y-96795000D01*
X112906863Y-96795000D01*
X113116483Y-96753304D01*
X113313940Y-96671515D01*
X113491647Y-96552775D01*
X113642775Y-96401647D01*
X113761515Y-96223940D01*
X113843304Y-96026483D01*
X113885000Y-95816863D01*
X113885000Y-95603137D01*
X113843304Y-95393517D01*
X113761515Y-95196060D01*
X113642775Y-95018353D01*
X113491647Y-94867225D01*
X113313940Y-94748485D01*
X113116483Y-94666696D01*
X112906863Y-94625000D01*
X112693137Y-94625000D01*
X112483517Y-94666696D01*
X112286060Y-94748485D01*
X112108353Y-94867225D01*
X111957225Y-95018353D01*
X111838485Y-95196060D01*
X111756696Y-95393517D01*
X111715000Y-95603137D01*
X110920000Y-95603137D01*
X110920000Y-74130000D01*
X111186928Y-74130000D01*
X111190000Y-74694250D01*
X111348750Y-74853000D01*
X112673000Y-74853000D01*
X112673000Y-73653750D01*
X112514250Y-73495000D01*
X111825000Y-73491928D01*
X111700518Y-73504188D01*
X111580820Y-73540498D01*
X111470506Y-73599463D01*
X111373815Y-73678815D01*
X111294463Y-73775506D01*
X111235498Y-73885820D01*
X111199188Y-74005518D01*
X111186928Y-74130000D01*
X110920000Y-74130000D01*
X110920000Y-69972482D01*
X111169536Y-70345939D01*
X111634061Y-70810464D01*
X112180285Y-71175439D01*
X112787216Y-71426838D01*
X113431531Y-71555000D01*
X114088469Y-71555000D01*
X114732784Y-71426838D01*
X115339715Y-71175439D01*
X115885939Y-70810464D01*
X116350464Y-70345939D01*
X116715439Y-69799715D01*
X116966838Y-69192784D01*
X117095000Y-68548469D01*
X117095000Y-67891531D01*
X116966838Y-67247216D01*
X116715439Y-66640285D01*
X116350464Y-66094061D01*
X115885939Y-65629536D01*
X115512482Y-65380000D01*
X117245000Y-65380000D01*
X117245000Y-69575773D01*
%TA.AperFunction,Conductor*%
D23*
G36*
X117245000Y-69575773D02*
G01*
X117174454Y-69707754D01*
X117130998Y-69851015D01*
X117116324Y-70000000D01*
X117120001Y-70037332D01*
X117120000Y-72085197D01*
X114759007Y-74446192D01*
X114758996Y-74446201D01*
X114352200Y-74852998D01*
X114251252Y-74852998D01*
X114410000Y-74694250D01*
X114413072Y-74130000D01*
X114400812Y-74005518D01*
X114364502Y-73885820D01*
X114305537Y-73775506D01*
X114226185Y-73678815D01*
X114129494Y-73599463D01*
X114019180Y-73540498D01*
X113899482Y-73504188D01*
X113775000Y-73491928D01*
X113085750Y-73495000D01*
X112927000Y-73653750D01*
X112927000Y-74853000D01*
X112947000Y-74853000D01*
X112947000Y-75107000D01*
X112927000Y-75107000D01*
X112927000Y-75127000D01*
X112673000Y-75127000D01*
X112673000Y-75107000D01*
X111348750Y-75107000D01*
X111190000Y-75265750D01*
X111186928Y-75830000D01*
X111199188Y-75954482D01*
X111235498Y-76074180D01*
X111294463Y-76184494D01*
X111373815Y-76281185D01*
X111470506Y-76360537D01*
X111580820Y-76419502D01*
X111615608Y-76430055D01*
X111434294Y-76650986D01*
X111296401Y-76908966D01*
X111211487Y-77188889D01*
X111182815Y-77480000D01*
X111211487Y-77771111D01*
X111296401Y-78051034D01*
X111434294Y-78309014D01*
X111619866Y-78535134D01*
X111845986Y-78720706D01*
X111863374Y-78730000D01*
X111845986Y-78739294D01*
X111619866Y-78924866D01*
X111434294Y-79150986D01*
X111296401Y-79408966D01*
X111211487Y-79688889D01*
X111182815Y-79980000D01*
X111211487Y-80271111D01*
X111296401Y-80551034D01*
X111434294Y-80809014D01*
X111619866Y-81035134D01*
X111845986Y-81220706D01*
X111863374Y-81230000D01*
X111845986Y-81239294D01*
X111619866Y-81424866D01*
X111434294Y-81650986D01*
X111296401Y-81908966D01*
X111211487Y-82188889D01*
X111182815Y-82480000D01*
X111211487Y-82771111D01*
X111296401Y-83051034D01*
X111434294Y-83309014D01*
X111619866Y-83535134D01*
X111845986Y-83720706D01*
X111863374Y-83730000D01*
X111845986Y-83739294D01*
X111619866Y-83924866D01*
X111434294Y-84150986D01*
X111296401Y-84408966D01*
X111211487Y-84688889D01*
X111182815Y-84980000D01*
X111211487Y-85271111D01*
X111296401Y-85551034D01*
X111434294Y-85809014D01*
X111619866Y-86035134D01*
X111845986Y-86220706D01*
X111863374Y-86230000D01*
X111845986Y-86239294D01*
X111619866Y-86424866D01*
X111434294Y-86650986D01*
X111296401Y-86908966D01*
X111211487Y-87188889D01*
X111182815Y-87480000D01*
X111211487Y-87771111D01*
X111296401Y-88051034D01*
X111434294Y-88309014D01*
X111619866Y-88535134D01*
X111845986Y-88720706D01*
X111863374Y-88730000D01*
X111845986Y-88739294D01*
X111619866Y-88924866D01*
X111434294Y-89150986D01*
X111296401Y-89408966D01*
X111211487Y-89688889D01*
X111182815Y-89980000D01*
X111211487Y-90271111D01*
X111296401Y-90551034D01*
X111434294Y-90809014D01*
X111619866Y-91035134D01*
X111845986Y-91220706D01*
X112103966Y-91358599D01*
X112383889Y-91443513D01*
X112602050Y-91465000D01*
X112997950Y-91465000D01*
X113216111Y-91443513D01*
X113496034Y-91358599D01*
X113754014Y-91220706D01*
X113980134Y-91035134D01*
X114165706Y-90809014D01*
X114303599Y-90551034D01*
X114388513Y-90271111D01*
X114417185Y-89980000D01*
X114388513Y-89688889D01*
X114303599Y-89408966D01*
X114165706Y-89150986D01*
X113980134Y-88924866D01*
X113754014Y-88739294D01*
X113736626Y-88730000D01*
X113754014Y-88720706D01*
X113980134Y-88535134D01*
X114165706Y-88309014D01*
X114303599Y-88051034D01*
X114388513Y-87771111D01*
X114417185Y-87480000D01*
X114388513Y-87188889D01*
X114303599Y-86908966D01*
X114165706Y-86650986D01*
X113980134Y-86424866D01*
X113754014Y-86239294D01*
X113736626Y-86230000D01*
X113754014Y-86220706D01*
X113980134Y-86035134D01*
X114165706Y-85809014D01*
X114303599Y-85551034D01*
X114388513Y-85271111D01*
X114417185Y-84980000D01*
X114388513Y-84688889D01*
X114303599Y-84408966D01*
X114165706Y-84150986D01*
X113980134Y-83924866D01*
X113754014Y-83739294D01*
X113736626Y-83730000D01*
X113754014Y-83720706D01*
X113980134Y-83535134D01*
X114165706Y-83309014D01*
X114303599Y-83051034D01*
X114388513Y-82771111D01*
X114417185Y-82480000D01*
X114388513Y-82188889D01*
X114303599Y-81908966D01*
X114165706Y-81650986D01*
X113980134Y-81424866D01*
X113754014Y-81239294D01*
X113736626Y-81230000D01*
X113754014Y-81220706D01*
X113980134Y-81035134D01*
X114165706Y-80809014D01*
X114303599Y-80551034D01*
X114388513Y-80271111D01*
X114417185Y-79980000D01*
X114388513Y-79688889D01*
X114336704Y-79518098D01*
X115813799Y-78041003D01*
X115813804Y-78040997D01*
X117245000Y-76609801D01*
X117245000Y-89050000D01*
X117247440Y-89074776D01*
X117254667Y-89098601D01*
X117266403Y-89120557D01*
X117282197Y-89139803D01*
X117301443Y-89155597D01*
X117323399Y-89167333D01*
X117347224Y-89174560D01*
X117372000Y-89177000D01*
X128175000Y-89177000D01*
X128175001Y-97186000D01*
X112998248Y-97186000D01*
X112831501Y-97202423D01*
X112617553Y-97267324D01*
X112420377Y-97372716D01*
X112247551Y-97514551D01*
X112105716Y-97687377D01*
X112000324Y-97884553D01*
X111935423Y-98098501D01*
X111913509Y-98321000D01*
X111935423Y-98543499D01*
X112000324Y-98757447D01*
X112105716Y-98954623D01*
X112247551Y-99127449D01*
X112420377Y-99269284D01*
X112617553Y-99374676D01*
X112831501Y-99439577D01*
X112998248Y-99456000D01*
X128873249Y-99456000D01*
X128929000Y-99461491D01*
X128984751Y-99456000D01*
X144587869Y-99456000D01*
X146883023Y-101751156D01*
X146918552Y-101794448D01*
X146961844Y-101829977D01*
X146961856Y-101829989D01*
X147091377Y-101936284D01*
X147288553Y-102041676D01*
X147502501Y-102106577D01*
X147725000Y-102128491D01*
X147947499Y-102106577D01*
X148161447Y-102041676D01*
X148358623Y-101936284D01*
X148531449Y-101794449D01*
X148566996Y-101751135D01*
X150902001Y-99416131D01*
X150902001Y-100950668D01*
X150898324Y-100988000D01*
X150912998Y-101136985D01*
X150956454Y-101280246D01*
X151027026Y-101412276D01*
X151071688Y-101466696D01*
X151122000Y-101528001D01*
X151150998Y-101551799D01*
X152405000Y-102805802D01*
X152405000Y-102867939D01*
X152444774Y-103067898D01*
X152522795Y-103256256D01*
X152636063Y-103425774D01*
X152780226Y-103569937D01*
X152949744Y-103683205D01*
X153138102Y-103761226D01*
X153338061Y-103801000D01*
X153541939Y-103801000D01*
X153741898Y-103761226D01*
X153930256Y-103683205D01*
X154099774Y-103569937D01*
X154243937Y-103425774D01*
X154357205Y-103256256D01*
X154435226Y-103067898D01*
X154475000Y-102867939D01*
X154475000Y-102664061D01*
X154435226Y-102464102D01*
X154357205Y-102275744D01*
X154243937Y-102106226D01*
X154099774Y-101962063D01*
X153930256Y-101848795D01*
X153741898Y-101770774D01*
X153541939Y-101731000D01*
X153479802Y-101731000D01*
X152422000Y-100673199D01*
X152422000Y-97500711D01*
X152465937Y-97456774D01*
X152579205Y-97287256D01*
X152657226Y-97098898D01*
X152697000Y-96898939D01*
X152697000Y-96695061D01*
X152657226Y-96495102D01*
X152579205Y-96306744D01*
X152465937Y-96137226D01*
X152422000Y-96093289D01*
X152422000Y-91269801D01*
X152643278Y-91048523D01*
X152649795Y-91064256D01*
X152763063Y-91233774D01*
X152807000Y-91277711D01*
X152807000Y-91425678D01*
X152803324Y-91463000D01*
X152807000Y-91500322D01*
X152807000Y-91500333D01*
X152815830Y-91589974D01*
X152817998Y-91611985D01*
X152861454Y-91755246D01*
X152932026Y-91887276D01*
X152990070Y-91958002D01*
X153027000Y-92003001D01*
X153055998Y-92026799D01*
X155093000Y-94063802D01*
X155093001Y-94569288D01*
X155049063Y-94613226D01*
X154935795Y-94782744D01*
X154857774Y-94971102D01*
X154818000Y-95171061D01*
X154818000Y-95374939D01*
X154857774Y-95574898D01*
X154935795Y-95763256D01*
X155049063Y-95932774D01*
X155193226Y-96076937D01*
X155362744Y-96190205D01*
X155551102Y-96268226D01*
X155751061Y-96308000D01*
X155954939Y-96308000D01*
X156154898Y-96268226D01*
X156343256Y-96190205D01*
X156512774Y-96076937D01*
X156656937Y-95932774D01*
X156770205Y-95763256D01*
X156848226Y-95574898D01*
X156888000Y-95374939D01*
X156888000Y-95171061D01*
X156848226Y-94971102D01*
X156770205Y-94782744D01*
X156656937Y-94613226D01*
X156613000Y-94569289D01*
X156613000Y-93786322D01*
X156616676Y-93748999D01*
X156613000Y-93711676D01*
X156613000Y-93711667D01*
X156602003Y-93600014D01*
X156558546Y-93456753D01*
X156487974Y-93324724D01*
X156393001Y-93208999D01*
X156364004Y-93185202D01*
X154387615Y-91208814D01*
X154484205Y-91064256D01*
X154562226Y-90875898D01*
X154602000Y-90675939D01*
X154602000Y-90472061D01*
X154562226Y-90272102D01*
X154484205Y-90083744D01*
X154370937Y-89914226D01*
X154268711Y-89812000D01*
X154370937Y-89709774D01*
X154484205Y-89540256D01*
X154562226Y-89351898D01*
X154602000Y-89151939D01*
X154602000Y-88948061D01*
X154562226Y-88748102D01*
X154484205Y-88559744D01*
X154370937Y-88390226D01*
X154226774Y-88246063D01*
X154057256Y-88132795D01*
X153868898Y-88054774D01*
X153668939Y-88015000D01*
X153465061Y-88015000D01*
X153265102Y-88054774D01*
X153076744Y-88132795D01*
X152907226Y-88246063D01*
X152763063Y-88390226D01*
X152649795Y-88559744D01*
X152571774Y-88748102D01*
X152532000Y-88948061D01*
X152532000Y-89010198D01*
X151635001Y-89907198D01*
X151635001Y-79465000D01*
X158321928Y-79465000D01*
X158334188Y-79589482D01*
X158370498Y-79709180D01*
X158429463Y-79819494D01*
X158508815Y-79916185D01*
X158605506Y-79995537D01*
X158715820Y-80054502D01*
X158835518Y-80090812D01*
X158960000Y-80103072D01*
X160774250Y-80100000D01*
X160933000Y-79941250D01*
X160933000Y-78917000D01*
X158483750Y-78917000D01*
X158325000Y-79075750D01*
X158321928Y-79465000D01*
X151635001Y-79465000D01*
X151635001Y-78115000D01*
X158321928Y-78115000D01*
X158325000Y-78504250D01*
X158483750Y-78663000D01*
X160933000Y-78663000D01*
X160933000Y-77638750D01*
X160774250Y-77480000D01*
X158960000Y-77476928D01*
X158835518Y-77489188D01*
X158715820Y-77525498D01*
X158605506Y-77584463D01*
X158508815Y-77663815D01*
X158429463Y-77760506D01*
X158370498Y-77870820D01*
X158334188Y-77990518D01*
X158321928Y-78115000D01*
X151635001Y-78115000D01*
X151635001Y-75624753D01*
X151640492Y-75569001D01*
X151618578Y-75346502D01*
X151605153Y-75302246D01*
X151553677Y-75132554D01*
X151448285Y-74935378D01*
X151400000Y-74876543D01*
X151400000Y-74788131D01*
X152373131Y-73815000D01*
X158321928Y-73815000D01*
X158334188Y-73939482D01*
X158370498Y-74059180D01*
X158429463Y-74169494D01*
X158508815Y-74266185D01*
X158605506Y-74345537D01*
X158715820Y-74404502D01*
X158835518Y-74440812D01*
X158960000Y-74453072D01*
X160774250Y-74450000D01*
X160933000Y-74291250D01*
X160933000Y-73267000D01*
X158483750Y-73267000D01*
X158325000Y-73425750D01*
X158321928Y-73815000D01*
X152373131Y-73815000D01*
X153392988Y-72795144D01*
X153499283Y-72665623D01*
X153604675Y-72468447D01*
X153605720Y-72465000D01*
X158321928Y-72465000D01*
X158325000Y-72854250D01*
X158483750Y-73013000D01*
X160933000Y-73013000D01*
X160933000Y-71988750D01*
X160774250Y-71830000D01*
X158960000Y-71826928D01*
X158835518Y-71839188D01*
X158715820Y-71875498D01*
X158605506Y-71934463D01*
X158508815Y-72013815D01*
X158429463Y-72110506D01*
X158370498Y-72220820D01*
X158334188Y-72340518D01*
X158321928Y-72465000D01*
X153605720Y-72465000D01*
X153669577Y-72254500D01*
X153691490Y-72032001D01*
X153669577Y-71809502D01*
X153604675Y-71595554D01*
X153499283Y-71398378D01*
X153357448Y-71225552D01*
X153184622Y-71083717D01*
X152987446Y-70978325D01*
X152773498Y-70913423D01*
X152550999Y-70891510D01*
X152328500Y-70913423D01*
X152114553Y-70978325D01*
X151917377Y-71083717D01*
X151787856Y-71190012D01*
X149501860Y-73476009D01*
X149458552Y-73511551D01*
X149316717Y-73684377D01*
X149211324Y-73881553D01*
X149146423Y-74095501D01*
X149136770Y-74193509D01*
X149124509Y-74318000D01*
X149130000Y-74373751D01*
X149130000Y-75278249D01*
X149124509Y-75334000D01*
X149130000Y-75389751D01*
X149146423Y-75556498D01*
X149211324Y-75770446D01*
X149316716Y-75967623D01*
X149365002Y-76026459D01*
X149365002Y-85072072D01*
X149290937Y-84961226D01*
X149146774Y-84817063D01*
X148977256Y-84703795D01*
X148788898Y-84625774D01*
X148588939Y-84586000D01*
X148385061Y-84586000D01*
X148185102Y-84625774D01*
X147996744Y-84703795D01*
X147827226Y-84817063D01*
X147683063Y-84961226D01*
X147569795Y-85130744D01*
X147491774Y-85319102D01*
X147452000Y-85519061D01*
X147452000Y-85722939D01*
X147491774Y-85922898D01*
X147569795Y-86111256D01*
X147683063Y-86280774D01*
X147727001Y-86324712D01*
X147727000Y-90282677D01*
X147723324Y-90320000D01*
X147727000Y-90357322D01*
X147727000Y-90357332D01*
X147737997Y-90468985D01*
X147762886Y-90551034D01*
X147781454Y-90612246D01*
X147852026Y-90744276D01*
X147885221Y-90784724D01*
X147946999Y-90860001D01*
X147976002Y-90883803D01*
X148341000Y-91248801D01*
X148341000Y-91310939D01*
X148380774Y-91510898D01*
X148458795Y-91699256D01*
X148572063Y-91868774D01*
X148716226Y-92012937D01*
X148885744Y-92126205D01*
X149074102Y-92204226D01*
X149274061Y-92244000D01*
X149365001Y-92244000D01*
X149365001Y-97742867D01*
X147725001Y-99382868D01*
X145899996Y-97557865D01*
X145864449Y-97514551D01*
X145691623Y-97372716D01*
X145494447Y-97267324D01*
X145280499Y-97202423D01*
X145113752Y-97186000D01*
X145113751Y-97186000D01*
X145058000Y-97180509D01*
X145002249Y-97186000D01*
X130445000Y-97186000D01*
X130445000Y-93989082D01*
X133310523Y-93989082D01*
X133450889Y-94291334D01*
X133803538Y-94469168D01*
X134184104Y-94574786D01*
X134577962Y-94604129D01*
X134969978Y-94556072D01*
X135345086Y-94432458D01*
X135609111Y-94291334D01*
X135749477Y-93989082D01*
X138390523Y-93989082D01*
X138530889Y-94291334D01*
X138883538Y-94469168D01*
X139264104Y-94574786D01*
X139657962Y-94604129D01*
X140049978Y-94556072D01*
X140425086Y-94432458D01*
X140689111Y-94291334D01*
X140829477Y-93989082D01*
X139610000Y-92769605D01*
X138390523Y-93989082D01*
X135749477Y-93989082D01*
X134530000Y-92769605D01*
X133310523Y-93989082D01*
X130445000Y-93989082D01*
X130445000Y-92637962D01*
X132515871Y-92637962D01*
X132563928Y-93029978D01*
X132687542Y-93405086D01*
X132828666Y-93669111D01*
X133130918Y-93809477D01*
X134350395Y-92590000D01*
X133130918Y-91370523D01*
X132828666Y-91510889D01*
X132650832Y-91863538D01*
X132545214Y-92244104D01*
X132515871Y-92637962D01*
X130445000Y-92637962D01*
X130445000Y-89743711D01*
X130555226Y-89853937D01*
X130724744Y-89967205D01*
X130913102Y-90045226D01*
X131113061Y-90085000D01*
X131316939Y-90085000D01*
X131516898Y-90045226D01*
X131705256Y-89967205D01*
X131874774Y-89853937D01*
X132018937Y-89709774D01*
X132132205Y-89540256D01*
X132210226Y-89351898D01*
X132250000Y-89151939D01*
X132250000Y-88948061D01*
X132242247Y-88909082D01*
X133310523Y-88909082D01*
X133450889Y-89211334D01*
X133803538Y-89389168D01*
X134184104Y-89494786D01*
X134577962Y-89524129D01*
X134969978Y-89476072D01*
X135345086Y-89352458D01*
X135491820Y-89274027D01*
X135382443Y-89538085D01*
X135315000Y-89877148D01*
X135315000Y-90222852D01*
X135382443Y-90561915D01*
X135493676Y-90830455D01*
X135256462Y-90710832D01*
X134875896Y-90605214D01*
X134482038Y-90575871D01*
X134090022Y-90623928D01*
X133714914Y-90747542D01*
X133450889Y-90888666D01*
X133310523Y-91190918D01*
X134530000Y-92410395D01*
X134544143Y-92396253D01*
X134723748Y-92575858D01*
X134709605Y-92590000D01*
X135929082Y-93809477D01*
X136231334Y-93669111D01*
X136409168Y-93316462D01*
X136514786Y-92935896D01*
X136544129Y-92542038D01*
X136496072Y-92150022D01*
X136372458Y-91774914D01*
X136294027Y-91628180D01*
X136558085Y-91737557D01*
X136897148Y-91805000D01*
X137242852Y-91805000D01*
X137581915Y-91737557D01*
X137850455Y-91626324D01*
X137730832Y-91863538D01*
X137625214Y-92244104D01*
X137595871Y-92637962D01*
X137643928Y-93029978D01*
X137767542Y-93405086D01*
X137908666Y-93669111D01*
X138210918Y-93809477D01*
X139430395Y-92590000D01*
X139789605Y-92590000D01*
X141009082Y-93809477D01*
X141311334Y-93669111D01*
X141489168Y-93316462D01*
X141594786Y-92935896D01*
X141624129Y-92542038D01*
X141576072Y-92150022D01*
X141452458Y-91774914D01*
X141311334Y-91510889D01*
X141009082Y-91370523D01*
X139789605Y-92590000D01*
X139430395Y-92590000D01*
X139416253Y-92575858D01*
X139595858Y-92396253D01*
X139610000Y-92410395D01*
X140829477Y-91190918D01*
X140689111Y-90888666D01*
X140336462Y-90710832D01*
X139955896Y-90605214D01*
X139562038Y-90575871D01*
X139170022Y-90623928D01*
X138794914Y-90747542D01*
X138648180Y-90825973D01*
X138757557Y-90561915D01*
X138825000Y-90222852D01*
X138825000Y-89877148D01*
X138757557Y-89538085D01*
X138646324Y-89269545D01*
X138883538Y-89389168D01*
X139264104Y-89494786D01*
X139657962Y-89524129D01*
X140049978Y-89476072D01*
X140425086Y-89352458D01*
X140689111Y-89211334D01*
X140829477Y-88909082D01*
X139610000Y-87689605D01*
X139595858Y-87703748D01*
X139416253Y-87524143D01*
X139430395Y-87510000D01*
X139789605Y-87510000D01*
X141009082Y-88729477D01*
X141311334Y-88589111D01*
X141489168Y-88236462D01*
X141594786Y-87855896D01*
X141624129Y-87462038D01*
X141576072Y-87070022D01*
X141452458Y-86694914D01*
X141311334Y-86430889D01*
X141009082Y-86290523D01*
X139789605Y-87510000D01*
X139430395Y-87510000D01*
X138210918Y-86290523D01*
X137908666Y-86430889D01*
X137730832Y-86783538D01*
X137625214Y-87164104D01*
X137595871Y-87557962D01*
X137643928Y-87949978D01*
X137767542Y-88325086D01*
X137845973Y-88471820D01*
X137581915Y-88362443D01*
X137242852Y-88295000D01*
X136897148Y-88295000D01*
X136558085Y-88362443D01*
X136289545Y-88473676D01*
X136409168Y-88236462D01*
X136514786Y-87855896D01*
X136544129Y-87462038D01*
X136496072Y-87070022D01*
X136372458Y-86694914D01*
X136231334Y-86430889D01*
X135929082Y-86290523D01*
X134709605Y-87510000D01*
X134723748Y-87524143D01*
X134544143Y-87703748D01*
X134530000Y-87689605D01*
X133310523Y-88909082D01*
X132242247Y-88909082D01*
X132210226Y-88748102D01*
X132132205Y-88559744D01*
X132018937Y-88390226D01*
X131975000Y-88346289D01*
X131975000Y-87557962D01*
X132515871Y-87557962D01*
X132563928Y-87949978D01*
X132687542Y-88325086D01*
X132828666Y-88589111D01*
X133130918Y-88729477D01*
X134350395Y-87510000D01*
X133130918Y-86290523D01*
X132828666Y-86430889D01*
X132650832Y-86783538D01*
X132545214Y-87164104D01*
X132515871Y-87557962D01*
X131975000Y-87557962D01*
X131975000Y-86110918D01*
X133310523Y-86110918D01*
X134530000Y-87330395D01*
X135749477Y-86110918D01*
X138390523Y-86110918D01*
X139610000Y-87330395D01*
X140829477Y-86110918D01*
X140689111Y-85808666D01*
X140336462Y-85630832D01*
X139955896Y-85525214D01*
X139562038Y-85495871D01*
X139170022Y-85543928D01*
X138794914Y-85667542D01*
X138530889Y-85808666D01*
X138390523Y-86110918D01*
X135749477Y-86110918D01*
X135609111Y-85808666D01*
X135256462Y-85630832D01*
X134875896Y-85525214D01*
X134482038Y-85495871D01*
X134090022Y-85543928D01*
X133714914Y-85667542D01*
X133450889Y-85808666D01*
X133310523Y-86110918D01*
X131975000Y-86110918D01*
X131975000Y-82133711D01*
X132018937Y-82089774D01*
X132132205Y-81920256D01*
X132210226Y-81731898D01*
X132250000Y-81531939D01*
X132250000Y-81328061D01*
X132210226Y-81128102D01*
X132132205Y-80939744D01*
X132018937Y-80770226D01*
X131874774Y-80626063D01*
X131705256Y-80512795D01*
X131516898Y-80434774D01*
X131316939Y-80395000D01*
X131113061Y-80395000D01*
X130913102Y-80434774D01*
X130724744Y-80512795D01*
X130555226Y-80626063D01*
X130411063Y-80770226D01*
X130297795Y-80939744D01*
X130219774Y-81128102D01*
X130180000Y-81328061D01*
X130180000Y-81531939D01*
X130219774Y-81731898D01*
X130297795Y-81920256D01*
X130411063Y-82089774D01*
X130455000Y-82133711D01*
X130455001Y-88346288D01*
X130445000Y-88356289D01*
X130445000Y-86454248D01*
X130428577Y-86287501D01*
X130363676Y-86073553D01*
X130258284Y-85876377D01*
X130116449Y-85703551D01*
X129943623Y-85561716D01*
X129746446Y-85456324D01*
X129532498Y-85391423D01*
X129310000Y-85369509D01*
X129087501Y-85391423D01*
X128873553Y-85456324D01*
X128676377Y-85561716D01*
X128503551Y-85703551D01*
X128421000Y-85804139D01*
X128421000Y-70760000D01*
X132416289Y-70760000D01*
X132460226Y-70803937D01*
X132629744Y-70917205D01*
X132818102Y-70995226D01*
X133018061Y-71035000D01*
X133221939Y-71035000D01*
X133421898Y-70995226D01*
X133610256Y-70917205D01*
X133779774Y-70803937D01*
X133923937Y-70659774D01*
X134037205Y-70490256D01*
X134115226Y-70301898D01*
X134155000Y-70101939D01*
X134155000Y-69898061D01*
X134115226Y-69698102D01*
X134037205Y-69509744D01*
X133923937Y-69340226D01*
X133779774Y-69196063D01*
X133610256Y-69082795D01*
X133421898Y-69004774D01*
X133221939Y-68965000D01*
X133018061Y-68965000D01*
X132851961Y-68998039D01*
X132885000Y-68831939D01*
X132885000Y-68628061D01*
X132845226Y-68428102D01*
X132767205Y-68239744D01*
X132653937Y-68070226D01*
X132509774Y-67926063D01*
X132340256Y-67812795D01*
X132151898Y-67734774D01*
X131951939Y-67695000D01*
X131748061Y-67695000D01*
X131548102Y-67734774D01*
X131359744Y-67812795D01*
X131190226Y-67926063D01*
X131146289Y-67970000D01*
X128421000Y-67970000D01*
X128421000Y-65380000D01*
X158007518Y-65380000D01*
X157634061Y-65629536D01*
X157169536Y-66094061D01*
X156804561Y-66640285D01*
X156553162Y-67247216D01*
X156425000Y-67891531D01*
X156425000Y-68548469D01*
X156553162Y-69192784D01*
X156804561Y-69799715D01*
X157169536Y-70345939D01*
X157634061Y-70810464D01*
X158180285Y-71175439D01*
X158787216Y-71426838D01*
X159431531Y-71555000D01*
X160088469Y-71555000D01*
X160732784Y-71426838D01*
X161339715Y-71175439D01*
X161885939Y-70810464D01*
X162350464Y-70345939D01*
X162600001Y-69972480D01*
X162600001Y-71827876D01*
X161345750Y-71830000D01*
X161187000Y-71988750D01*
X161187000Y-73013000D01*
X161207000Y-73013000D01*
X161207000Y-73267000D01*
X161187000Y-73267000D01*
X161187000Y-74291250D01*
X161345750Y-74450000D01*
X162600001Y-74452124D01*
X162600001Y-77477876D01*
X161345750Y-77480000D01*
X161187000Y-77638750D01*
X161187000Y-78663000D01*
X161207000Y-78663000D01*
X161207000Y-78917000D01*
X161187000Y-78917000D01*
X161187000Y-79941250D01*
X161345750Y-80100000D01*
X162600001Y-80102124D01*
X162600000Y-110467518D01*
X162350464Y-110094061D01*
X161885939Y-109629536D01*
X161339715Y-109264561D01*
X160732784Y-109013162D01*
X160088469Y-108885000D01*
X159431531Y-108885000D01*
X158787216Y-109013162D01*
X158180285Y-109264561D01*
X157634061Y-109629536D01*
X157169536Y-110094061D01*
X156804561Y-110640285D01*
X156553162Y-111247216D01*
X156425000Y-111891531D01*
X156425000Y-112548469D01*
X156553162Y-113192784D01*
X156804561Y-113799715D01*
X157169536Y-114345939D01*
X157634061Y-114810464D01*
X158007518Y-115060000D01*
X115512482Y-115060000D01*
X115885939Y-114810464D01*
X116350464Y-114345939D01*
X116715439Y-113799715D01*
X116966838Y-113192784D01*
X117042978Y-112810000D01*
X121471928Y-112810000D01*
X121484188Y-112934482D01*
X121520498Y-113054180D01*
X121579463Y-113164494D01*
X121658815Y-113261185D01*
X121755506Y-113340537D01*
X121865820Y-113399502D01*
X121985518Y-113435812D01*
X122110000Y-113448072D01*
X122674250Y-113445000D01*
X122833000Y-113286250D01*
X122833000Y-111937000D01*
X121633750Y-111937000D01*
X121475000Y-112095750D01*
X121471928Y-112810000D01*
X117042978Y-112810000D01*
X117095000Y-112548469D01*
X117095000Y-111891531D01*
X116966838Y-111247216D01*
X116785738Y-110810000D01*
X121471928Y-110810000D01*
X121475000Y-111524250D01*
X121633750Y-111683000D01*
X122833000Y-111683000D01*
X122833000Y-110333750D01*
X123087000Y-110333750D01*
X123087000Y-111683000D01*
X123107000Y-111683000D01*
X123107000Y-111937000D01*
X123087000Y-111937000D01*
X123087000Y-113286250D01*
X123245750Y-113445000D01*
X123810000Y-113448072D01*
X123934482Y-113435812D01*
X124054180Y-113399502D01*
X124164494Y-113340537D01*
X124261185Y-113261185D01*
X124340537Y-113164494D01*
X124399502Y-113054180D01*
X124410055Y-113019392D01*
X124630987Y-113200706D01*
X124888967Y-113338599D01*
X125168890Y-113423513D01*
X125460000Y-113452185D01*
X125751111Y-113423513D01*
X126031034Y-113338599D01*
X126289014Y-113200706D01*
X126515134Y-113015134D01*
X126700706Y-112789014D01*
X126769665Y-112660000D01*
X140521928Y-112660000D01*
X140534188Y-112784482D01*
X140570498Y-112904180D01*
X140629463Y-113014494D01*
X140708815Y-113111185D01*
X140805506Y-113190537D01*
X140915820Y-113249502D01*
X141035518Y-113285812D01*
X141160000Y-113298072D01*
X141724250Y-113295000D01*
X141883000Y-113136250D01*
X141883000Y-111937000D01*
X142137000Y-111937000D01*
X142137000Y-113136250D01*
X142295750Y-113295000D01*
X142860000Y-113298072D01*
X142984482Y-113285812D01*
X143104180Y-113249502D01*
X143214494Y-113190537D01*
X143311185Y-113111185D01*
X143390537Y-113014494D01*
X143449502Y-112904180D01*
X143473966Y-112823534D01*
X143549731Y-112907588D01*
X143783080Y-113081641D01*
X144045901Y-113206825D01*
X144193110Y-113251476D01*
X144423000Y-113130155D01*
X144423000Y-111937000D01*
X144677000Y-111937000D01*
X144677000Y-113130155D01*
X144906890Y-113251476D01*
X145054099Y-113206825D01*
X145316920Y-113081641D01*
X145550269Y-112907588D01*
X145745178Y-112691355D01*
X145820000Y-112565745D01*
X145894822Y-112691355D01*
X146089731Y-112907588D01*
X146323080Y-113081641D01*
X146585901Y-113206825D01*
X146733110Y-113251476D01*
X146963000Y-113130155D01*
X146963000Y-111937000D01*
X147217000Y-111937000D01*
X147217000Y-113130155D01*
X147446890Y-113251476D01*
X147594099Y-113206825D01*
X147856920Y-113081641D01*
X148090269Y-112907588D01*
X148285178Y-112691355D01*
X148434157Y-112441252D01*
X148531481Y-112166891D01*
X148410814Y-111937000D01*
X147217000Y-111937000D01*
X146963000Y-111937000D01*
X144677000Y-111937000D01*
X144423000Y-111937000D01*
X142137000Y-111937000D01*
X141883000Y-111937000D01*
X140683750Y-111937000D01*
X140525000Y-112095750D01*
X140521928Y-112660000D01*
X126769665Y-112660000D01*
X126838599Y-112531033D01*
X126923513Y-112251110D01*
X126945000Y-112032949D01*
X126945000Y-111587050D01*
X126923513Y-111368889D01*
X126838599Y-111088966D01*
X126769666Y-110960000D01*
X140521928Y-110960000D01*
X140525000Y-111524250D01*
X140683750Y-111683000D01*
X141883000Y-111683000D01*
X141883000Y-110483750D01*
X142137000Y-110483750D01*
X142137000Y-111683000D01*
X144423000Y-111683000D01*
X144423000Y-110489845D01*
X144677000Y-110489845D01*
X144677000Y-111683000D01*
X146963000Y-111683000D01*
X146963000Y-110489845D01*
X147217000Y-110489845D01*
X147217000Y-111683000D01*
X148410814Y-111683000D01*
X148531481Y-111453109D01*
X148434157Y-111178748D01*
X148285178Y-110928645D01*
X148090269Y-110712412D01*
X147856920Y-110538359D01*
X147594099Y-110413175D01*
X147446890Y-110368524D01*
X147217000Y-110489845D01*
X146963000Y-110489845D01*
X146733110Y-110368524D01*
X146585901Y-110413175D01*
X146323080Y-110538359D01*
X146089731Y-110712412D01*
X145894822Y-110928645D01*
X145820000Y-111054255D01*
X145745178Y-110928645D01*
X145550269Y-110712412D01*
X145316920Y-110538359D01*
X145054099Y-110413175D01*
X144906890Y-110368524D01*
X144677000Y-110489845D01*
X144423000Y-110489845D01*
X144193110Y-110368524D01*
X144045901Y-110413175D01*
X143783080Y-110538359D01*
X143549731Y-110712412D01*
X143473966Y-110796466D01*
X143449502Y-110715820D01*
X143390537Y-110605506D01*
X143311185Y-110508815D01*
X143214494Y-110429463D01*
X143104180Y-110370498D01*
X142984482Y-110334188D01*
X142860000Y-110321928D01*
X142295750Y-110325000D01*
X142137000Y-110483750D01*
X141883000Y-110483750D01*
X141724250Y-110325000D01*
X141160000Y-110321928D01*
X141035518Y-110334188D01*
X140915820Y-110370498D01*
X140805506Y-110429463D01*
X140708815Y-110508815D01*
X140629463Y-110605506D01*
X140570498Y-110715820D01*
X140534188Y-110835518D01*
X140521928Y-110960000D01*
X126769666Y-110960000D01*
X126700706Y-110830986D01*
X126515134Y-110604866D01*
X126289013Y-110419294D01*
X126031033Y-110281401D01*
X125751110Y-110196487D01*
X125460000Y-110167815D01*
X125168889Y-110196487D01*
X124888966Y-110281401D01*
X124630986Y-110419294D01*
X124410055Y-110600608D01*
X124399502Y-110565820D01*
X124340537Y-110455506D01*
X124261185Y-110358815D01*
X124164494Y-110279463D01*
X124054180Y-110220498D01*
X123934482Y-110184188D01*
X123810000Y-110171928D01*
X123245750Y-110175000D01*
X123087000Y-110333750D01*
X122833000Y-110333750D01*
X122674250Y-110175000D01*
X122110000Y-110171928D01*
X121985518Y-110184188D01*
X121865820Y-110220498D01*
X121755506Y-110279463D01*
X121658815Y-110358815D01*
X121579463Y-110455506D01*
X121520498Y-110565820D01*
X121484188Y-110685518D01*
X121471928Y-110810000D01*
X116785738Y-110810000D01*
X116715439Y-110640285D01*
X116350464Y-110094061D01*
X115885939Y-109629536D01*
X115339715Y-109264561D01*
X114732784Y-109013162D01*
X114088469Y-108885000D01*
X113431531Y-108885000D01*
X112787216Y-109013162D01*
X112180285Y-109264561D01*
X111634061Y-109629536D01*
X111169536Y-110094061D01*
X110920000Y-110467518D01*
X110920000Y-102403137D01*
X111715000Y-102403137D01*
X111715000Y-102616863D01*
X111756696Y-102826483D01*
X111838485Y-103023940D01*
X111957225Y-103201647D01*
X112108353Y-103352775D01*
X112286060Y-103471515D01*
X112483517Y-103553304D01*
X112693137Y-103595000D01*
X112906863Y-103595000D01*
X113116483Y-103553304D01*
X113313940Y-103471515D01*
X113491647Y-103352775D01*
X113642775Y-103201647D01*
X113761515Y-103023940D01*
X113843304Y-102826483D01*
X113885000Y-102616863D01*
X113885000Y-102403137D01*
X113843304Y-102193517D01*
X113761515Y-101996060D01*
X113642775Y-101818353D01*
X113491647Y-101667225D01*
X113313940Y-101548485D01*
X113116483Y-101466696D01*
X112906863Y-101425000D01*
X112693137Y-101425000D01*
X112483517Y-101466696D01*
X112286060Y-101548485D01*
X112108353Y-101667225D01*
X111957225Y-101818353D01*
X111838485Y-101996060D01*
X111756696Y-102193517D01*
X111715000Y-102403137D01*
X110920000Y-102403137D01*
X110920000Y-95603137D01*
X111715000Y-95603137D01*
X111715000Y-95816863D01*
X111756696Y-96026483D01*
X111838485Y-96223940D01*
X111957225Y-96401647D01*
X112108353Y-96552775D01*
X112286060Y-96671515D01*
X112483517Y-96753304D01*
X112693137Y-96795000D01*
X112906863Y-96795000D01*
X113116483Y-96753304D01*
X113313940Y-96671515D01*
X113491647Y-96552775D01*
X113642775Y-96401647D01*
X113761515Y-96223940D01*
X113843304Y-96026483D01*
X113885000Y-95816863D01*
X113885000Y-95603137D01*
X113843304Y-95393517D01*
X113761515Y-95196060D01*
X113642775Y-95018353D01*
X113491647Y-94867225D01*
X113313940Y-94748485D01*
X113116483Y-94666696D01*
X112906863Y-94625000D01*
X112693137Y-94625000D01*
X112483517Y-94666696D01*
X112286060Y-94748485D01*
X112108353Y-94867225D01*
X111957225Y-95018353D01*
X111838485Y-95196060D01*
X111756696Y-95393517D01*
X111715000Y-95603137D01*
X110920000Y-95603137D01*
X110920000Y-74130000D01*
X111186928Y-74130000D01*
X111190000Y-74694250D01*
X111348750Y-74853000D01*
X112673000Y-74853000D01*
X112673000Y-73653750D01*
X112514250Y-73495000D01*
X111825000Y-73491928D01*
X111700518Y-73504188D01*
X111580820Y-73540498D01*
X111470506Y-73599463D01*
X111373815Y-73678815D01*
X111294463Y-73775506D01*
X111235498Y-73885820D01*
X111199188Y-74005518D01*
X111186928Y-74130000D01*
X110920000Y-74130000D01*
X110920000Y-69972482D01*
X111169536Y-70345939D01*
X111634061Y-70810464D01*
X112180285Y-71175439D01*
X112787216Y-71426838D01*
X113431531Y-71555000D01*
X114088469Y-71555000D01*
X114732784Y-71426838D01*
X115339715Y-71175439D01*
X115885939Y-70810464D01*
X116350464Y-70345939D01*
X116715439Y-69799715D01*
X116966838Y-69192784D01*
X117095000Y-68548469D01*
X117095000Y-67891531D01*
X116966838Y-67247216D01*
X116715439Y-66640285D01*
X116350464Y-66094061D01*
X115885939Y-65629536D01*
X115512482Y-65380000D01*
X117245000Y-65380000D01*
X117245000Y-69575773D01*
G37*
%TD.AperFunction*%
%TD*%
M02*
