%TF.GenerationSoftware,KiCad,Pcbnew,5.1.9+dfsg1-1*%
%TF.CreationDate,2021-06-01T22:56:34+02:00*%
%TF.ProjectId,SDR-RX,5344522d-5258-42e6-9b69-6361645f7063,rev?*%
%TF.SameCoordinates,Original*%
%TF.FileFunction,Legend,Bot*%
%TF.FilePolarity,Positive*%
%FSLAX46Y46*%
G04 Gerber Fmt 4.6, Leading zero omitted, Abs format (unit mm)*
G04 Created by KiCad (PCBNEW 5.1.9+dfsg1-1) date 2021-06-01 22:56:34*
%MOMM*%
%LPD*%
G01*
G04 APERTURE LIST*
%ADD10C,0.225000*%
%ADD11C,0.381000*%
%ADD12C,0.010000*%
G04 APERTURE END LIST*
D10*
X121470250Y-87188571D02*
X121470250Y-85688571D01*
X121470250Y-86402857D02*
X120613107Y-86402857D01*
X120613107Y-87188571D02*
X120613107Y-85688571D01*
X119398821Y-86402857D02*
X119184535Y-86474285D01*
X119113107Y-86545714D01*
X119041678Y-86688571D01*
X119041678Y-86902857D01*
X119113107Y-87045714D01*
X119184535Y-87117142D01*
X119327392Y-87188571D01*
X119898821Y-87188571D01*
X119898821Y-85688571D01*
X119398821Y-85688571D01*
X119255964Y-85760000D01*
X119184535Y-85831428D01*
X119113107Y-85974285D01*
X119113107Y-86117142D01*
X119184535Y-86260000D01*
X119255964Y-86331428D01*
X119398821Y-86402857D01*
X119898821Y-86402857D01*
X118327392Y-87188571D02*
X118041678Y-87188571D01*
X117898821Y-87117142D01*
X117827392Y-87045714D01*
X117684535Y-86831428D01*
X117613107Y-86545714D01*
X117613107Y-85974285D01*
X117684535Y-85831428D01*
X117755964Y-85760000D01*
X117898821Y-85688571D01*
X118184535Y-85688571D01*
X118327392Y-85760000D01*
X118398821Y-85831428D01*
X118470250Y-85974285D01*
X118470250Y-86331428D01*
X118398821Y-86474285D01*
X118327392Y-86545714D01*
X118184535Y-86617142D01*
X117898821Y-86617142D01*
X117755964Y-86545714D01*
X117684535Y-86474285D01*
X117613107Y-86331428D01*
X116970250Y-85688571D02*
X116970250Y-86902857D01*
X116898821Y-87045714D01*
X116827392Y-87117142D01*
X116684535Y-87188571D01*
X116398821Y-87188571D01*
X116255964Y-87117142D01*
X116184535Y-87045714D01*
X116113107Y-86902857D01*
X116113107Y-85688571D01*
X114898821Y-86402857D02*
X115398821Y-86402857D01*
X115398821Y-87188571D02*
X115398821Y-85688571D01*
X114684535Y-85688571D01*
X160628035Y-104929642D02*
X160413750Y-105001071D01*
X160056607Y-105001071D01*
X159913750Y-104929642D01*
X159842321Y-104858214D01*
X159770892Y-104715357D01*
X159770892Y-104572500D01*
X159842321Y-104429642D01*
X159913750Y-104358214D01*
X160056607Y-104286785D01*
X160342321Y-104215357D01*
X160485178Y-104143928D01*
X160556607Y-104072500D01*
X160628035Y-103929642D01*
X160628035Y-103786785D01*
X160556607Y-103643928D01*
X160485178Y-103572500D01*
X160342321Y-103501071D01*
X159985178Y-103501071D01*
X159770892Y-103572500D01*
X159128035Y-105001071D02*
X159128035Y-103501071D01*
X158770892Y-103501071D01*
X158556607Y-103572500D01*
X158413750Y-103715357D01*
X158342321Y-103858214D01*
X158270892Y-104143928D01*
X158270892Y-104358214D01*
X158342321Y-104643928D01*
X158413750Y-104786785D01*
X158556607Y-104929642D01*
X158770892Y-105001071D01*
X159128035Y-105001071D01*
X156770892Y-105001071D02*
X157270892Y-104286785D01*
X157628035Y-105001071D02*
X157628035Y-103501071D01*
X157056607Y-103501071D01*
X156913750Y-103572500D01*
X156842321Y-103643928D01*
X156770892Y-103786785D01*
X156770892Y-104001071D01*
X156842321Y-104143928D01*
X156913750Y-104215357D01*
X157056607Y-104286785D01*
X157628035Y-104286785D01*
X156128035Y-104429642D02*
X154985178Y-104429642D01*
X153413750Y-105001071D02*
X153913750Y-104286785D01*
X154270892Y-105001071D02*
X154270892Y-103501071D01*
X153699464Y-103501071D01*
X153556607Y-103572500D01*
X153485178Y-103643928D01*
X153413750Y-103786785D01*
X153413750Y-104001071D01*
X153485178Y-104143928D01*
X153556607Y-104215357D01*
X153699464Y-104286785D01*
X154270892Y-104286785D01*
X152913750Y-103501071D02*
X151913750Y-105001071D01*
X151913750Y-103501071D02*
X152913750Y-105001071D01*
X151342321Y-104429642D02*
X150199464Y-104429642D01*
X149485178Y-105001071D02*
X149485178Y-103501071D01*
X148913750Y-103501071D01*
X148770892Y-103572500D01*
X148699464Y-103643928D01*
X148628035Y-103786785D01*
X148628035Y-104001071D01*
X148699464Y-104143928D01*
X148770892Y-104215357D01*
X148913750Y-104286785D01*
X149485178Y-104286785D01*
X147128035Y-104858214D02*
X147199464Y-104929642D01*
X147413750Y-105001071D01*
X147556607Y-105001071D01*
X147770892Y-104929642D01*
X147913750Y-104786785D01*
X147985178Y-104643928D01*
X148056607Y-104358214D01*
X148056607Y-104143928D01*
X147985178Y-103858214D01*
X147913750Y-103715357D01*
X147770892Y-103572500D01*
X147556607Y-103501071D01*
X147413750Y-103501071D01*
X147199464Y-103572500D01*
X147128035Y-103643928D01*
X145985178Y-104215357D02*
X145770892Y-104286785D01*
X145699464Y-104358214D01*
X145628035Y-104501071D01*
X145628035Y-104715357D01*
X145699464Y-104858214D01*
X145770892Y-104929642D01*
X145913750Y-105001071D01*
X146485178Y-105001071D01*
X146485178Y-103501071D01*
X145985178Y-103501071D01*
X145842321Y-103572500D01*
X145770892Y-103643928D01*
X145699464Y-103786785D01*
X145699464Y-103929642D01*
X145770892Y-104072500D01*
X145842321Y-104143928D01*
X145985178Y-104215357D01*
X146485178Y-104215357D01*
X144056607Y-103501071D02*
X143556607Y-105001071D01*
X143056607Y-103501071D01*
X141770892Y-105001071D02*
X142628035Y-105001071D01*
X142199464Y-105001071D02*
X142199464Y-103501071D01*
X142342321Y-103715357D01*
X142485178Y-103858214D01*
X142628035Y-103929642D01*
X141056607Y-104929642D02*
X141056607Y-105001071D01*
X141128035Y-105143928D01*
X141199464Y-105215357D01*
X139270892Y-105001071D02*
X139270892Y-104001071D01*
X139270892Y-104286785D02*
X139199464Y-104143928D01*
X139128035Y-104072500D01*
X138985178Y-104001071D01*
X138842321Y-104001071D01*
X137699464Y-105001071D02*
X137699464Y-104215357D01*
X137770892Y-104072500D01*
X137913750Y-104001071D01*
X138199464Y-104001071D01*
X138342321Y-104072500D01*
X137699464Y-104929642D02*
X137842321Y-105001071D01*
X138199464Y-105001071D01*
X138342321Y-104929642D01*
X138413750Y-104786785D01*
X138413750Y-104643928D01*
X138342321Y-104501071D01*
X138199464Y-104429642D01*
X137842321Y-104429642D01*
X137699464Y-104358214D01*
X136342321Y-105001071D02*
X136342321Y-103501071D01*
X136342321Y-104929642D02*
X136485178Y-105001071D01*
X136770892Y-105001071D01*
X136913750Y-104929642D01*
X136985178Y-104858214D01*
X137056607Y-104715357D01*
X137056607Y-104286785D01*
X136985178Y-104143928D01*
X136913750Y-104072500D01*
X136770892Y-104001071D01*
X136485178Y-104001071D01*
X136342321Y-104072500D01*
X135628035Y-105001071D02*
X135628035Y-104001071D01*
X135628035Y-103501071D02*
X135699464Y-103572500D01*
X135628035Y-103643928D01*
X135556607Y-103572500D01*
X135628035Y-103501071D01*
X135628035Y-103643928D01*
X134270892Y-105001071D02*
X134270892Y-104215357D01*
X134342321Y-104072500D01*
X134485178Y-104001071D01*
X134770892Y-104001071D01*
X134913750Y-104072500D01*
X134270892Y-104929642D02*
X134413750Y-105001071D01*
X134770892Y-105001071D01*
X134913750Y-104929642D01*
X134985178Y-104786785D01*
X134985178Y-104643928D01*
X134913750Y-104501071D01*
X134770892Y-104429642D01*
X134413750Y-104429642D01*
X134270892Y-104358214D01*
X133770892Y-104001071D02*
X133199464Y-104001071D01*
X133556607Y-103501071D02*
X133556607Y-104786785D01*
X133485178Y-104929642D01*
X133342321Y-105001071D01*
X133199464Y-105001071D01*
X132699464Y-105001071D02*
X132699464Y-104001071D01*
X132699464Y-103501071D02*
X132770892Y-103572500D01*
X132699464Y-103643928D01*
X132628035Y-103572500D01*
X132699464Y-103501071D01*
X132699464Y-103643928D01*
X131770892Y-105001071D02*
X131913750Y-104929642D01*
X131985178Y-104858214D01*
X132056607Y-104715357D01*
X132056607Y-104286785D01*
X131985178Y-104143928D01*
X131913750Y-104072500D01*
X131770892Y-104001071D01*
X131556607Y-104001071D01*
X131413750Y-104072500D01*
X131342321Y-104143928D01*
X131270892Y-104286785D01*
X131270892Y-104715357D01*
X131342321Y-104858214D01*
X131413750Y-104929642D01*
X131556607Y-105001071D01*
X131770892Y-105001071D01*
X130628035Y-104001071D02*
X130628035Y-105001071D01*
X130628035Y-104143928D02*
X130556607Y-104072500D01*
X130413750Y-104001071D01*
X130199464Y-104001071D01*
X130056607Y-104072500D01*
X129985178Y-104215357D01*
X129985178Y-105001071D01*
X129628035Y-105143928D02*
X128485178Y-105143928D01*
X128128035Y-104001071D02*
X128128035Y-105501071D01*
X128128035Y-104072500D02*
X127985178Y-104001071D01*
X127699464Y-104001071D01*
X127556607Y-104072500D01*
X127485178Y-104143928D01*
X127413750Y-104286785D01*
X127413750Y-104715357D01*
X127485178Y-104858214D01*
X127556607Y-104929642D01*
X127699464Y-105001071D01*
X127985178Y-105001071D01*
X128128035Y-104929642D01*
X126128035Y-105001071D02*
X126128035Y-104215357D01*
X126199464Y-104072500D01*
X126342321Y-104001071D01*
X126628035Y-104001071D01*
X126770892Y-104072500D01*
X126128035Y-104929642D02*
X126270892Y-105001071D01*
X126628035Y-105001071D01*
X126770892Y-104929642D01*
X126842321Y-104786785D01*
X126842321Y-104643928D01*
X126770892Y-104501071D01*
X126628035Y-104429642D01*
X126270892Y-104429642D01*
X126128035Y-104358214D01*
X125628035Y-104001071D02*
X125056607Y-104001071D01*
X125413750Y-103501071D02*
X125413750Y-104786785D01*
X125342321Y-104929642D01*
X125199464Y-105001071D01*
X125056607Y-105001071D01*
X124770892Y-104001071D02*
X124199464Y-104001071D01*
X124556607Y-103501071D02*
X124556607Y-104786785D01*
X124485178Y-104929642D01*
X124342321Y-105001071D01*
X124199464Y-105001071D01*
X123128035Y-104929642D02*
X123270892Y-105001071D01*
X123556607Y-105001071D01*
X123699464Y-104929642D01*
X123770892Y-104786785D01*
X123770892Y-104215357D01*
X123699464Y-104072500D01*
X123556607Y-104001071D01*
X123270892Y-104001071D01*
X123128035Y-104072500D01*
X123056607Y-104215357D01*
X123056607Y-104358214D01*
X123770892Y-104501071D01*
X122413750Y-105001071D02*
X122413750Y-104001071D01*
X122413750Y-104286785D02*
X122342321Y-104143928D01*
X122270892Y-104072500D01*
X122128035Y-104001071D01*
X121985178Y-104001071D01*
X121485178Y-104001071D02*
X121485178Y-105001071D01*
X121485178Y-104143928D02*
X121413750Y-104072500D01*
X121270892Y-104001071D01*
X121056607Y-104001071D01*
X120913750Y-104072500D01*
X120842321Y-104215357D01*
X120842321Y-105001071D01*
X120485178Y-105143928D02*
X119342321Y-105143928D01*
X118342321Y-105001071D02*
X118342321Y-103501071D01*
X118342321Y-104929642D02*
X118485178Y-105001071D01*
X118770892Y-105001071D01*
X118913750Y-104929642D01*
X118985178Y-104858214D01*
X119056607Y-104715357D01*
X119056607Y-104286785D01*
X118985178Y-104143928D01*
X118913750Y-104072500D01*
X118770892Y-104001071D01*
X118485178Y-104001071D01*
X118342321Y-104072500D01*
X117628035Y-105001071D02*
X117628035Y-104001071D01*
X117628035Y-104286785D02*
X117556607Y-104143928D01*
X117485178Y-104072500D01*
X117342321Y-104001071D01*
X117199464Y-104001071D01*
X116485178Y-105001071D02*
X116628035Y-104929642D01*
X116699464Y-104858214D01*
X116770892Y-104715357D01*
X116770892Y-104286785D01*
X116699464Y-104143928D01*
X116628035Y-104072500D01*
X116485178Y-104001071D01*
X116270892Y-104001071D01*
X116128035Y-104072500D01*
X116056607Y-104143928D01*
X115985178Y-104286785D01*
X115985178Y-104715357D01*
X116056607Y-104858214D01*
X116128035Y-104929642D01*
X116270892Y-105001071D01*
X116485178Y-105001071D01*
X115342321Y-104001071D02*
X115342321Y-105001071D01*
X115342321Y-104143928D02*
X115270892Y-104072500D01*
X115128035Y-104001071D01*
X114913750Y-104001071D01*
X114770892Y-104072500D01*
X114699464Y-104215357D01*
X114699464Y-105001071D01*
X113413750Y-104929642D02*
X113556607Y-105001071D01*
X113842321Y-105001071D01*
X113985178Y-104929642D01*
X114056607Y-104786785D01*
X114056607Y-104215357D01*
X113985178Y-104072500D01*
X113842321Y-104001071D01*
X113556607Y-104001071D01*
X113413750Y-104072500D01*
X113342321Y-104215357D01*
X113342321Y-104358214D01*
X114056607Y-104501071D01*
X160128035Y-108047500D02*
X160199464Y-107976071D01*
X160342321Y-107761785D01*
X160413750Y-107618928D01*
X160485178Y-107404642D01*
X160556607Y-107047500D01*
X160556607Y-106761785D01*
X160485178Y-106404642D01*
X160413750Y-106190357D01*
X160342321Y-106047500D01*
X160199464Y-105833214D01*
X160128035Y-105761785D01*
X158913750Y-107404642D02*
X159056607Y-107476071D01*
X159342321Y-107476071D01*
X159485178Y-107404642D01*
X159556607Y-107333214D01*
X159628035Y-107190357D01*
X159628035Y-106761785D01*
X159556607Y-106618928D01*
X159485178Y-106547500D01*
X159342321Y-106476071D01*
X159056607Y-106476071D01*
X158913750Y-106547500D01*
X158413750Y-108047500D02*
X158342321Y-107976071D01*
X158199464Y-107761785D01*
X158128035Y-107618928D01*
X158056607Y-107404642D01*
X157985178Y-107047500D01*
X157985178Y-106761785D01*
X158056607Y-106404642D01*
X158128035Y-106190357D01*
X158199464Y-106047500D01*
X158342321Y-105833214D01*
X158413750Y-105761785D01*
X156199464Y-106118928D02*
X156128035Y-106047500D01*
X155985178Y-105976071D01*
X155628035Y-105976071D01*
X155485178Y-106047500D01*
X155413750Y-106118928D01*
X155342321Y-106261785D01*
X155342321Y-106404642D01*
X155413750Y-106618928D01*
X156270892Y-107476071D01*
X155342321Y-107476071D01*
X154413750Y-105976071D02*
X154270892Y-105976071D01*
X154128035Y-106047500D01*
X154056607Y-106118928D01*
X153985178Y-106261785D01*
X153913750Y-106547500D01*
X153913750Y-106904642D01*
X153985178Y-107190357D01*
X154056607Y-107333214D01*
X154128035Y-107404642D01*
X154270892Y-107476071D01*
X154413750Y-107476071D01*
X154556607Y-107404642D01*
X154628035Y-107333214D01*
X154699464Y-107190357D01*
X154770892Y-106904642D01*
X154770892Y-106547500D01*
X154699464Y-106261785D01*
X154628035Y-106118928D01*
X154556607Y-106047500D01*
X154413750Y-105976071D01*
X153342321Y-106118928D02*
X153270892Y-106047500D01*
X153128035Y-105976071D01*
X152770892Y-105976071D01*
X152628035Y-106047500D01*
X152556607Y-106118928D01*
X152485178Y-106261785D01*
X152485178Y-106404642D01*
X152556607Y-106618928D01*
X153413750Y-107476071D01*
X152485178Y-107476071D01*
X151056607Y-107476071D02*
X151913750Y-107476071D01*
X151485178Y-107476071D02*
X151485178Y-105976071D01*
X151628035Y-106190357D01*
X151770892Y-106333214D01*
X151913750Y-106404642D01*
X149270892Y-107476071D02*
X149270892Y-105976071D01*
X148913750Y-105976071D01*
X148699464Y-106047500D01*
X148556607Y-106190357D01*
X148485178Y-106333214D01*
X148413750Y-106618928D01*
X148413750Y-106833214D01*
X148485178Y-107118928D01*
X148556607Y-107261785D01*
X148699464Y-107404642D01*
X148913750Y-107476071D01*
X149270892Y-107476071D01*
X147128035Y-107476071D02*
X147128035Y-106690357D01*
X147199464Y-106547500D01*
X147342321Y-106476071D01*
X147628035Y-106476071D01*
X147770892Y-106547500D01*
X147128035Y-107404642D02*
X147270892Y-107476071D01*
X147628035Y-107476071D01*
X147770892Y-107404642D01*
X147842321Y-107261785D01*
X147842321Y-107118928D01*
X147770892Y-106976071D01*
X147628035Y-106904642D01*
X147270892Y-106904642D01*
X147128035Y-106833214D01*
X146413750Y-106476071D02*
X146413750Y-107476071D01*
X146413750Y-106618928D02*
X146342321Y-106547500D01*
X146199464Y-106476071D01*
X145985178Y-106476071D01*
X145842321Y-106547500D01*
X145770892Y-106690357D01*
X145770892Y-107476071D01*
X145056607Y-107476071D02*
X145056607Y-106476071D01*
X145056607Y-105976071D02*
X145128035Y-106047500D01*
X145056607Y-106118928D01*
X144985178Y-106047500D01*
X145056607Y-105976071D01*
X145056607Y-106118928D01*
X143770892Y-107404642D02*
X143913750Y-107476071D01*
X144199464Y-107476071D01*
X144342321Y-107404642D01*
X144413750Y-107261785D01*
X144413750Y-106690357D01*
X144342321Y-106547500D01*
X144199464Y-106476071D01*
X143913750Y-106476071D01*
X143770892Y-106547500D01*
X143699464Y-106690357D01*
X143699464Y-106833214D01*
X144413750Y-106976071D01*
X142842321Y-107476071D02*
X142985178Y-107404642D01*
X143056607Y-107261785D01*
X143056607Y-105976071D01*
X141128035Y-107476071D02*
X141128035Y-105976071D01*
X141128035Y-106690357D02*
X140270892Y-106690357D01*
X140270892Y-107476071D02*
X140270892Y-105976071D01*
X139056607Y-106690357D02*
X138842321Y-106761785D01*
X138770892Y-106833214D01*
X138699464Y-106976071D01*
X138699464Y-107190357D01*
X138770892Y-107333214D01*
X138842321Y-107404642D01*
X138985178Y-107476071D01*
X139556607Y-107476071D01*
X139556607Y-105976071D01*
X139056607Y-105976071D01*
X138913750Y-106047500D01*
X138842321Y-106118928D01*
X138770892Y-106261785D01*
X138770892Y-106404642D01*
X138842321Y-106547500D01*
X138913750Y-106618928D01*
X139056607Y-106690357D01*
X139556607Y-106690357D01*
X137985178Y-107476071D02*
X137699464Y-107476071D01*
X137556607Y-107404642D01*
X137485178Y-107333214D01*
X137342321Y-107118928D01*
X137270892Y-106833214D01*
X137270892Y-106261785D01*
X137342321Y-106118928D01*
X137413750Y-106047500D01*
X137556607Y-105976071D01*
X137842321Y-105976071D01*
X137985178Y-106047500D01*
X138056607Y-106118928D01*
X138128035Y-106261785D01*
X138128035Y-106618928D01*
X138056607Y-106761785D01*
X137985178Y-106833214D01*
X137842321Y-106904642D01*
X137556607Y-106904642D01*
X137413750Y-106833214D01*
X137342321Y-106761785D01*
X137270892Y-106618928D01*
X135842321Y-106047500D02*
X135985178Y-105976071D01*
X136199464Y-105976071D01*
X136413750Y-106047500D01*
X136556607Y-106190357D01*
X136628035Y-106333214D01*
X136699464Y-106618928D01*
X136699464Y-106833214D01*
X136628035Y-107118928D01*
X136556607Y-107261785D01*
X136413750Y-107404642D01*
X136199464Y-107476071D01*
X136056607Y-107476071D01*
X135842321Y-107404642D01*
X135770892Y-107333214D01*
X135770892Y-106833214D01*
X136056607Y-106833214D01*
X135342321Y-105976071D02*
X134842321Y-107476071D01*
X134342321Y-105976071D01*
X133842321Y-107476071D02*
X133842321Y-105976071D01*
X133485178Y-105976071D01*
X133270892Y-106047500D01*
X133128035Y-106190357D01*
X133056607Y-106333214D01*
X132985178Y-106618928D01*
X132985178Y-106833214D01*
X133056607Y-107118928D01*
X133128035Y-107261785D01*
X133270892Y-107404642D01*
X133485178Y-107476071D01*
X133842321Y-107476071D01*
X130342321Y-107333214D02*
X130413750Y-107404642D01*
X130628035Y-107476071D01*
X130770892Y-107476071D01*
X130985178Y-107404642D01*
X131128035Y-107261785D01*
X131199464Y-107118928D01*
X131270892Y-106833214D01*
X131270892Y-106618928D01*
X131199464Y-106333214D01*
X131128035Y-106190357D01*
X130985178Y-106047500D01*
X130770892Y-105976071D01*
X130628035Y-105976071D01*
X130413750Y-106047500D01*
X130342321Y-106118928D01*
X128842321Y-107333214D02*
X128913750Y-107404642D01*
X129128035Y-107476071D01*
X129270892Y-107476071D01*
X129485178Y-107404642D01*
X129628035Y-107261785D01*
X129699464Y-107118928D01*
X129770892Y-106833214D01*
X129770892Y-106618928D01*
X129699464Y-106333214D01*
X129628035Y-106190357D01*
X129485178Y-106047500D01*
X129270892Y-105976071D01*
X129128035Y-105976071D01*
X128913750Y-106047500D01*
X128842321Y-106118928D01*
X128199464Y-106904642D02*
X127056607Y-106904642D01*
X125842321Y-106690357D02*
X125628035Y-106761785D01*
X125556607Y-106833214D01*
X125485178Y-106976071D01*
X125485178Y-107190357D01*
X125556607Y-107333214D01*
X125628035Y-107404642D01*
X125770892Y-107476071D01*
X126342321Y-107476071D01*
X126342321Y-105976071D01*
X125842321Y-105976071D01*
X125699464Y-106047500D01*
X125628035Y-106118928D01*
X125556607Y-106261785D01*
X125556607Y-106404642D01*
X125628035Y-106547500D01*
X125699464Y-106618928D01*
X125842321Y-106690357D01*
X126342321Y-106690357D01*
X124556607Y-106761785D02*
X124556607Y-107476071D01*
X125056607Y-105976071D02*
X124556607Y-106761785D01*
X124056607Y-105976071D01*
X123556607Y-106904642D02*
X122413750Y-106904642D01*
X121770892Y-107404642D02*
X121556607Y-107476071D01*
X121199464Y-107476071D01*
X121056607Y-107404642D01*
X120985178Y-107333214D01*
X120913750Y-107190357D01*
X120913750Y-107047500D01*
X120985178Y-106904642D01*
X121056607Y-106833214D01*
X121199464Y-106761785D01*
X121485178Y-106690357D01*
X121628035Y-106618928D01*
X121699464Y-106547500D01*
X121770892Y-106404642D01*
X121770892Y-106261785D01*
X121699464Y-106118928D01*
X121628035Y-106047500D01*
X121485178Y-105976071D01*
X121128035Y-105976071D01*
X120913750Y-106047500D01*
X120342321Y-107047500D02*
X119628035Y-107047500D01*
X120485178Y-107476071D02*
X119985178Y-105976071D01*
X119485178Y-107476071D01*
D11*
%TO.C,OSHW*%
X121291220Y-97327860D02*
X120930540Y-98798520D01*
X120930540Y-98798520D02*
X120651140Y-97736800D01*
X120651140Y-97736800D02*
X120341260Y-98808680D01*
X120341260Y-98808680D02*
X120000900Y-97358340D01*
X122711080Y-98018740D02*
X121921140Y-98008580D01*
X121921140Y-98008580D02*
X121910980Y-98018740D01*
X121910980Y-98018740D02*
X121910980Y-98008580D01*
X121870340Y-97297380D02*
X121870340Y-98839160D01*
X122759340Y-97287220D02*
X122759340Y-98856940D01*
X122759340Y-98856940D02*
X122749180Y-98846780D01*
X123310520Y-97388820D02*
X123661040Y-97307540D01*
X123661040Y-97307540D02*
X123981080Y-97297380D01*
X123981080Y-97297380D02*
X124219840Y-97498040D01*
X124219840Y-97498040D02*
X124250320Y-97767280D01*
X124250320Y-97767280D02*
X124009020Y-98008580D01*
X124009020Y-98008580D02*
X123620400Y-98138120D01*
X123620400Y-98138120D02*
X123440060Y-98298140D01*
X123440060Y-98298140D02*
X123399420Y-98597860D01*
X123399420Y-98597860D02*
X123630560Y-98818840D01*
X123630560Y-98818840D02*
X123950600Y-98846780D01*
X123950600Y-98846780D02*
X124301120Y-98737560D01*
X125339980Y-97287220D02*
X125588900Y-97307540D01*
X125588900Y-97307540D02*
X125830200Y-97548840D01*
X125830200Y-97548840D02*
X125919100Y-98039060D01*
X125919100Y-98039060D02*
X125891160Y-98387040D01*
X125891160Y-98387040D02*
X125690500Y-98707080D01*
X125690500Y-98707080D02*
X125439040Y-98829000D01*
X125439040Y-98829000D02*
X125129160Y-98757880D01*
X125129160Y-98757880D02*
X124910720Y-98577540D01*
X124910720Y-98577540D02*
X124839600Y-98117800D01*
X124839600Y-98117800D02*
X124890400Y-97708860D01*
X124890400Y-97708860D02*
X124999620Y-97426920D01*
X124999620Y-97426920D02*
X125360300Y-97297380D01*
X124740540Y-95567640D02*
X124999620Y-96128980D01*
X124999620Y-96128980D02*
X124461140Y-96647140D01*
X124461140Y-96647140D02*
X123940440Y-96377900D01*
X123940440Y-96377900D02*
X123661040Y-96537920D01*
X122220860Y-96517600D02*
X121890660Y-96327100D01*
X121890660Y-96327100D02*
X121451240Y-96657300D01*
X121451240Y-96657300D02*
X120978800Y-96167080D01*
X120978800Y-96167080D02*
X121260740Y-95687020D01*
X121260740Y-95687020D02*
X121070240Y-95217120D01*
X121070240Y-95217120D02*
X120460640Y-95029160D01*
X120460640Y-95029160D02*
X120460640Y-94348440D01*
X120460640Y-94348440D02*
X121019440Y-94208740D01*
X121019440Y-94208740D02*
X121220100Y-93637240D01*
X121220100Y-93637240D02*
X120950860Y-93167340D01*
X120950860Y-93167340D02*
X121420760Y-92656800D01*
X121420760Y-92656800D02*
X121938920Y-92918420D01*
X121938920Y-92918420D02*
X122408820Y-92717760D01*
X122408820Y-92717760D02*
X122579000Y-92176740D01*
X122579000Y-92176740D02*
X123269880Y-92158960D01*
X123269880Y-92158960D02*
X123480700Y-92707600D01*
X123480700Y-92707600D02*
X123899800Y-92877780D01*
X123899800Y-92877780D02*
X124450980Y-92608540D01*
X124450980Y-92608540D02*
X124969140Y-93136860D01*
X124969140Y-93136860D02*
X124720220Y-93677880D01*
X124720220Y-93677880D02*
X124890400Y-94157940D01*
X124890400Y-94157940D02*
X125439040Y-94257000D01*
X125439040Y-94257000D02*
X125449200Y-94958040D01*
X125449200Y-94958040D02*
X124890400Y-95158700D01*
X124890400Y-95158700D02*
X124750700Y-95557480D01*
X122609480Y-95537160D02*
X122309760Y-95387300D01*
X122309760Y-95387300D02*
X122109100Y-95189180D01*
X122109100Y-95189180D02*
X121959240Y-94787860D01*
X121959240Y-94787860D02*
X121959240Y-94389080D01*
X121959240Y-94389080D02*
X122109100Y-94038560D01*
X122109100Y-94038560D02*
X122561220Y-93688040D01*
X122561220Y-93688040D02*
X123010800Y-93637240D01*
X123010800Y-93637240D02*
X123409580Y-93738840D01*
X123409580Y-93738840D02*
X123810900Y-94086820D01*
X123810900Y-94086820D02*
X123960760Y-94538940D01*
X123960760Y-94538940D02*
X123909960Y-95036780D01*
X123909960Y-95036780D02*
X123661040Y-95339040D01*
X123661040Y-95339040D02*
X123310520Y-95537160D01*
X123310520Y-95537160D02*
X123661040Y-96537920D01*
X122609480Y-95537160D02*
X122210700Y-96537920D01*
D12*
%TO.C,G\u002A\u002A\u002A*%
G36*
X122865385Y-69144171D02*
G01*
X122793746Y-69202977D01*
X122757535Y-69272918D01*
X122756800Y-69283000D01*
X122782825Y-69341967D01*
X122843405Y-69406122D01*
X122912299Y-69450793D01*
X122943067Y-69458133D01*
X123003162Y-69435714D01*
X123061600Y-69390400D01*
X123111762Y-69324282D01*
X123129333Y-69274286D01*
X123099833Y-69200099D01*
X123028271Y-69141387D01*
X122945897Y-69119466D01*
X122865385Y-69144171D01*
G37*
X122865385Y-69144171D02*
X122793746Y-69202977D01*
X122757535Y-69272918D01*
X122756800Y-69283000D01*
X122782825Y-69341967D01*
X122843405Y-69406122D01*
X122912299Y-69450793D01*
X122943067Y-69458133D01*
X123003162Y-69435714D01*
X123061600Y-69390400D01*
X123111762Y-69324282D01*
X123129333Y-69274286D01*
X123099833Y-69200099D01*
X123028271Y-69141387D01*
X122945897Y-69119466D01*
X122865385Y-69144171D01*
G36*
X123495694Y-71567908D02*
G01*
X123492133Y-71869409D01*
X123487769Y-72110925D01*
X123481212Y-72300204D01*
X123471073Y-72444991D01*
X123455961Y-72553033D01*
X123434487Y-72632077D01*
X123405262Y-72689869D01*
X123366895Y-72734156D01*
X123317996Y-72772683D01*
X123274285Y-72801995D01*
X123168530Y-72842562D01*
X123025046Y-72862013D01*
X122870430Y-72860340D01*
X122731277Y-72837536D01*
X122645949Y-72802148D01*
X122593796Y-72765377D01*
X122552074Y-72725691D01*
X122519582Y-72675476D01*
X122495121Y-72607120D01*
X122477491Y-72513007D01*
X122465490Y-72385524D01*
X122457920Y-72217059D01*
X122453579Y-71999996D01*
X122451268Y-71726723D01*
X122450479Y-71562112D01*
X122446307Y-70575733D01*
X122181067Y-70575733D01*
X122181067Y-71500920D01*
X122182119Y-71817739D01*
X122186050Y-72074902D01*
X122194023Y-72280467D01*
X122207199Y-72442489D01*
X122226740Y-72569026D01*
X122253810Y-72668132D01*
X122289568Y-72747865D01*
X122335179Y-72816281D01*
X122378076Y-72866681D01*
X122467937Y-72950030D01*
X122563788Y-73018260D01*
X122579427Y-73026909D01*
X122702638Y-73069031D01*
X122860749Y-73094748D01*
X123022221Y-73100851D01*
X123151677Y-73085137D01*
X123353502Y-73000437D01*
X123528320Y-72861810D01*
X123573033Y-72810933D01*
X123629457Y-72731470D01*
X123674489Y-72643106D01*
X123709333Y-72537543D01*
X123735189Y-72406485D01*
X123753261Y-72241634D01*
X123764750Y-72034691D01*
X123770859Y-71777360D01*
X123772790Y-71461343D01*
X123772800Y-71432218D01*
X123772800Y-70575733D01*
X123506455Y-70575733D01*
X123495694Y-71567908D01*
G37*
X123495694Y-71567908D02*
X123492133Y-71869409D01*
X123487769Y-72110925D01*
X123481212Y-72300204D01*
X123471073Y-72444991D01*
X123455961Y-72553033D01*
X123434487Y-72632077D01*
X123405262Y-72689869D01*
X123366895Y-72734156D01*
X123317996Y-72772683D01*
X123274285Y-72801995D01*
X123168530Y-72842562D01*
X123025046Y-72862013D01*
X122870430Y-72860340D01*
X122731277Y-72837536D01*
X122645949Y-72802148D01*
X122593796Y-72765377D01*
X122552074Y-72725691D01*
X122519582Y-72675476D01*
X122495121Y-72607120D01*
X122477491Y-72513007D01*
X122465490Y-72385524D01*
X122457920Y-72217059D01*
X122453579Y-71999996D01*
X122451268Y-71726723D01*
X122450479Y-71562112D01*
X122446307Y-70575733D01*
X122181067Y-70575733D01*
X122181067Y-71500920D01*
X122182119Y-71817739D01*
X122186050Y-72074902D01*
X122194023Y-72280467D01*
X122207199Y-72442489D01*
X122226740Y-72569026D01*
X122253810Y-72668132D01*
X122289568Y-72747865D01*
X122335179Y-72816281D01*
X122378076Y-72866681D01*
X122467937Y-72950030D01*
X122563788Y-73018260D01*
X122579427Y-73026909D01*
X122702638Y-73069031D01*
X122860749Y-73094748D01*
X123022221Y-73100851D01*
X123151677Y-73085137D01*
X123353502Y-73000437D01*
X123528320Y-72861810D01*
X123573033Y-72810933D01*
X123629457Y-72731470D01*
X123674489Y-72643106D01*
X123709333Y-72537543D01*
X123735189Y-72406485D01*
X123753261Y-72241634D01*
X123764750Y-72034691D01*
X123770859Y-71777360D01*
X123772790Y-71461343D01*
X123772800Y-71432218D01*
X123772800Y-70575733D01*
X123506455Y-70575733D01*
X123495694Y-71567908D01*
G36*
X120920297Y-76510867D02*
G01*
X120916178Y-76747325D01*
X120909019Y-76926213D01*
X120894734Y-77047597D01*
X120869240Y-77111545D01*
X120828449Y-77118123D01*
X120768277Y-77067400D01*
X120684637Y-76959443D01*
X120573445Y-76794318D01*
X120430616Y-76572094D01*
X120397058Y-76519494D01*
X120281736Y-76338999D01*
X120178975Y-76178698D01*
X120094243Y-76047075D01*
X120033004Y-75952612D01*
X120000725Y-75903792D01*
X119997262Y-75899039D01*
X119959578Y-75894450D01*
X119883781Y-75898590D01*
X119880946Y-75898878D01*
X119775648Y-75909733D01*
X120097824Y-76391807D01*
X120204271Y-76554868D01*
X120295885Y-76702429D01*
X120366377Y-76823771D01*
X120409459Y-76908176D01*
X120420000Y-76940939D01*
X120416993Y-76972075D01*
X120405022Y-77012257D01*
X120379667Y-77070374D01*
X120336504Y-77155315D01*
X120271112Y-77275971D01*
X120179069Y-77441231D01*
X120110185Y-77563765D01*
X120048880Y-77673801D01*
X120003044Y-77758321D01*
X119980706Y-77802454D01*
X119979734Y-77805402D01*
X119964087Y-77837200D01*
X119922176Y-77913989D01*
X119861544Y-78022067D01*
X119827585Y-78081770D01*
X119760255Y-78202236D01*
X119708123Y-78300438D01*
X119678859Y-78361695D01*
X119675185Y-78373533D01*
X119704643Y-78390811D01*
X119776746Y-78398858D01*
X119785221Y-78398933D01*
X119825695Y-78396850D01*
X119860611Y-78385145D01*
X119896027Y-78355632D01*
X119938002Y-78300126D01*
X119992593Y-78210443D01*
X120065858Y-78078396D01*
X120163856Y-77895801D01*
X120180003Y-77865533D01*
X120296862Y-77648094D01*
X120387659Y-77483928D01*
X120457044Y-77365939D01*
X120509671Y-77287030D01*
X120550192Y-77240108D01*
X120583260Y-77218074D01*
X120607447Y-77213600D01*
X120647419Y-77238888D01*
X120712379Y-77305191D01*
X120788281Y-77398170D01*
X120788465Y-77398413D01*
X120928000Y-77583227D01*
X120928000Y-78398933D01*
X121131200Y-78398933D01*
X121131200Y-75892800D01*
X120929528Y-75892800D01*
X120920297Y-76510867D01*
G37*
X120920297Y-76510867D02*
X120916178Y-76747325D01*
X120909019Y-76926213D01*
X120894734Y-77047597D01*
X120869240Y-77111545D01*
X120828449Y-77118123D01*
X120768277Y-77067400D01*
X120684637Y-76959443D01*
X120573445Y-76794318D01*
X120430616Y-76572094D01*
X120397058Y-76519494D01*
X120281736Y-76338999D01*
X120178975Y-76178698D01*
X120094243Y-76047075D01*
X120033004Y-75952612D01*
X120000725Y-75903792D01*
X119997262Y-75899039D01*
X119959578Y-75894450D01*
X119883781Y-75898590D01*
X119880946Y-75898878D01*
X119775648Y-75909733D01*
X120097824Y-76391807D01*
X120204271Y-76554868D01*
X120295885Y-76702429D01*
X120366377Y-76823771D01*
X120409459Y-76908176D01*
X120420000Y-76940939D01*
X120416993Y-76972075D01*
X120405022Y-77012257D01*
X120379667Y-77070374D01*
X120336504Y-77155315D01*
X120271112Y-77275971D01*
X120179069Y-77441231D01*
X120110185Y-77563765D01*
X120048880Y-77673801D01*
X120003044Y-77758321D01*
X119980706Y-77802454D01*
X119979734Y-77805402D01*
X119964087Y-77837200D01*
X119922176Y-77913989D01*
X119861544Y-78022067D01*
X119827585Y-78081770D01*
X119760255Y-78202236D01*
X119708123Y-78300438D01*
X119678859Y-78361695D01*
X119675185Y-78373533D01*
X119704643Y-78390811D01*
X119776746Y-78398858D01*
X119785221Y-78398933D01*
X119825695Y-78396850D01*
X119860611Y-78385145D01*
X119896027Y-78355632D01*
X119938002Y-78300126D01*
X119992593Y-78210443D01*
X120065858Y-78078396D01*
X120163856Y-77895801D01*
X120180003Y-77865533D01*
X120296862Y-77648094D01*
X120387659Y-77483928D01*
X120457044Y-77365939D01*
X120509671Y-77287030D01*
X120550192Y-77240108D01*
X120583260Y-77218074D01*
X120607447Y-77213600D01*
X120647419Y-77238888D01*
X120712379Y-77305191D01*
X120788281Y-77398170D01*
X120788465Y-77398413D01*
X120928000Y-77583227D01*
X120928000Y-78398933D01*
X121131200Y-78398933D01*
X121131200Y-75892800D01*
X120929528Y-75892800D01*
X120920297Y-76510867D01*
G36*
X125456866Y-75842714D02*
G01*
X125276542Y-75913183D01*
X125123170Y-76035027D01*
X125007960Y-76205610D01*
X125005345Y-76211164D01*
X124950827Y-76336157D01*
X124930091Y-76413108D01*
X124944007Y-76453171D01*
X124993444Y-76467503D01*
X125025412Y-76468533D01*
X125101882Y-76455529D01*
X125150850Y-76403962D01*
X125173207Y-76356885D01*
X125245460Y-76242039D01*
X125352632Y-76135592D01*
X125470326Y-76059668D01*
X125521589Y-76041005D01*
X125686581Y-76029705D01*
X125848896Y-76070467D01*
X125982516Y-76156573D01*
X125987254Y-76161223D01*
X126045007Y-76225800D01*
X126076436Y-76288635D01*
X126089471Y-76374071D01*
X126092016Y-76482651D01*
X126078717Y-76645331D01*
X126030918Y-76762540D01*
X125938474Y-76847156D01*
X125791237Y-76912056D01*
X125741357Y-76927696D01*
X125520084Y-76993489D01*
X125354357Y-77044060D01*
X125234736Y-77083283D01*
X125151782Y-77115031D01*
X125096054Y-77143179D01*
X125058113Y-77171601D01*
X125028519Y-77204170D01*
X125010658Y-77227561D01*
X124912891Y-77412054D01*
X124865649Y-77624199D01*
X124869902Y-77845476D01*
X124926619Y-78057365D01*
X124963256Y-78133617D01*
X125081502Y-78281919D01*
X125244030Y-78395033D01*
X125433396Y-78465650D01*
X125632151Y-78486462D01*
X125762955Y-78468638D01*
X125954271Y-78387392D01*
X126115276Y-78251125D01*
X126223971Y-78089758D01*
X126286650Y-77951441D01*
X126310394Y-77860702D01*
X126295060Y-77809595D01*
X126240508Y-77790175D01*
X126218623Y-77789333D01*
X126155343Y-77799193D01*
X126113430Y-77840343D01*
X126075396Y-77930137D01*
X126074689Y-77932162D01*
X125991182Y-78076911D01*
X125863536Y-78181461D01*
X125705589Y-78240633D01*
X125531183Y-78249246D01*
X125354155Y-78202122D01*
X125353821Y-78201974D01*
X125208365Y-78105451D01*
X125117346Y-77968634D01*
X125080747Y-77791493D01*
X125080096Y-77772400D01*
X125092521Y-77616035D01*
X125141831Y-77491986D01*
X125235175Y-77393488D01*
X125379706Y-77313776D01*
X125582573Y-77246086D01*
X125656748Y-77226898D01*
X125861981Y-77168757D01*
X126011739Y-77106237D01*
X126118223Y-77032221D01*
X126193635Y-76939591D01*
X126215057Y-76901239D01*
X126273241Y-76728524D01*
X126289174Y-76537109D01*
X126266002Y-76344548D01*
X126206871Y-76168396D01*
X126114929Y-76026206D01*
X126047427Y-75965950D01*
X125853520Y-75866460D01*
X125652930Y-75826261D01*
X125456866Y-75842714D01*
G37*
X125456866Y-75842714D02*
X125276542Y-75913183D01*
X125123170Y-76035027D01*
X125007960Y-76205610D01*
X125005345Y-76211164D01*
X124950827Y-76336157D01*
X124930091Y-76413108D01*
X124944007Y-76453171D01*
X124993444Y-76467503D01*
X125025412Y-76468533D01*
X125101882Y-76455529D01*
X125150850Y-76403962D01*
X125173207Y-76356885D01*
X125245460Y-76242039D01*
X125352632Y-76135592D01*
X125470326Y-76059668D01*
X125521589Y-76041005D01*
X125686581Y-76029705D01*
X125848896Y-76070467D01*
X125982516Y-76156573D01*
X125987254Y-76161223D01*
X126045007Y-76225800D01*
X126076436Y-76288635D01*
X126089471Y-76374071D01*
X126092016Y-76482651D01*
X126078717Y-76645331D01*
X126030918Y-76762540D01*
X125938474Y-76847156D01*
X125791237Y-76912056D01*
X125741357Y-76927696D01*
X125520084Y-76993489D01*
X125354357Y-77044060D01*
X125234736Y-77083283D01*
X125151782Y-77115031D01*
X125096054Y-77143179D01*
X125058113Y-77171601D01*
X125028519Y-77204170D01*
X125010658Y-77227561D01*
X124912891Y-77412054D01*
X124865649Y-77624199D01*
X124869902Y-77845476D01*
X124926619Y-78057365D01*
X124963256Y-78133617D01*
X125081502Y-78281919D01*
X125244030Y-78395033D01*
X125433396Y-78465650D01*
X125632151Y-78486462D01*
X125762955Y-78468638D01*
X125954271Y-78387392D01*
X126115276Y-78251125D01*
X126223971Y-78089758D01*
X126286650Y-77951441D01*
X126310394Y-77860702D01*
X126295060Y-77809595D01*
X126240508Y-77790175D01*
X126218623Y-77789333D01*
X126155343Y-77799193D01*
X126113430Y-77840343D01*
X126075396Y-77930137D01*
X126074689Y-77932162D01*
X125991182Y-78076911D01*
X125863536Y-78181461D01*
X125705589Y-78240633D01*
X125531183Y-78249246D01*
X125354155Y-78202122D01*
X125353821Y-78201974D01*
X125208365Y-78105451D01*
X125117346Y-77968634D01*
X125080747Y-77791493D01*
X125080096Y-77772400D01*
X125092521Y-77616035D01*
X125141831Y-77491986D01*
X125235175Y-77393488D01*
X125379706Y-77313776D01*
X125582573Y-77246086D01*
X125656748Y-77226898D01*
X125861981Y-77168757D01*
X126011739Y-77106237D01*
X126118223Y-77032221D01*
X126193635Y-76939591D01*
X126215057Y-76901239D01*
X126273241Y-76728524D01*
X126289174Y-76537109D01*
X126266002Y-76344548D01*
X126206871Y-76168396D01*
X126114929Y-76026206D01*
X126047427Y-75965950D01*
X125853520Y-75866460D01*
X125652930Y-75826261D01*
X125456866Y-75842714D01*
G36*
X122553600Y-74031196D02*
G01*
X122551618Y-74227364D01*
X122545225Y-74363086D01*
X122533750Y-74445548D01*
X122516522Y-74481933D01*
X122511267Y-74484663D01*
X122286026Y-74563925D01*
X122109006Y-74661924D01*
X121976388Y-74773453D01*
X121926237Y-74823108D01*
X121882720Y-74868111D01*
X121845368Y-74913395D01*
X121813710Y-74963895D01*
X121787277Y-75024543D01*
X121765598Y-75100272D01*
X121748204Y-75196017D01*
X121734624Y-75316709D01*
X121724389Y-75467283D01*
X121717029Y-75652672D01*
X121712073Y-75877809D01*
X121709052Y-76147627D01*
X121707496Y-76467060D01*
X121706935Y-76841041D01*
X121706898Y-77274504D01*
X121706934Y-77601984D01*
X121707022Y-78080182D01*
X121707501Y-78495657D01*
X121708692Y-78853419D01*
X121710918Y-79158480D01*
X121714500Y-79415848D01*
X121719760Y-79630535D01*
X121727020Y-79807550D01*
X121736601Y-79951905D01*
X121748825Y-80068610D01*
X121764015Y-80162674D01*
X121782492Y-80239109D01*
X121804577Y-80302924D01*
X121830593Y-80359131D01*
X121860861Y-80412738D01*
X121890528Y-80460566D01*
X122034412Y-80637346D01*
X122209116Y-80756698D01*
X122420189Y-80821491D01*
X122617003Y-80835984D01*
X122818121Y-80818924D01*
X122973924Y-80768560D01*
X122976490Y-80767289D01*
X123166305Y-80640387D01*
X123343141Y-80462019D01*
X123493991Y-80248456D01*
X123605850Y-80015965D01*
X123627299Y-79953279D01*
X123664088Y-79773492D01*
X123679724Y-79555853D01*
X123674340Y-79326810D01*
X123648072Y-79112811D01*
X123622452Y-79003013D01*
X123532062Y-78782238D01*
X123407734Y-78608685D01*
X123256926Y-78485968D01*
X123087093Y-78417704D01*
X122905694Y-78407509D01*
X122720184Y-78459000D01*
X122617810Y-78515778D01*
X122519628Y-78598239D01*
X122436171Y-78712389D01*
X122372897Y-78833135D01*
X122327088Y-78933739D01*
X122296604Y-79017676D01*
X122278338Y-79103281D01*
X122269183Y-79208894D01*
X122266033Y-79352850D01*
X122265733Y-79465733D01*
X122266752Y-79641488D01*
X122271856Y-79767651D01*
X122284122Y-79862357D01*
X122306622Y-79943739D01*
X122342432Y-80029932D01*
X122371955Y-80092266D01*
X122447439Y-80244238D01*
X122504910Y-80343564D01*
X122553529Y-80399643D01*
X122602457Y-80421875D01*
X122660856Y-80419656D01*
X122686180Y-80414634D01*
X122796876Y-80390321D01*
X122711533Y-80300560D01*
X122648619Y-80219664D01*
X122577132Y-80106566D01*
X122532493Y-80024533D01*
X122488299Y-79929503D01*
X122460604Y-79843897D01*
X122445680Y-79746772D01*
X122439799Y-79617181D01*
X122439063Y-79499600D01*
X122456035Y-79204798D01*
X122506513Y-78968731D01*
X122590610Y-78791203D01*
X122708440Y-78672020D01*
X122860114Y-78610986D01*
X122958580Y-78602133D01*
X123129985Y-78631795D01*
X123268689Y-78720714D01*
X123374626Y-78868793D01*
X123447724Y-79075934D01*
X123487915Y-79342039D01*
X123488601Y-79350790D01*
X123488137Y-79659454D01*
X123434589Y-79930213D01*
X123325451Y-80170213D01*
X123158216Y-80386601D01*
X123107520Y-80437383D01*
X122988308Y-80537209D01*
X122870842Y-80597591D01*
X122731768Y-80627042D01*
X122567603Y-80634133D01*
X122357863Y-80608728D01*
X122189939Y-80531162D01*
X122060101Y-80399407D01*
X122021346Y-80337205D01*
X121993051Y-80282030D01*
X121968555Y-80222657D01*
X121947618Y-80154119D01*
X121929997Y-80071448D01*
X121915451Y-79969678D01*
X121903737Y-79843840D01*
X121894614Y-79688969D01*
X121887840Y-79500096D01*
X121883173Y-79272254D01*
X121880371Y-79000476D01*
X121879193Y-78679796D01*
X121879396Y-78305245D01*
X121880739Y-77871856D01*
X121882447Y-77484533D01*
X121893200Y-75232400D01*
X121974281Y-75067692D01*
X122057092Y-74943727D01*
X122168516Y-74835070D01*
X122291041Y-74754663D01*
X122407157Y-74715449D01*
X122452000Y-74714613D01*
X122536667Y-74724400D01*
X122545993Y-75257800D01*
X122555320Y-75791200D01*
X122756800Y-75791200D01*
X122756800Y-73589866D01*
X122553600Y-73589866D01*
X122553600Y-74031196D01*
G37*
X122553600Y-74031196D02*
X122551618Y-74227364D01*
X122545225Y-74363086D01*
X122533750Y-74445548D01*
X122516522Y-74481933D01*
X122511267Y-74484663D01*
X122286026Y-74563925D01*
X122109006Y-74661924D01*
X121976388Y-74773453D01*
X121926237Y-74823108D01*
X121882720Y-74868111D01*
X121845368Y-74913395D01*
X121813710Y-74963895D01*
X121787277Y-75024543D01*
X121765598Y-75100272D01*
X121748204Y-75196017D01*
X121734624Y-75316709D01*
X121724389Y-75467283D01*
X121717029Y-75652672D01*
X121712073Y-75877809D01*
X121709052Y-76147627D01*
X121707496Y-76467060D01*
X121706935Y-76841041D01*
X121706898Y-77274504D01*
X121706934Y-77601984D01*
X121707022Y-78080182D01*
X121707501Y-78495657D01*
X121708692Y-78853419D01*
X121710918Y-79158480D01*
X121714500Y-79415848D01*
X121719760Y-79630535D01*
X121727020Y-79807550D01*
X121736601Y-79951905D01*
X121748825Y-80068610D01*
X121764015Y-80162674D01*
X121782492Y-80239109D01*
X121804577Y-80302924D01*
X121830593Y-80359131D01*
X121860861Y-80412738D01*
X121890528Y-80460566D01*
X122034412Y-80637346D01*
X122209116Y-80756698D01*
X122420189Y-80821491D01*
X122617003Y-80835984D01*
X122818121Y-80818924D01*
X122973924Y-80768560D01*
X122976490Y-80767289D01*
X123166305Y-80640387D01*
X123343141Y-80462019D01*
X123493991Y-80248456D01*
X123605850Y-80015965D01*
X123627299Y-79953279D01*
X123664088Y-79773492D01*
X123679724Y-79555853D01*
X123674340Y-79326810D01*
X123648072Y-79112811D01*
X123622452Y-79003013D01*
X123532062Y-78782238D01*
X123407734Y-78608685D01*
X123256926Y-78485968D01*
X123087093Y-78417704D01*
X122905694Y-78407509D01*
X122720184Y-78459000D01*
X122617810Y-78515778D01*
X122519628Y-78598239D01*
X122436171Y-78712389D01*
X122372897Y-78833135D01*
X122327088Y-78933739D01*
X122296604Y-79017676D01*
X122278338Y-79103281D01*
X122269183Y-79208894D01*
X122266033Y-79352850D01*
X122265733Y-79465733D01*
X122266752Y-79641488D01*
X122271856Y-79767651D01*
X122284122Y-79862357D01*
X122306622Y-79943739D01*
X122342432Y-80029932D01*
X122371955Y-80092266D01*
X122447439Y-80244238D01*
X122504910Y-80343564D01*
X122553529Y-80399643D01*
X122602457Y-80421875D01*
X122660856Y-80419656D01*
X122686180Y-80414634D01*
X122796876Y-80390321D01*
X122711533Y-80300560D01*
X122648619Y-80219664D01*
X122577132Y-80106566D01*
X122532493Y-80024533D01*
X122488299Y-79929503D01*
X122460604Y-79843897D01*
X122445680Y-79746772D01*
X122439799Y-79617181D01*
X122439063Y-79499600D01*
X122456035Y-79204798D01*
X122506513Y-78968731D01*
X122590610Y-78791203D01*
X122708440Y-78672020D01*
X122860114Y-78610986D01*
X122958580Y-78602133D01*
X123129985Y-78631795D01*
X123268689Y-78720714D01*
X123374626Y-78868793D01*
X123447724Y-79075934D01*
X123487915Y-79342039D01*
X123488601Y-79350790D01*
X123488137Y-79659454D01*
X123434589Y-79930213D01*
X123325451Y-80170213D01*
X123158216Y-80386601D01*
X123107520Y-80437383D01*
X122988308Y-80537209D01*
X122870842Y-80597591D01*
X122731768Y-80627042D01*
X122567603Y-80634133D01*
X122357863Y-80608728D01*
X122189939Y-80531162D01*
X122060101Y-80399407D01*
X122021346Y-80337205D01*
X121993051Y-80282030D01*
X121968555Y-80222657D01*
X121947618Y-80154119D01*
X121929997Y-80071448D01*
X121915451Y-79969678D01*
X121903737Y-79843840D01*
X121894614Y-79688969D01*
X121887840Y-79500096D01*
X121883173Y-79272254D01*
X121880371Y-79000476D01*
X121879193Y-78679796D01*
X121879396Y-78305245D01*
X121880739Y-77871856D01*
X121882447Y-77484533D01*
X121893200Y-75232400D01*
X121974281Y-75067692D01*
X122057092Y-74943727D01*
X122168516Y-74835070D01*
X122291041Y-74754663D01*
X122407157Y-74715449D01*
X122452000Y-74714613D01*
X122536667Y-74724400D01*
X122545993Y-75257800D01*
X122555320Y-75791200D01*
X122756800Y-75791200D01*
X122756800Y-73589866D01*
X122553600Y-73589866D01*
X122553600Y-74031196D01*
G36*
X123163200Y-75791200D02*
G01*
X123366400Y-75791200D01*
X123366400Y-75248270D01*
X123367098Y-75029513D01*
X123371628Y-74871104D01*
X123383646Y-74765662D01*
X123406808Y-74705803D01*
X123444769Y-74684142D01*
X123501186Y-74693296D01*
X123579713Y-74725883D01*
X123616532Y-74743071D01*
X123789658Y-74859363D01*
X123926408Y-75021082D01*
X124007810Y-75198533D01*
X124016156Y-75248220D01*
X124023175Y-75337675D01*
X124028904Y-75470137D01*
X124033384Y-75648848D01*
X124036651Y-75877047D01*
X124038745Y-76157976D01*
X124039703Y-76494875D01*
X124039564Y-76890984D01*
X124038367Y-77349544D01*
X124037092Y-77670800D01*
X124034930Y-78131157D01*
X124032701Y-78528706D01*
X124030274Y-78868371D01*
X124027518Y-79155076D01*
X124024301Y-79393746D01*
X124020492Y-79589306D01*
X124015960Y-79746680D01*
X124010573Y-79870793D01*
X124004200Y-79966570D01*
X123996709Y-80038934D01*
X123987969Y-80092811D01*
X123977849Y-80133126D01*
X123970857Y-80153383D01*
X123885062Y-80332737D01*
X123780518Y-80482511D01*
X123668998Y-80587061D01*
X123625481Y-80612519D01*
X123522623Y-80676195D01*
X123436189Y-80750479D01*
X123354593Y-80837333D01*
X123453630Y-80835984D01*
X123547405Y-80819732D01*
X123658303Y-80780965D01*
X123687334Y-80767462D01*
X123885158Y-80634391D01*
X124038178Y-80459095D01*
X124105911Y-80333338D01*
X124133691Y-80263851D01*
X124157700Y-80191493D01*
X124178180Y-80111101D01*
X124195372Y-80017514D01*
X124209517Y-79905569D01*
X124220856Y-79770103D01*
X124229632Y-79605956D01*
X124236084Y-79407963D01*
X124240455Y-79170964D01*
X124242986Y-78889795D01*
X124243919Y-78559295D01*
X124243494Y-78174301D01*
X124241953Y-77729651D01*
X124240683Y-77450667D01*
X124230000Y-75232400D01*
X124135858Y-75040696D01*
X124017204Y-74848224D01*
X123866328Y-74697726D01*
X123672258Y-74580815D01*
X123424026Y-74489101D01*
X123408733Y-74484663D01*
X123389971Y-74458621D01*
X123377128Y-74388290D01*
X123369534Y-74266484D01*
X123366518Y-74086019D01*
X123366400Y-74031196D01*
X123366400Y-73589866D01*
X123163200Y-73589866D01*
X123163200Y-75791200D01*
G37*
X123163200Y-75791200D02*
X123366400Y-75791200D01*
X123366400Y-75248270D01*
X123367098Y-75029513D01*
X123371628Y-74871104D01*
X123383646Y-74765662D01*
X123406808Y-74705803D01*
X123444769Y-74684142D01*
X123501186Y-74693296D01*
X123579713Y-74725883D01*
X123616532Y-74743071D01*
X123789658Y-74859363D01*
X123926408Y-75021082D01*
X124007810Y-75198533D01*
X124016156Y-75248220D01*
X124023175Y-75337675D01*
X124028904Y-75470137D01*
X124033384Y-75648848D01*
X124036651Y-75877047D01*
X124038745Y-76157976D01*
X124039703Y-76494875D01*
X124039564Y-76890984D01*
X124038367Y-77349544D01*
X124037092Y-77670800D01*
X124034930Y-78131157D01*
X124032701Y-78528706D01*
X124030274Y-78868371D01*
X124027518Y-79155076D01*
X124024301Y-79393746D01*
X124020492Y-79589306D01*
X124015960Y-79746680D01*
X124010573Y-79870793D01*
X124004200Y-79966570D01*
X123996709Y-80038934D01*
X123987969Y-80092811D01*
X123977849Y-80133126D01*
X123970857Y-80153383D01*
X123885062Y-80332737D01*
X123780518Y-80482511D01*
X123668998Y-80587061D01*
X123625481Y-80612519D01*
X123522623Y-80676195D01*
X123436189Y-80750479D01*
X123354593Y-80837333D01*
X123453630Y-80835984D01*
X123547405Y-80819732D01*
X123658303Y-80780965D01*
X123687334Y-80767462D01*
X123885158Y-80634391D01*
X124038178Y-80459095D01*
X124105911Y-80333338D01*
X124133691Y-80263851D01*
X124157700Y-80191493D01*
X124178180Y-80111101D01*
X124195372Y-80017514D01*
X124209517Y-79905569D01*
X124220856Y-79770103D01*
X124229632Y-79605956D01*
X124236084Y-79407963D01*
X124240455Y-79170964D01*
X124242986Y-78889795D01*
X124243919Y-78559295D01*
X124243494Y-78174301D01*
X124241953Y-77729651D01*
X124240683Y-77450667D01*
X124230000Y-75232400D01*
X124135858Y-75040696D01*
X124017204Y-74848224D01*
X123866328Y-74697726D01*
X123672258Y-74580815D01*
X123424026Y-74489101D01*
X123408733Y-74484663D01*
X123389971Y-74458621D01*
X123377128Y-74388290D01*
X123369534Y-74266484D01*
X123366518Y-74086019D01*
X123366400Y-74031196D01*
X123366400Y-73589866D01*
X123163200Y-73589866D01*
X123163200Y-75791200D01*
G36*
X122691872Y-81709400D02*
G01*
X122646676Y-81865136D01*
X122595137Y-82044554D01*
X122553180Y-82192000D01*
X122521654Y-82303114D01*
X122475614Y-82464859D01*
X122419193Y-82662748D01*
X122356521Y-82882296D01*
X122291728Y-83109015D01*
X122280416Y-83148569D01*
X122221359Y-83355805D01*
X122169166Y-83540405D01*
X122126542Y-83692682D01*
X122096192Y-83802951D01*
X122080819Y-83861526D01*
X122079467Y-83868235D01*
X122109140Y-83879848D01*
X122181467Y-83885279D01*
X122190312Y-83885333D01*
X122247482Y-83882420D01*
X122285436Y-83864486D01*
X122314178Y-83817736D01*
X122343712Y-83728377D01*
X122368375Y-83639800D01*
X122435594Y-83394267D01*
X122906777Y-83384807D01*
X123079661Y-83383370D01*
X123228369Y-83385966D01*
X123339736Y-83392076D01*
X123400595Y-83401183D01*
X123407095Y-83404481D01*
X123430663Y-83450207D01*
X123463808Y-83541277D01*
X123497322Y-83651008D01*
X123532406Y-83767705D01*
X123562640Y-83834102D01*
X123599430Y-83865652D01*
X123654182Y-83877811D01*
X123665608Y-83879012D01*
X123739130Y-83881303D01*
X123772605Y-83872499D01*
X123772800Y-83871417D01*
X123763655Y-83834981D01*
X123738067Y-83743260D01*
X123698808Y-83605920D01*
X123648649Y-83432627D01*
X123590360Y-83233046D01*
X123565856Y-83149604D01*
X123537763Y-83053820D01*
X123287425Y-83053820D01*
X123286815Y-83088436D01*
X123265203Y-83112446D01*
X123214776Y-83127987D01*
X123124025Y-83136653D01*
X122981438Y-83140035D01*
X122912262Y-83140267D01*
X122736271Y-83136659D01*
X122610848Y-83126314D01*
X122543207Y-83109944D01*
X122534482Y-83102865D01*
X122534372Y-83057188D01*
X122551182Y-82959992D01*
X122581450Y-82823828D01*
X122621717Y-82661246D01*
X122668522Y-82484800D01*
X122718404Y-82307039D01*
X122767903Y-82140517D01*
X122813557Y-81997783D01*
X122851907Y-81891390D01*
X122879491Y-81833889D01*
X122886097Y-81827583D01*
X122944598Y-81834626D01*
X122975592Y-81857169D01*
X122999809Y-81906575D01*
X123034492Y-82007959D01*
X123076273Y-82147997D01*
X123121785Y-82313365D01*
X123167659Y-82490740D01*
X123210528Y-82666797D01*
X123247024Y-82828211D01*
X123273779Y-82961661D01*
X123287425Y-83053820D01*
X123537763Y-83053820D01*
X123493242Y-82902025D01*
X123416475Y-82639096D01*
X123341424Y-82380998D01*
X123273959Y-82147916D01*
X123220912Y-81963400D01*
X123082912Y-81480800D01*
X122758750Y-81480800D01*
X122691872Y-81709400D01*
G37*
X122691872Y-81709400D02*
X122646676Y-81865136D01*
X122595137Y-82044554D01*
X122553180Y-82192000D01*
X122521654Y-82303114D01*
X122475614Y-82464859D01*
X122419193Y-82662748D01*
X122356521Y-82882296D01*
X122291728Y-83109015D01*
X122280416Y-83148569D01*
X122221359Y-83355805D01*
X122169166Y-83540405D01*
X122126542Y-83692682D01*
X122096192Y-83802951D01*
X122080819Y-83861526D01*
X122079467Y-83868235D01*
X122109140Y-83879848D01*
X122181467Y-83885279D01*
X122190312Y-83885333D01*
X122247482Y-83882420D01*
X122285436Y-83864486D01*
X122314178Y-83817736D01*
X122343712Y-83728377D01*
X122368375Y-83639800D01*
X122435594Y-83394267D01*
X122906777Y-83384807D01*
X123079661Y-83383370D01*
X123228369Y-83385966D01*
X123339736Y-83392076D01*
X123400595Y-83401183D01*
X123407095Y-83404481D01*
X123430663Y-83450207D01*
X123463808Y-83541277D01*
X123497322Y-83651008D01*
X123532406Y-83767705D01*
X123562640Y-83834102D01*
X123599430Y-83865652D01*
X123654182Y-83877811D01*
X123665608Y-83879012D01*
X123739130Y-83881303D01*
X123772605Y-83872499D01*
X123772800Y-83871417D01*
X123763655Y-83834981D01*
X123738067Y-83743260D01*
X123698808Y-83605920D01*
X123648649Y-83432627D01*
X123590360Y-83233046D01*
X123565856Y-83149604D01*
X123537763Y-83053820D01*
X123287425Y-83053820D01*
X123286815Y-83088436D01*
X123265203Y-83112446D01*
X123214776Y-83127987D01*
X123124025Y-83136653D01*
X122981438Y-83140035D01*
X122912262Y-83140267D01*
X122736271Y-83136659D01*
X122610848Y-83126314D01*
X122543207Y-83109944D01*
X122534482Y-83102865D01*
X122534372Y-83057188D01*
X122551182Y-82959992D01*
X122581450Y-82823828D01*
X122621717Y-82661246D01*
X122668522Y-82484800D01*
X122718404Y-82307039D01*
X122767903Y-82140517D01*
X122813557Y-81997783D01*
X122851907Y-81891390D01*
X122879491Y-81833889D01*
X122886097Y-81827583D01*
X122944598Y-81834626D01*
X122975592Y-81857169D01*
X122999809Y-81906575D01*
X123034492Y-82007959D01*
X123076273Y-82147997D01*
X123121785Y-82313365D01*
X123167659Y-82490740D01*
X123210528Y-82666797D01*
X123247024Y-82828211D01*
X123273779Y-82961661D01*
X123287425Y-83053820D01*
X123537763Y-83053820D01*
X123493242Y-82902025D01*
X123416475Y-82639096D01*
X123341424Y-82380998D01*
X123273959Y-82147916D01*
X123220912Y-81963400D01*
X123082912Y-81480800D01*
X122758750Y-81480800D01*
X122691872Y-81709400D01*
G36*
X122878245Y-85028320D02*
G01*
X122809602Y-85087558D01*
X122763351Y-85155267D01*
X122756800Y-85183296D01*
X122781878Y-85239424D01*
X122840729Y-85305972D01*
X122908778Y-85358957D01*
X122953716Y-85375467D01*
X123005370Y-85353400D01*
X123061600Y-85307733D01*
X123111835Y-85240684D01*
X123129333Y-85189200D01*
X123102881Y-85122050D01*
X123040979Y-85052991D01*
X122969812Y-85008207D01*
X122943067Y-85002933D01*
X122878245Y-85028320D01*
G37*
X122878245Y-85028320D02*
X122809602Y-85087558D01*
X122763351Y-85155267D01*
X122756800Y-85183296D01*
X122781878Y-85239424D01*
X122840729Y-85305972D01*
X122908778Y-85358957D01*
X122953716Y-85375467D01*
X123005370Y-85353400D01*
X123061600Y-85307733D01*
X123111835Y-85240684D01*
X123129333Y-85189200D01*
X123102881Y-85122050D01*
X123040979Y-85052991D01*
X122969812Y-85008207D01*
X122943067Y-85002933D01*
X122878245Y-85028320D01*
G36*
X122934565Y-66946650D02*
G01*
X122892715Y-67020991D01*
X122849267Y-67112866D01*
X122798657Y-67227130D01*
X122726451Y-67389184D01*
X122637542Y-67588129D01*
X122536824Y-67813067D01*
X122429190Y-68053098D01*
X122319534Y-68297325D01*
X122212750Y-68534848D01*
X122113732Y-68754768D01*
X122027372Y-68946187D01*
X121958565Y-69098207D01*
X121912204Y-69199927D01*
X121910271Y-69204133D01*
X121844622Y-69347860D01*
X121765633Y-69522288D01*
X121687423Y-69696201D01*
X121665156Y-69746000D01*
X121594577Y-69903849D01*
X121523181Y-70063079D01*
X121462839Y-70197228D01*
X121444851Y-70237067D01*
X121409827Y-70314784D01*
X121351346Y-70444882D01*
X121273642Y-70617927D01*
X121180950Y-70824485D01*
X121077504Y-71055122D01*
X120967537Y-71300404D01*
X120928038Y-71388533D01*
X120815275Y-71639911D01*
X120706130Y-71882782D01*
X120605129Y-72107109D01*
X120516796Y-72302855D01*
X120445658Y-72459984D01*
X120396239Y-72568459D01*
X120385963Y-72590800D01*
X120329866Y-72713570D01*
X120255679Y-72877820D01*
X120172621Y-73063044D01*
X120089915Y-73248741D01*
X120081316Y-73268133D01*
X120013363Y-73420802D01*
X119923677Y-73621334D01*
X119818470Y-73855890D01*
X119703953Y-74110635D01*
X119586341Y-74371732D01*
X119488300Y-74588933D01*
X119377867Y-74833563D01*
X119269672Y-75073671D01*
X119168876Y-75297768D01*
X119080642Y-75494367D01*
X119010132Y-75651977D01*
X118963295Y-75757333D01*
X118889529Y-75923053D01*
X118809506Y-76100768D01*
X118738410Y-76256794D01*
X118726674Y-76282267D01*
X118660274Y-76427552D01*
X118581230Y-76602739D01*
X118504033Y-76775666D01*
X118485376Y-76817820D01*
X118353575Y-77116307D01*
X118460093Y-77359687D01*
X118536351Y-77533172D01*
X118611818Y-77703039D01*
X118695842Y-77890200D01*
X118797768Y-78115566D01*
X118811085Y-78144933D01*
X118867944Y-78270818D01*
X118939786Y-78430606D01*
X119014041Y-78596321D01*
X119039340Y-78652933D01*
X119109929Y-78810777D01*
X119181322Y-78970002D01*
X119241650Y-79104149D01*
X119259635Y-79144000D01*
X119304185Y-79242771D01*
X119368872Y-79386471D01*
X119446106Y-79558231D01*
X119528301Y-79741180D01*
X119556686Y-79804400D01*
X119638901Y-79987303D01*
X119718913Y-80164887D01*
X119789107Y-80320278D01*
X119841867Y-80436600D01*
X119854731Y-80464800D01*
X119907871Y-80582150D01*
X119976341Y-80734967D01*
X120048256Y-80896689D01*
X120074419Y-80955866D01*
X120148874Y-81123349D01*
X120228820Y-81301189D01*
X120300149Y-81458058D01*
X120318400Y-81497733D01*
X120384160Y-81641659D01*
X120462933Y-81816323D01*
X120540613Y-81990395D01*
X120562381Y-82039600D01*
X120632482Y-82197659D01*
X120703776Y-82357069D01*
X120764364Y-82491264D01*
X120782355Y-82530667D01*
X120826792Y-82628203D01*
X120891530Y-82771217D01*
X120969190Y-82943365D01*
X121052393Y-83128306D01*
X121088175Y-83208000D01*
X121174420Y-83399743D01*
X121261185Y-83591820D01*
X121340112Y-83765782D01*
X121402843Y-83903178D01*
X121420263Y-83941028D01*
X121493837Y-84102332D01*
X121575359Y-84284069D01*
X121640688Y-84432094D01*
X121710425Y-84590062D01*
X121791969Y-84772015D01*
X121868541Y-84940530D01*
X121873868Y-84952133D01*
X121918058Y-85049193D01*
X121985459Y-85198408D01*
X122071708Y-85390067D01*
X122172443Y-85614457D01*
X122283302Y-85861868D01*
X122399924Y-86122585D01*
X122470720Y-86281075D01*
X122582379Y-86530075D01*
X122685640Y-86758234D01*
X122777219Y-86958456D01*
X122853831Y-87123646D01*
X122912189Y-87246708D01*
X122949010Y-87320546D01*
X122960715Y-87339409D01*
X122978425Y-87309787D01*
X123019907Y-87225862D01*
X123081593Y-87095303D01*
X123159918Y-86925778D01*
X123251313Y-86724956D01*
X123352212Y-86500504D01*
X123381978Y-86433800D01*
X123519998Y-86124188D01*
X123635601Y-85865348D01*
X123733819Y-85646128D01*
X123819684Y-85455379D01*
X123898228Y-85281950D01*
X123974484Y-85114691D01*
X124053483Y-84942449D01*
X124128400Y-84779781D01*
X124182582Y-84661012D01*
X124223757Y-84568306D01*
X124245276Y-84516729D01*
X124246934Y-84511211D01*
X124259951Y-84477013D01*
X124294163Y-84398082D01*
X124342307Y-84291151D01*
X124344831Y-84285629D01*
X124458392Y-84036861D01*
X124552300Y-83829882D01*
X124635410Y-83645041D01*
X124716580Y-83462687D01*
X124761810Y-83360400D01*
X124831952Y-83202339D01*
X124903323Y-83042929D01*
X124964010Y-82908733D01*
X124982041Y-82869333D01*
X125028281Y-82767658D01*
X125093738Y-82622176D01*
X125170272Y-82451048D01*
X125249744Y-82272430D01*
X125262883Y-82242800D01*
X125314956Y-82125746D01*
X125391329Y-81954673D01*
X125488526Y-81737335D01*
X125603075Y-81481491D01*
X125731498Y-81194897D01*
X125870323Y-80885308D01*
X126016073Y-80560482D01*
X126165275Y-80228176D01*
X126211111Y-80126133D01*
X126365165Y-79783110D01*
X126520479Y-79437107D01*
X126673004Y-79097156D01*
X126818693Y-78772286D01*
X126953495Y-78471529D01*
X127073364Y-78203915D01*
X127174250Y-77978474D01*
X127252105Y-77804237D01*
X127262816Y-77780230D01*
X127560281Y-77113312D01*
X127294934Y-77113312D01*
X127289082Y-77143653D01*
X127270105Y-77199930D01*
X127235873Y-77287113D01*
X127184255Y-77410171D01*
X127113119Y-77574071D01*
X127020335Y-77783783D01*
X126903772Y-78044275D01*
X126761298Y-78360516D01*
X126736296Y-78415866D01*
X126688155Y-78522850D01*
X126620618Y-78673522D01*
X126541827Y-78849689D01*
X126459927Y-79033159D01*
X126440709Y-79076266D01*
X126360162Y-79256766D01*
X126281623Y-79432378D01*
X126212923Y-79585616D01*
X126161895Y-79698992D01*
X126152511Y-79719733D01*
X126099770Y-79836471D01*
X126022959Y-80007002D01*
X125925683Y-80223294D01*
X125811542Y-80477317D01*
X125684140Y-80761041D01*
X125547079Y-81066434D01*
X125403961Y-81385466D01*
X125258389Y-81710106D01*
X125113966Y-82032323D01*
X124974293Y-82344087D01*
X124842973Y-82637367D01*
X124723609Y-82904132D01*
X124619804Y-83136351D01*
X124602928Y-83174133D01*
X124462923Y-83487546D01*
X124346775Y-83747329D01*
X124250770Y-83961724D01*
X124171192Y-84138967D01*
X124104329Y-84287300D01*
X124046466Y-84414961D01*
X123993888Y-84530189D01*
X123942881Y-84641223D01*
X123889732Y-84756303D01*
X123887827Y-84760419D01*
X123834461Y-84877048D01*
X123794251Y-84967427D01*
X123773981Y-85016225D01*
X123772800Y-85020412D01*
X123759798Y-85054300D01*
X123725097Y-85134910D01*
X123675154Y-85247360D01*
X123652867Y-85296793D01*
X123584227Y-85448392D01*
X123533422Y-85560426D01*
X123490942Y-85653737D01*
X123447278Y-85749168D01*
X123392921Y-85867559D01*
X123331122Y-86002000D01*
X123263769Y-86150562D01*
X123201163Y-86292251D01*
X123152963Y-86405062D01*
X123137870Y-86442267D01*
X123084219Y-86564396D01*
X123036669Y-86632088D01*
X122985167Y-86656682D01*
X122948831Y-86655567D01*
X122908822Y-86631953D01*
X122859615Y-86567214D01*
X122796636Y-86454023D01*
X122715314Y-86285051D01*
X122708801Y-86270911D01*
X122632188Y-86103610D01*
X122557107Y-85938623D01*
X122493058Y-85796882D01*
X122455181Y-85712111D01*
X122398920Y-85585996D01*
X122329318Y-85431490D01*
X122261311Y-85281750D01*
X122260447Y-85279860D01*
X122207804Y-85163293D01*
X122168185Y-85073128D01*
X122148311Y-85024741D01*
X122147200Y-85020756D01*
X122133882Y-84987254D01*
X122098173Y-84906661D01*
X122046439Y-84793212D01*
X122015753Y-84726896D01*
X121977366Y-84643183D01*
X121914329Y-84504316D01*
X121829649Y-84316972D01*
X121726331Y-84087827D01*
X121607382Y-83823557D01*
X121475807Y-83530839D01*
X121334612Y-83216350D01*
X121186804Y-82886765D01*
X121087947Y-82666133D01*
X120939181Y-82334034D01*
X120796503Y-82015614D01*
X120662715Y-81717117D01*
X120540617Y-81444790D01*
X120433009Y-81204875D01*
X120342693Y-81003618D01*
X120272470Y-80847263D01*
X120225139Y-80742056D01*
X120206982Y-80701866D01*
X120154448Y-80585863D01*
X120085561Y-80433266D01*
X120007255Y-80259489D01*
X119926464Y-80079946D01*
X119850122Y-79910049D01*
X119785163Y-79765214D01*
X119738521Y-79660851D01*
X119727066Y-79635066D01*
X119618052Y-79389540D01*
X119512453Y-79153332D01*
X119394932Y-78892148D01*
X119386324Y-78873066D01*
X119272003Y-78619631D01*
X119177080Y-78409091D01*
X119093071Y-78222613D01*
X119011493Y-78041365D01*
X118923862Y-77846514D01*
X118905768Y-77806267D01*
X118835861Y-77651648D01*
X118769046Y-77505406D01*
X118714496Y-77387545D01*
X118689293Y-77334239D01*
X118648836Y-77233993D01*
X118626565Y-77147246D01*
X118625067Y-77128635D01*
X118639452Y-77077545D01*
X118682518Y-76965471D01*
X118754125Y-76792729D01*
X118854138Y-76559632D01*
X118982419Y-76266497D01*
X119138831Y-75913636D01*
X119323236Y-75501364D01*
X119535498Y-75029997D01*
X119673698Y-74724400D01*
X119758270Y-74537245D01*
X119832057Y-74372865D01*
X119907273Y-74203925D01*
X119996132Y-74003089D01*
X120006621Y-73979333D01*
X120081096Y-73811860D01*
X120161044Y-73634029D01*
X120232361Y-73477164D01*
X120250615Y-73437466D01*
X120308600Y-73310927D01*
X120388485Y-73135285D01*
X120484532Y-72923274D01*
X120591001Y-72687628D01*
X120702153Y-72441081D01*
X120812249Y-72196369D01*
X120915550Y-71966223D01*
X121006317Y-71763381D01*
X121078810Y-71600574D01*
X121097718Y-71557867D01*
X121171506Y-71392154D01*
X121251545Y-71214446D01*
X121322649Y-71058423D01*
X121334393Y-71032933D01*
X121400160Y-70889015D01*
X121478951Y-70714360D01*
X121556658Y-70540294D01*
X121578446Y-70491067D01*
X121692846Y-70232537D01*
X121784033Y-70027885D01*
X121855707Y-69868833D01*
X121896404Y-69779867D01*
X121921203Y-69725284D01*
X121970107Y-69616944D01*
X122039498Y-69462888D01*
X122125757Y-69271159D01*
X122225265Y-69049798D01*
X122334405Y-68806848D01*
X122414524Y-68628400D01*
X122543338Y-68342426D01*
X122648118Y-68112606D01*
X122731940Y-67933019D01*
X122797881Y-67797748D01*
X122849018Y-67700875D01*
X122888427Y-67636480D01*
X122919186Y-67598646D01*
X122944371Y-67581454D01*
X122960303Y-67578533D01*
X122979100Y-67584134D01*
X123001789Y-67604058D01*
X123030669Y-67642986D01*
X123068043Y-67705597D01*
X123116212Y-67796573D01*
X123177476Y-67920594D01*
X123254138Y-68082341D01*
X123348499Y-68286494D01*
X123462860Y-68537734D01*
X123599523Y-68840742D01*
X123760788Y-69200198D01*
X123792879Y-69271866D01*
X123936049Y-69591569D01*
X124071577Y-69894009D01*
X124196818Y-70173293D01*
X124309122Y-70423526D01*
X124405843Y-70638813D01*
X124484334Y-70813261D01*
X124541946Y-70940975D01*
X124576032Y-71016059D01*
X124583863Y-71032933D01*
X124610786Y-71090997D01*
X124657784Y-71194913D01*
X124717601Y-71328561D01*
X124766829Y-71439333D01*
X124843136Y-71610632D01*
X124923493Y-71789501D01*
X124995514Y-71948431D01*
X125026022Y-72015066D01*
X125081102Y-72135961D01*
X125154639Y-72299129D01*
X125237786Y-72484860D01*
X125321696Y-72673440D01*
X125337601Y-72709333D01*
X125417787Y-72889960D01*
X125496169Y-73065680D01*
X125564905Y-73218970D01*
X125616153Y-73332305D01*
X125625524Y-73352800D01*
X125678802Y-73470153D01*
X125747385Y-73622973D01*
X125819372Y-73784698D01*
X125845543Y-73843867D01*
X125915629Y-74001915D01*
X125986859Y-74161315D01*
X126047349Y-74295508D01*
X126065304Y-74334933D01*
X126105589Y-74423635D01*
X126167708Y-74561243D01*
X126245844Y-74734831D01*
X126334181Y-74931473D01*
X126426900Y-75138245D01*
X126438736Y-75164667D01*
X126548576Y-75409892D01*
X126636243Y-75605523D01*
X126707249Y-75763781D01*
X126767107Y-75896887D01*
X126821328Y-76017063D01*
X126875424Y-76136531D01*
X126934907Y-76267514D01*
X127005290Y-76422232D01*
X127072001Y-76568790D01*
X127148261Y-76739634D01*
X127213291Y-76891659D01*
X127262231Y-77012989D01*
X127290218Y-77091748D01*
X127294934Y-77113312D01*
X127560281Y-77113312D01*
X127561434Y-77110728D01*
X127442110Y-76848897D01*
X127386472Y-76726703D01*
X127337244Y-76618229D01*
X127289234Y-76511905D01*
X127237252Y-76396158D01*
X127176110Y-76259417D01*
X127100617Y-76090111D01*
X127005583Y-75876668D01*
X126944943Y-75740400D01*
X126806855Y-75431150D01*
X126678898Y-75147182D01*
X126544415Y-74851571D01*
X126512297Y-74781304D01*
X126463670Y-74673455D01*
X126428628Y-74592806D01*
X126414432Y-74556091D01*
X126414400Y-74555722D01*
X126401185Y-74521807D01*
X126366061Y-74441873D01*
X126315811Y-74331256D01*
X126299373Y-74295619D01*
X126267518Y-74226742D01*
X126237715Y-74162115D01*
X126207463Y-74096189D01*
X126174261Y-74023415D01*
X126135609Y-73938243D01*
X126089006Y-73835125D01*
X126031951Y-73708512D01*
X125961943Y-73552854D01*
X125876480Y-73362603D01*
X125773064Y-73132210D01*
X125649192Y-72856125D01*
X125502363Y-72528799D01*
X125347891Y-72184400D01*
X125212669Y-71882954D01*
X125083290Y-71594605D01*
X124962940Y-71326452D01*
X124854807Y-71085594D01*
X124762078Y-70879127D01*
X124687939Y-70714151D01*
X124635579Y-70597763D01*
X124610364Y-70541867D01*
X124565219Y-70441683D01*
X124500368Y-70297103D01*
X124423641Y-70125614D01*
X124342870Y-69944704D01*
X124322225Y-69898400D01*
X124203720Y-69632775D01*
X124106901Y-69416435D01*
X124026054Y-69236723D01*
X123955463Y-69080982D01*
X123889414Y-68936554D01*
X123822192Y-68790780D01*
X123820094Y-68786248D01*
X123766719Y-68669546D01*
X123726507Y-68579018D01*
X123706243Y-68530028D01*
X123705067Y-68525786D01*
X123691799Y-68491879D01*
X123656240Y-68410941D01*
X123604753Y-68297316D01*
X123574907Y-68232471D01*
X123514359Y-68100283D01*
X123435005Y-67925186D01*
X123345432Y-67726221D01*
X123254225Y-67522427D01*
X123215106Y-67434600D01*
X123137512Y-67263315D01*
X123068055Y-67116042D01*
X123011771Y-67002981D01*
X122973695Y-66934337D01*
X122960227Y-66918133D01*
X122934565Y-66946650D01*
G37*
X122934565Y-66946650D02*
X122892715Y-67020991D01*
X122849267Y-67112866D01*
X122798657Y-67227130D01*
X122726451Y-67389184D01*
X122637542Y-67588129D01*
X122536824Y-67813067D01*
X122429190Y-68053098D01*
X122319534Y-68297325D01*
X122212750Y-68534848D01*
X122113732Y-68754768D01*
X122027372Y-68946187D01*
X121958565Y-69098207D01*
X121912204Y-69199927D01*
X121910271Y-69204133D01*
X121844622Y-69347860D01*
X121765633Y-69522288D01*
X121687423Y-69696201D01*
X121665156Y-69746000D01*
X121594577Y-69903849D01*
X121523181Y-70063079D01*
X121462839Y-70197228D01*
X121444851Y-70237067D01*
X121409827Y-70314784D01*
X121351346Y-70444882D01*
X121273642Y-70617927D01*
X121180950Y-70824485D01*
X121077504Y-71055122D01*
X120967537Y-71300404D01*
X120928038Y-71388533D01*
X120815275Y-71639911D01*
X120706130Y-71882782D01*
X120605129Y-72107109D01*
X120516796Y-72302855D01*
X120445658Y-72459984D01*
X120396239Y-72568459D01*
X120385963Y-72590800D01*
X120329866Y-72713570D01*
X120255679Y-72877820D01*
X120172621Y-73063044D01*
X120089915Y-73248741D01*
X120081316Y-73268133D01*
X120013363Y-73420802D01*
X119923677Y-73621334D01*
X119818470Y-73855890D01*
X119703953Y-74110635D01*
X119586341Y-74371732D01*
X119488300Y-74588933D01*
X119377867Y-74833563D01*
X119269672Y-75073671D01*
X119168876Y-75297768D01*
X119080642Y-75494367D01*
X119010132Y-75651977D01*
X118963295Y-75757333D01*
X118889529Y-75923053D01*
X118809506Y-76100768D01*
X118738410Y-76256794D01*
X118726674Y-76282267D01*
X118660274Y-76427552D01*
X118581230Y-76602739D01*
X118504033Y-76775666D01*
X118485376Y-76817820D01*
X118353575Y-77116307D01*
X118460093Y-77359687D01*
X118536351Y-77533172D01*
X118611818Y-77703039D01*
X118695842Y-77890200D01*
X118797768Y-78115566D01*
X118811085Y-78144933D01*
X118867944Y-78270818D01*
X118939786Y-78430606D01*
X119014041Y-78596321D01*
X119039340Y-78652933D01*
X119109929Y-78810777D01*
X119181322Y-78970002D01*
X119241650Y-79104149D01*
X119259635Y-79144000D01*
X119304185Y-79242771D01*
X119368872Y-79386471D01*
X119446106Y-79558231D01*
X119528301Y-79741180D01*
X119556686Y-79804400D01*
X119638901Y-79987303D01*
X119718913Y-80164887D01*
X119789107Y-80320278D01*
X119841867Y-80436600D01*
X119854731Y-80464800D01*
X119907871Y-80582150D01*
X119976341Y-80734967D01*
X120048256Y-80896689D01*
X120074419Y-80955866D01*
X120148874Y-81123349D01*
X120228820Y-81301189D01*
X120300149Y-81458058D01*
X120318400Y-81497733D01*
X120384160Y-81641659D01*
X120462933Y-81816323D01*
X120540613Y-81990395D01*
X120562381Y-82039600D01*
X120632482Y-82197659D01*
X120703776Y-82357069D01*
X120764364Y-82491264D01*
X120782355Y-82530667D01*
X120826792Y-82628203D01*
X120891530Y-82771217D01*
X120969190Y-82943365D01*
X121052393Y-83128306D01*
X121088175Y-83208000D01*
X121174420Y-83399743D01*
X121261185Y-83591820D01*
X121340112Y-83765782D01*
X121402843Y-83903178D01*
X121420263Y-83941028D01*
X121493837Y-84102332D01*
X121575359Y-84284069D01*
X121640688Y-84432094D01*
X121710425Y-84590062D01*
X121791969Y-84772015D01*
X121868541Y-84940530D01*
X121873868Y-84952133D01*
X121918058Y-85049193D01*
X121985459Y-85198408D01*
X122071708Y-85390067D01*
X122172443Y-85614457D01*
X122283302Y-85861868D01*
X122399924Y-86122585D01*
X122470720Y-86281075D01*
X122582379Y-86530075D01*
X122685640Y-86758234D01*
X122777219Y-86958456D01*
X122853831Y-87123646D01*
X122912189Y-87246708D01*
X122949010Y-87320546D01*
X122960715Y-87339409D01*
X122978425Y-87309787D01*
X123019907Y-87225862D01*
X123081593Y-87095303D01*
X123159918Y-86925778D01*
X123251313Y-86724956D01*
X123352212Y-86500504D01*
X123381978Y-86433800D01*
X123519998Y-86124188D01*
X123635601Y-85865348D01*
X123733819Y-85646128D01*
X123819684Y-85455379D01*
X123898228Y-85281950D01*
X123974484Y-85114691D01*
X124053483Y-84942449D01*
X124128400Y-84779781D01*
X124182582Y-84661012D01*
X124223757Y-84568306D01*
X124245276Y-84516729D01*
X124246934Y-84511211D01*
X124259951Y-84477013D01*
X124294163Y-84398082D01*
X124342307Y-84291151D01*
X124344831Y-84285629D01*
X124458392Y-84036861D01*
X124552300Y-83829882D01*
X124635410Y-83645041D01*
X124716580Y-83462687D01*
X124761810Y-83360400D01*
X124831952Y-83202339D01*
X124903323Y-83042929D01*
X124964010Y-82908733D01*
X124982041Y-82869333D01*
X125028281Y-82767658D01*
X125093738Y-82622176D01*
X125170272Y-82451048D01*
X125249744Y-82272430D01*
X125262883Y-82242800D01*
X125314956Y-82125746D01*
X125391329Y-81954673D01*
X125488526Y-81737335D01*
X125603075Y-81481491D01*
X125731498Y-81194897D01*
X125870323Y-80885308D01*
X126016073Y-80560482D01*
X126165275Y-80228176D01*
X126211111Y-80126133D01*
X126365165Y-79783110D01*
X126520479Y-79437107D01*
X126673004Y-79097156D01*
X126818693Y-78772286D01*
X126953495Y-78471529D01*
X127073364Y-78203915D01*
X127174250Y-77978474D01*
X127252105Y-77804237D01*
X127262816Y-77780230D01*
X127560281Y-77113312D01*
X127294934Y-77113312D01*
X127289082Y-77143653D01*
X127270105Y-77199930D01*
X127235873Y-77287113D01*
X127184255Y-77410171D01*
X127113119Y-77574071D01*
X127020335Y-77783783D01*
X126903772Y-78044275D01*
X126761298Y-78360516D01*
X126736296Y-78415866D01*
X126688155Y-78522850D01*
X126620618Y-78673522D01*
X126541827Y-78849689D01*
X126459927Y-79033159D01*
X126440709Y-79076266D01*
X126360162Y-79256766D01*
X126281623Y-79432378D01*
X126212923Y-79585616D01*
X126161895Y-79698992D01*
X126152511Y-79719733D01*
X126099770Y-79836471D01*
X126022959Y-80007002D01*
X125925683Y-80223294D01*
X125811542Y-80477317D01*
X125684140Y-80761041D01*
X125547079Y-81066434D01*
X125403961Y-81385466D01*
X125258389Y-81710106D01*
X125113966Y-82032323D01*
X124974293Y-82344087D01*
X124842973Y-82637367D01*
X124723609Y-82904132D01*
X124619804Y-83136351D01*
X124602928Y-83174133D01*
X124462923Y-83487546D01*
X124346775Y-83747329D01*
X124250770Y-83961724D01*
X124171192Y-84138967D01*
X124104329Y-84287300D01*
X124046466Y-84414961D01*
X123993888Y-84530189D01*
X123942881Y-84641223D01*
X123889732Y-84756303D01*
X123887827Y-84760419D01*
X123834461Y-84877048D01*
X123794251Y-84967427D01*
X123773981Y-85016225D01*
X123772800Y-85020412D01*
X123759798Y-85054300D01*
X123725097Y-85134910D01*
X123675154Y-85247360D01*
X123652867Y-85296793D01*
X123584227Y-85448392D01*
X123533422Y-85560426D01*
X123490942Y-85653737D01*
X123447278Y-85749168D01*
X123392921Y-85867559D01*
X123331122Y-86002000D01*
X123263769Y-86150562D01*
X123201163Y-86292251D01*
X123152963Y-86405062D01*
X123137870Y-86442267D01*
X123084219Y-86564396D01*
X123036669Y-86632088D01*
X122985167Y-86656682D01*
X122948831Y-86655567D01*
X122908822Y-86631953D01*
X122859615Y-86567214D01*
X122796636Y-86454023D01*
X122715314Y-86285051D01*
X122708801Y-86270911D01*
X122632188Y-86103610D01*
X122557107Y-85938623D01*
X122493058Y-85796882D01*
X122455181Y-85712111D01*
X122398920Y-85585996D01*
X122329318Y-85431490D01*
X122261311Y-85281750D01*
X122260447Y-85279860D01*
X122207804Y-85163293D01*
X122168185Y-85073128D01*
X122148311Y-85024741D01*
X122147200Y-85020756D01*
X122133882Y-84987254D01*
X122098173Y-84906661D01*
X122046439Y-84793212D01*
X122015753Y-84726896D01*
X121977366Y-84643183D01*
X121914329Y-84504316D01*
X121829649Y-84316972D01*
X121726331Y-84087827D01*
X121607382Y-83823557D01*
X121475807Y-83530839D01*
X121334612Y-83216350D01*
X121186804Y-82886765D01*
X121087947Y-82666133D01*
X120939181Y-82334034D01*
X120796503Y-82015614D01*
X120662715Y-81717117D01*
X120540617Y-81444790D01*
X120433009Y-81204875D01*
X120342693Y-81003618D01*
X120272470Y-80847263D01*
X120225139Y-80742056D01*
X120206982Y-80701866D01*
X120154448Y-80585863D01*
X120085561Y-80433266D01*
X120007255Y-80259489D01*
X119926464Y-80079946D01*
X119850122Y-79910049D01*
X119785163Y-79765214D01*
X119738521Y-79660851D01*
X119727066Y-79635066D01*
X119618052Y-79389540D01*
X119512453Y-79153332D01*
X119394932Y-78892148D01*
X119386324Y-78873066D01*
X119272003Y-78619631D01*
X119177080Y-78409091D01*
X119093071Y-78222613D01*
X119011493Y-78041365D01*
X118923862Y-77846514D01*
X118905768Y-77806267D01*
X118835861Y-77651648D01*
X118769046Y-77505406D01*
X118714496Y-77387545D01*
X118689293Y-77334239D01*
X118648836Y-77233993D01*
X118626565Y-77147246D01*
X118625067Y-77128635D01*
X118639452Y-77077545D01*
X118682518Y-76965471D01*
X118754125Y-76792729D01*
X118854138Y-76559632D01*
X118982419Y-76266497D01*
X119138831Y-75913636D01*
X119323236Y-75501364D01*
X119535498Y-75029997D01*
X119673698Y-74724400D01*
X119758270Y-74537245D01*
X119832057Y-74372865D01*
X119907273Y-74203925D01*
X119996132Y-74003089D01*
X120006621Y-73979333D01*
X120081096Y-73811860D01*
X120161044Y-73634029D01*
X120232361Y-73477164D01*
X120250615Y-73437466D01*
X120308600Y-73310927D01*
X120388485Y-73135285D01*
X120484532Y-72923274D01*
X120591001Y-72687628D01*
X120702153Y-72441081D01*
X120812249Y-72196369D01*
X120915550Y-71966223D01*
X121006317Y-71763381D01*
X121078810Y-71600574D01*
X121097718Y-71557867D01*
X121171506Y-71392154D01*
X121251545Y-71214446D01*
X121322649Y-71058423D01*
X121334393Y-71032933D01*
X121400160Y-70889015D01*
X121478951Y-70714360D01*
X121556658Y-70540294D01*
X121578446Y-70491067D01*
X121692846Y-70232537D01*
X121784033Y-70027885D01*
X121855707Y-69868833D01*
X121896404Y-69779867D01*
X121921203Y-69725284D01*
X121970107Y-69616944D01*
X122039498Y-69462888D01*
X122125757Y-69271159D01*
X122225265Y-69049798D01*
X122334405Y-68806848D01*
X122414524Y-68628400D01*
X122543338Y-68342426D01*
X122648118Y-68112606D01*
X122731940Y-67933019D01*
X122797881Y-67797748D01*
X122849018Y-67700875D01*
X122888427Y-67636480D01*
X122919186Y-67598646D01*
X122944371Y-67581454D01*
X122960303Y-67578533D01*
X122979100Y-67584134D01*
X123001789Y-67604058D01*
X123030669Y-67642986D01*
X123068043Y-67705597D01*
X123116212Y-67796573D01*
X123177476Y-67920594D01*
X123254138Y-68082341D01*
X123348499Y-68286494D01*
X123462860Y-68537734D01*
X123599523Y-68840742D01*
X123760788Y-69200198D01*
X123792879Y-69271866D01*
X123936049Y-69591569D01*
X124071577Y-69894009D01*
X124196818Y-70173293D01*
X124309122Y-70423526D01*
X124405843Y-70638813D01*
X124484334Y-70813261D01*
X124541946Y-70940975D01*
X124576032Y-71016059D01*
X124583863Y-71032933D01*
X124610786Y-71090997D01*
X124657784Y-71194913D01*
X124717601Y-71328561D01*
X124766829Y-71439333D01*
X124843136Y-71610632D01*
X124923493Y-71789501D01*
X124995514Y-71948431D01*
X125026022Y-72015066D01*
X125081102Y-72135961D01*
X125154639Y-72299129D01*
X125237786Y-72484860D01*
X125321696Y-72673440D01*
X125337601Y-72709333D01*
X125417787Y-72889960D01*
X125496169Y-73065680D01*
X125564905Y-73218970D01*
X125616153Y-73332305D01*
X125625524Y-73352800D01*
X125678802Y-73470153D01*
X125747385Y-73622973D01*
X125819372Y-73784698D01*
X125845543Y-73843867D01*
X125915629Y-74001915D01*
X125986859Y-74161315D01*
X126047349Y-74295508D01*
X126065304Y-74334933D01*
X126105589Y-74423635D01*
X126167708Y-74561243D01*
X126245844Y-74734831D01*
X126334181Y-74931473D01*
X126426900Y-75138245D01*
X126438736Y-75164667D01*
X126548576Y-75409892D01*
X126636243Y-75605523D01*
X126707249Y-75763781D01*
X126767107Y-75896887D01*
X126821328Y-76017063D01*
X126875424Y-76136531D01*
X126934907Y-76267514D01*
X127005290Y-76422232D01*
X127072001Y-76568790D01*
X127148261Y-76739634D01*
X127213291Y-76891659D01*
X127262231Y-77012989D01*
X127290218Y-77091748D01*
X127294934Y-77113312D01*
X127560281Y-77113312D01*
X127561434Y-77110728D01*
X127442110Y-76848897D01*
X127386472Y-76726703D01*
X127337244Y-76618229D01*
X127289234Y-76511905D01*
X127237252Y-76396158D01*
X127176110Y-76259417D01*
X127100617Y-76090111D01*
X127005583Y-75876668D01*
X126944943Y-75740400D01*
X126806855Y-75431150D01*
X126678898Y-75147182D01*
X126544415Y-74851571D01*
X126512297Y-74781304D01*
X126463670Y-74673455D01*
X126428628Y-74592806D01*
X126414432Y-74556091D01*
X126414400Y-74555722D01*
X126401185Y-74521807D01*
X126366061Y-74441873D01*
X126315811Y-74331256D01*
X126299373Y-74295619D01*
X126267518Y-74226742D01*
X126237715Y-74162115D01*
X126207463Y-74096189D01*
X126174261Y-74023415D01*
X126135609Y-73938243D01*
X126089006Y-73835125D01*
X126031951Y-73708512D01*
X125961943Y-73552854D01*
X125876480Y-73362603D01*
X125773064Y-73132210D01*
X125649192Y-72856125D01*
X125502363Y-72528799D01*
X125347891Y-72184400D01*
X125212669Y-71882954D01*
X125083290Y-71594605D01*
X124962940Y-71326452D01*
X124854807Y-71085594D01*
X124762078Y-70879127D01*
X124687939Y-70714151D01*
X124635579Y-70597763D01*
X124610364Y-70541867D01*
X124565219Y-70441683D01*
X124500368Y-70297103D01*
X124423641Y-70125614D01*
X124342870Y-69944704D01*
X124322225Y-69898400D01*
X124203720Y-69632775D01*
X124106901Y-69416435D01*
X124026054Y-69236723D01*
X123955463Y-69080982D01*
X123889414Y-68936554D01*
X123822192Y-68790780D01*
X123820094Y-68786248D01*
X123766719Y-68669546D01*
X123726507Y-68579018D01*
X123706243Y-68530028D01*
X123705067Y-68525786D01*
X123691799Y-68491879D01*
X123656240Y-68410941D01*
X123604753Y-68297316D01*
X123574907Y-68232471D01*
X123514359Y-68100283D01*
X123435005Y-67925186D01*
X123345432Y-67726221D01*
X123254225Y-67522427D01*
X123215106Y-67434600D01*
X123137512Y-67263315D01*
X123068055Y-67116042D01*
X123011771Y-67002981D01*
X122973695Y-66934337D01*
X122960227Y-66918133D01*
X122934565Y-66946650D01*
%TD*%
M02*
