M48
; DRILL file {KiCad 5.1.9+dfsg1-1} date Tue Jun  1 22:35:03 2021
; FORMAT={-:-/ absolute / inch / decimal}
; #@! TF.CreationDate,2021-06-01T22:35:03+02:00
; #@! TF.GenerationSoftware,Kicad,Pcbnew,5.1.9+dfsg1-1
; #@! TF.FileFunction,Plated,1,2,PTH
FMAT,2
INCH
T1C0.0157
T2C0.0197
T3C0.0374
T4C0.0394
T5C0.0472
T6C0.0669
T7C0.1063
%
G90
G05
T1
X4.4409Y-2.8559
X4.4509Y-3.8709
X4.4909Y-3.7059
X4.5409Y-3.1059
X4.5409Y-3.3059
X4.5409Y-4.1559
X4.5909Y-3.7059
X4.6409Y-4.0559
X4.6409Y-4.5059
X4.7909Y-3.8059
X4.7909Y-4.3059
X4.8409Y-4.0559
X4.9909Y-3.6059
X5.0709Y-2.6159
X5.0909Y-2.8059
X5.0909Y-3.2059
X5.0909Y-3.4059
X5.0959Y-4.4059
X5.1159Y-4.1459
X5.1659Y-3.2059
X5.1659Y-3.5059
X5.1909Y-2.7059
X5.1909Y-2.8059
X5.1909Y-4.0059
X5.1909Y-4.3059
X5.2409Y-2.7559
X5.2909Y-3.1559
X5.2909Y-4.5059
X5.3909Y-3.0559
X5.3909Y-3.4059
X5.3909Y-3.7059
X5.3909Y-4.1059
X5.3909Y-4.3059
X5.4909Y-2.7559
X5.5909Y-3.4059
X5.5909Y-3.6559
X5.5909Y-4.1059
X5.5909Y-4.3059
X5.5909Y-4.5059
X5.6909Y-2.7559
X5.6909Y-3.1559
X5.7909Y-3.6559
X5.7909Y-3.7559
X5.7909Y-4.3059
X5.7909Y-4.5059
X5.8159Y-3.9759
X5.8409Y-4.0559
X5.8459Y-3.3709
X5.8709Y-3.1709
X5.8809Y-3.5909
X5.9159Y-2.9659
X5.9273Y-3.5045
X5.9409Y-2.6059
X5.9709Y-3.8109
X6.0059Y-2.8359
X6.0159Y-3.1309
X6.0409Y-4.0459
X6.0459Y-3.5059
X6.0459Y-3.5659
X6.1359Y-3.7509
X6.1409Y-2.6059
X6.1409Y-4.3559
X6.1909Y-3.0059
X6.1909Y-3.2559
X6.1909Y-3.5059
X6.1909Y-3.6559
X6.2409Y-3.8559
X6.2859Y-2.8759
X6.2909Y-3.1009
X6.2909Y-3.6559
X6.3409Y-2.8759
X6.3409Y-3.102
X6.3409Y-3.102
X6.3409Y-3.102
X6.3409Y-4.1559
X6.3909Y-2.8759
X6.3909Y-3.1009
T2
X4.399Y-2.6858
X4.399Y-4.4181
X4.4224Y-2.6295
X4.4224Y-2.7422
X4.4224Y-4.3617
X4.4224Y-4.4745
X4.4787Y-2.6061
X4.4787Y-2.7656
X4.4787Y-4.3384
X4.4787Y-4.4978
X4.5351Y-2.6295
X4.5351Y-2.7422
X4.5351Y-4.3617
X4.5351Y-4.4745
X4.5585Y-2.6858
X4.5585Y-4.4181
X6.21Y-2.6858
X6.21Y-4.4181
X6.2334Y-2.6295
X6.2334Y-2.7422
X6.2334Y-4.3617
X6.2334Y-4.4745
X6.2898Y-2.6061
X6.2898Y-2.7656
X6.2898Y-4.3384
X6.2898Y-4.4978
X6.3461Y-2.6295
X6.3461Y-2.7422
X6.3461Y-4.3617
X6.3461Y-4.4745
X6.3695Y-2.6858
X6.3695Y-4.4181
T3
X4.4409Y-2.952
X4.4409Y-3.0504
X4.4409Y-3.1488
X4.4409Y-3.2472
X4.4409Y-3.3457
X4.4409Y-3.4441
X4.4409Y-3.5425
T4
X4.8409Y-4.402
X4.9394Y-4.402
X5.5909Y-4.402
X5.6909Y-4.402
X5.7909Y-4.402
T5
X5.3965Y-3.5453
T6
X5.2965Y-3.4453
X5.2965Y-3.6453
X5.4965Y-3.4453
X5.4965Y-3.6453
T7
X4.4787Y-2.6858
X4.4787Y-4.4181
X6.2898Y-2.6858
X6.2898Y-4.4181
T0
M30
